<?xml version="1.0" standalone="no"?>
<!DOCTYPE svg PUBLIC "-//W3C//DTD SVG 1.1//EN" "http://www.w3.org/Graphics/SVG/1.1/DTD/svg11.dtd" >
<svg xmlns="http://www.w3.org/2000/svg" xmlns:xlink="http://www.w3.org/1999/xlink" version="1.1">
<metadata>
Created by FontForge 20190801 at Sun Jun 26 05:59:41 2016
 By Unknown
Copyright (c) 2016 Monotype Imaging Inc.  All rights reserved.
</metadata>
<defs>
<font id="Posterama1927-Regular" horiz-adv-x="689" >
  <font-face 
    font-family="Posterama 1927"
    font-weight="400"
    font-stretch="normal"
    units-per-em="1000"
    panose-1="2 11 5 4 2 2 0 2 0 0"
    ascent="805"
    descent="-195"
    x-height="700"
    cap-height="700"
    bbox="-313 -242 1587 989"
    underline-thickness="50"
    underline-position="-125"
    unicode-range="U+000D-FEFF"
  />
<missing-glyph horiz-adv-x="1037" 
d="M826 135q-30 0 -30 30v318q2 117 -81 197t-197 78q-115 0 -196.5 -78t-81.5 -197v-318q0 -30 -29 -30q-91 0 -144 47t-53 127q0 76 38 121t98 53q-3 147 109 255t259 106q147 2 259.5 -106t109.5 -255q60 -8 98 -53t38 -121q0 -80 -53 -127t-144 -47zM454 114l-2 55
q-2 45 -9.5 79t-15 51.5t-25.5 54.5q-2 3 -7 13.5t-6.5 13.5t-5.5 12t-5 12t-4 11t-3.5 12.5t-2.5 12.5t-2.5 14.5t-1 15t-0.5 17.5q0 65 45 110.5t109 45.5q65 0 110 -45.5t45 -110.5q-1 -30 -6 -53t-10.5 -36t-20.5 -45q-18 -37 -25.5 -54.5t-15 -51.5t-9.5 -79l-2 -55
q-2 -29 -29 -29h-72q-27 0 -29 29zM559 -125h-80q-35 0 -35 35v80q0 35 35 35h80q35 0 35 -35v-80q0 -35 -35 -35z" />
    <glyph glyph-name="ff" unicode="ff" horiz-adv-x="1072" 
d="M689 0h-56q-12 0 -17 4.5t-5 17.5v268h-411q-12 0 -12 -11v-257q0 -13 -5 -17.5t-17 -4.5h-56q-12 0 -17 4.5t-5 17.5v656q0 13 5 17.5t17 4.5h380q12 0 17 -4.5t5 -17.5v-51q0 -13 -5 -17.5t-17 -4.5h-290q-12 0 -12 -11v-198q0 -11 12 -11h411v293q0 13 5 17.5t17 4.5
h380q12 0 17 -4.5t5 -17.5v-51q0 -13 -5 -17.5t-17 -4.5h-290q-12 0 -12 -11v-198q0 -11 12 -11h256q22 0 22 -23v-50q0 -22 -22 -22h-256q-12 0 -12 -11v-257q0 -13 -5 -17.5t-17 -4.5z" />
    <glyph glyph-name="fi" unicode="fi" horiz-adv-x="826" 
d="M166 0h-56q-12 0 -17 4.5t-5 17.5v656q0 13 5 17.5t17 4.5h381q12 0 17 -4.5t5 -17.5v-51q0 -13 -5 -17.5t-17 -4.5h-291q-12 0 -12 -11v-198q0 -11 12 -11h256q13 0 18 -5t5 -18v-50q0 -22 -23 -22h-256q-12 0 -12 -11v-257q0 -13 -5 -17.5t-17 -4.5zM716 0h-56
q-12 0 -17 4.5t-5 17.5v656q0 13 5 17.5t17 4.5h56q12 0 17 -4.5t5 -17.5v-656q0 -13 -5 -17.5t-17 -4.5z" />
    <glyph glyph-name="fl" unicode="fl" horiz-adv-x="1102" 
d="M166 0h-56q-12 0 -17 4.5t-5 17.5v656q0 13 5 17.5t17 4.5h381q12 0 17 -4.5t5 -17.5v-51q0 -13 -5 -17.5t-17 -4.5h-291q-12 0 -12 -11v-198q0 -11 12 -11h256q13 0 18 -5t5 -18v-50q0 -22 -23 -22h-256q-12 0 -12 -11v-257q0 -13 -5 -17.5t-17 -4.5zM750 94h295
q22 0 22 -22v-50q0 -13 -5 -17.5t-17 -4.5h-385q-12 0 -17 4.5t-5 17.5v656q0 13 5 17.5t17 4.5h56q12 0 17 -4.5t5 -17.5v-573q0 -11 12 -11z" />
    <glyph glyph-name="ffi" unicode="ffi" horiz-adv-x="1346" 
d="M689 0h-56q-12 0 -17 4.5t-5 17.5v268h-411q-12 0 -12 -11v-257q0 -13 -5 -17.5t-17 -4.5h-56q-12 0 -17 4.5t-5 17.5v656q0 13 5 17.5t17 4.5h380q12 0 17 -4.5t5 -17.5v-51q0 -13 -5 -17.5t-17 -4.5h-290q-12 0 -12 -11v-198q0 -11 12 -11h411v293q0 13 5 17.5t17 4.5
h380q12 0 17 -4.5t5 -17.5v-51q0 -13 -5 -17.5t-17 -4.5h-290q-12 0 -12 -11v-198q0 -11 12 -11h256q22 0 22 -23v-50q0 -22 -22 -22h-256q-12 0 -12 -11v-257q0 -13 -5 -17.5t-17 -4.5zM1236 0h-56q-12 0 -17 4.5t-5 17.5v656q0 13 5 17.5t17 4.5h56q12 0 17 -4.5t5 -17.5
v-656q0 -13 -5 -17.5t-17 -4.5z" />
    <glyph glyph-name="ffl" unicode="ffl" horiz-adv-x="1622" 
d="M689 0h-56q-12 0 -17 4.5t-5 17.5v268h-411q-12 0 -12 -11v-257q0 -13 -5 -17.5t-17 -4.5h-56q-12 0 -17 4.5t-5 17.5v656q0 13 5 17.5t17 4.5h380q12 0 17 -4.5t5 -17.5v-51q0 -13 -5 -17.5t-17 -4.5h-290q-12 0 -12 -11v-198q0 -11 12 -11h411v293q0 13 5 17.5t17 4.5
h380q12 0 17 -4.5t5 -17.5v-51q0 -13 -5 -17.5t-17 -4.5h-290q-12 0 -12 -11v-198q0 -11 12 -11h256q22 0 22 -23v-50q0 -22 -22 -22h-256q-12 0 -12 -11v-257q0 -13 -5 -17.5t-17 -4.5zM1270 94h295q22 0 22 -22v-50q0 -13 -5 -17.5t-17 -4.5h-385q-12 0 -17 4.5t-5 17.5
v656q0 13 5 17.5t17 4.5h56q12 0 17 -4.5t5 -17.5v-573q0 -11 12 -11z" />
    <glyph glyph-name="uniFDFC" unicode="&#xfdfc;" horiz-adv-x="1005" arabic-form="isolated" 
d="M50 221v67h42v-28q0 -72 36 -110t99 -38q140 0 140 224v364h42v-431q0 -147 -51 -208q-49 -61 -132 -61q-176 0 -176 221zM523 326v374h42v-307q0 -90 24.5 -125.5t77.5 -35.5q100 0 100 133v23h42v-43q0 -226 -142 -226q-144 0 -144 207zM647 -194l-58 121
q48 -16 112 -16q222 0 222 256v40h42v-59q0 -174 -63 -262t-184 -88q-37 0 -71 8zM544 28q0 18 12.5 30.5t29.5 12.5q18 0 30.5 -12t12.5 -31q0 -17 -12 -29t-31 -12q-17 0 -29.5 12t-12.5 29zM702 28q0 18 12.5 30.5t29.5 12.5q18 0 30.5 -12t12.5 -31q0 -17 -12 -29
t-31 -12q-17 0 -29.5 12t-12.5 29z" />
    <glyph glyph-name=".notdef" horiz-adv-x="1037" 
d="M826 135q-30 0 -30 30v318q2 117 -81 197t-197 78q-115 0 -196.5 -78t-81.5 -197v-318q0 -30 -29 -30q-91 0 -144 47t-53 127q0 76 38 121t98 53q-3 147 109 255t259 106q147 2 259.5 -106t109.5 -255q60 -8 98 -53t38 -121q0 -80 -53 -127t-144 -47zM454 114l-2 55
q-2 45 -9.5 79t-15 51.5t-25.5 54.5q-2 3 -7 13.5t-6.5 13.5t-5.5 12t-5 12t-4 11t-3.5 12.5t-2.5 12.5t-2.5 14.5t-1 15t-0.5 17.5q0 65 45 110.5t109 45.5q65 0 110 -45.5t45 -110.5q-1 -30 -6 -53t-10.5 -36t-20.5 -45q-18 -37 -25.5 -54.5t-15 -51.5t-9.5 -79l-2 -55
q-2 -29 -29 -29h-72q-27 0 -29 29zM559 -125h-80q-35 0 -35 35v80q0 35 35 35h80q35 0 35 -35v-80q0 -35 -35 -35z" />
    <glyph glyph-name=".null" horiz-adv-x="0" 
 />
    <glyph glyph-name="nonmarkingreturn" horiz-adv-x="333" 
 />
    <glyph glyph-name="NULL" horiz-adv-x="0" 
 />
    <glyph glyph-name="NULL" horiz-adv-x="0" 
 />
    <glyph glyph-name="CR" unicode="&#xd;" horiz-adv-x="275" 
 />
    <glyph glyph-name="space" unicode=" " horiz-adv-x="275" 
 />
    <glyph glyph-name="exclam" unicode="!" horiz-adv-x="253" 
d="M86 189l-18 474q-2 21 5 29t27 8h53q19 0 26 -8t6 -29l-19 -474q-1 -18 -6 -23.5t-19 -5.5h-30q-14 0 -19 5.5t-6 23.5zM126 107q27 0 44.5 -16.5t17.5 -42.5q0 -25 -17.5 -41.5t-44.5 -16.5q-26 0 -44 16.5t-18 41.5q0 26 17.5 42.5t44.5 16.5z" />
    <glyph glyph-name="quotedbl" unicode="&#x22;" horiz-adv-x="323" 
d="M143 690l-1 -10l-11 -137q-1 -23 -22 -23h-27q-21 0 -22 23l-12 137q-2 18 3.5 24.5t23.5 6.5h41q27 0 27 -21zM276 690l-1 -10l-12 -137q-1 -13 -5.5 -18t-16.5 -5h-27q-20 0 -21 23l-12 137q-2 18 3.5 24.5t22.5 6.5h41q28 0 28 -21z" />
    <glyph glyph-name="numbersign" unicode="#" horiz-adv-x="672" 
d="M493 678q6 22 28 22h38q21 0 21 -15q0 -1 -2 -11l-50 -170h92q12 0 17 -4.5t5 -17.5v-36q0 -13 -5 -17.5t-17 -4.5h-113l-44 -148h106q12 0 17 -4.5t5 -17.5v-36q0 -13 -5 -17.5t-17 -4.5h-126l-51 -174q-6 -22 -29 -22h-38q-20 0 -20 14v1q0 1 0.5 2.5t1 4t0.5 4.5
l50 170h-131l-51 -174q-6 -22 -28 -22h-38q-21 0 -21 15q0 1 2 11l50 170h-88q-12 0 -17 4.5t-5 17.5v36q0 13 5 17.5t17 4.5h109l43 148h-101q-12 0 -17 4.5t-5 17.5v36q0 13 5 17.5t17 4.5h122l52 174q5 22 28 22h38q20 0 20 -14v-1q0 -1 -0.5 -2.5t-1 -4t-0.5 -4.5
l-50 -170h131zM378 276l43 148h-131l-43 -148h131z" />
    <glyph glyph-name="dollar" unicode="$" horiz-adv-x="672" 
d="M341 680l28 -1v80q0 15 4 20.5t16 5.5t16 -5.5t4 -20.5v-85q80 -12 156 -64q13 -8 13 -16q0 -7 -8 -18l-27 -39q-8 -11 -15 -11q-2 0 -8 3.5t-7 3.5q-49 34 -104 47v-195q92 -21 135.5 -62t43.5 -110t-50 -120t-129 -66v-86q0 -15 -4 -20.5t-16 -5.5t-16 5.5t-4 20.5v80
l-28 -1l-28 1v-80q0 -15 -4 -20.5t-16 -5.5t-16 5.5t-4 20.5v83q-103 12 -191 78q-12 9 -12 17q0 9 7 16l27 41q9 12 16 12t14 -7q61 -49 139 -64v200q-90 19 -135 60t-45 114q0 71 48.5 119.5t131.5 63.5v85q0 15 4 20.5t16 5.5t16 -5.5t4 -20.5v-80zM369 586q-14 2 -28 2
t-28 -2v-181l56 -11v192zM273 415v165q-38 -9 -59.5 -31t-21.5 -53q0 -32 19.5 -51t61.5 -30zM313 113l28 -1l28 1v185l-56 11v-196zM409 289v-169q80 20 80 89q0 56 -80 80z" />
    <glyph glyph-name="percent" unicode="%" horiz-adv-x="736" 
d="M26 532q0 81 44 130t114 49q67 0 110.5 -47.5t43.5 -127.5q0 -81 -43.5 -130t-113.5 -49q-69 0 -112 47.5t-43 127.5zM109 -11h-42q-20 0 -20 11q0 8 14 24l528 666q10 13 16.5 17t21.5 4h42q20 0 20 -11q0 -8 -14 -24l-528 -666q-10 -13 -16.5 -17t-21.5 -4zM260 534
q0 48 -21.5 76.5t-56.5 28.5q-36 0 -56.5 -28.5t-20.5 -76.5q0 -49 21 -77t56 -28q36 0 57 28.5t21 76.5zM398 164q0 81 43.5 130t113.5 49q69 0 112 -47.5t43 -127.5q0 -81 -44 -130t-114 -49q-67 0 -110.5 47.5t-43.5 127.5zM631 166q0 49 -21 77t-56 28q-36 0 -57 -28.5
t-21 -76.5t21.5 -76.5t56.5 -28.5t56 29t21 76z" />
    <glyph glyph-name="ampersand" unicode="&#x26;" horiz-adv-x="694" 
d="M321 711q89 0 141 -51t52 -130q0 -70 -47.5 -118t-132.5 -72l147 -148q50 51 91 132q9 17 20 17q2 0 14 -5l39 -24q14 -9 14 -18q0 -4 -5 -17q-43 -88 -106 -151l101 -100q11 -11 11 -17q0 -9 -20 -9h-72q-24 0 -41 17l-49 50q-91 -79 -208 -79q-111 0 -173.5 56
t-62.5 145q0 66 38.5 114t106.5 72q-58 66 -58 143q0 81 55.5 137t144.5 56zM320 622q-44 0 -71 -30t-27 -75q0 -60 56 -116q72 15 104 46t32 80q0 39 -25.5 67t-68.5 28zM274 80q79 0 139 51l-179 184q-97 -32 -97 -119q0 -51 37 -83.5t100 -32.5z" />
    <glyph glyph-name="quotesingle" unicode="'" horiz-adv-x="191" 
d="M143 690l-1 -10l-11 -137q-1 -23 -22 -23h-27q-21 0 -22 23l-12 137q-2 18 3.5 24.5t23.5 6.5h41q27 0 27 -21z" />
    <glyph glyph-name="parenleft" unicode="(" horiz-adv-x="319" 
d="M215 822q12 13 23 13q8 0 18 -8l31 -24q11 -9 11 -17t-10 -19q-73 -79 -120 -190q-46 -108 -46 -227t46 -227q47 -111 120 -190q10 -11 10 -19t-11 -17l-31 -24q-10 -8 -18 -8q-11 0 -23 13q-85 92 -137 215q-53 124 -53 255q0 132 53 258q52 123 137 216z" />
    <glyph glyph-name="parenright" unicode=")" horiz-adv-x="319" 
d="M104 -122q-12 -13 -22 -13q-9 0 -19 8l-30 24q-11 8 -11 18q0 7 9 18q74 81 120 190q46 108 46 227q0 118 -46 226q-47 110 -120 191q-9 11 -9 18q0 10 11 18l30 24q10 8 19 8q10 0 22 -13q85 -92 137 -215q53 -124 53 -255q0 -132 -53 -258q-52 -123 -137 -216z" />
    <glyph glyph-name="asterisk" unicode="*" horiz-adv-x="411" 
d="M248 677l-9 -96l88 38q12 4 14 4q9 0 14 -14l16 -46q0 -2 1 -5q1 -4 1 -5q0 -12 -19 -16l-93 -20l63 -73q8 -8 8 -16q0 -7 -10 -14l-39 -28q-7 -6 -13 -6q-8 0 -16 14l-49 83l-48 -83q-8 -14 -16 -14q-5 0 -13 6l-39 28q-10 7 -10 15q0 7 8 15l63 73l-93 20q-19 4 -19 16
l2 10l16 46q5 14 14 14q3 0 14 -4l87 -38l-8 96v7q0 16 18 16h49q22 0 18 -23z" />
    <glyph glyph-name="plus" unicode="+" horiz-adv-x="672" 
d="M78 299v42q0 13 5 17.5t17 4.5h182q12 0 12 11v182q0 12 4.5 17t17.5 5h40q23 0 23 -22v-182q0 -11 11 -11h182q12 0 17 -4.5t5 -17.5v-42q0 -13 -5 -17.5t-17 -4.5h-182q-11 0 -11 -11v-182q0 -22 -23 -22h-40q-13 0 -17.5 5t-4.5 17v182q0 11 -12 11h-182
q-12 0 -17 4.5t-5 17.5z" />
    <glyph glyph-name="comma" unicode="," horiz-adv-x="227" 
d="M176 46q0 -35 -26 -83l-28 -55q-6 -11 -11.5 -14t-17.5 -3h-31q-16 0 -16 10l4 12l42 78q-18 4 -29.5 19t-11.5 38q0 27 17.5 44.5t43.5 17.5q28 0 46 -17.5t18 -46.5z" />
    <glyph glyph-name="hyphen" unicode="-" horiz-adv-x="429" 
d="M356 299h-284q-12 0 -17 4.5t-5 17.5v42q0 23 22 23h284q23 0 23 -23v-42q0 -22 -23 -22z" />
    <glyph glyph-name="period" unicode="." horiz-adv-x="227" 
d="M113 110q27 0 45 -17t18 -43t-18 -42.5t-45 -16.5t-44.5 16.5t-17.5 42.5t18 43t44 17z" />
    <glyph glyph-name="slash" unicode="/" horiz-adv-x="391" 
d="M318 711h52q19 0 19 -13q0 -4 -2 -10l-282 -677q-6 -14 -12 -18t-20 -4h-52q-18 0 -18 12q0 5 2 11l282 677q6 14 11.5 18t19.5 4z" />
    <glyph glyph-name="zero" unicode="0" horiz-adv-x="672" 
d="M336 711q129 0 209 -98t80 -261q0 -165 -81 -264t-209 -99q-129 0 -208.5 96t-79.5 261q0 166 80 265.5t209 99.5zM335 84q83 0 134.5 74.5t51.5 190.5q0 122 -51 194.5t-135 72.5q-85 0 -134.5 -72t-49.5 -195q0 -121 50 -193t134 -72z" />
    <glyph glyph-name="one" unicode="1" horiz-adv-x="365" 
d="M226 0h-56q-12 0 -17 4.5t-5 17.5v571q0 12 -12 12h-91q-12 0 -17 4.5t-5 17.5v51q0 13 5 17.5t17 4.5h181q12 0 17 -4.5t5 -17.5v-656q0 -13 -5 -17.5t-17 -4.5z" />
    <glyph glyph-name="two" unicode="2" horiz-adv-x="566" 
d="M505 0h-462q-28 0 -28 13q0 9 13 23l237 256q70 75 98.5 121t28.5 89q0 52 -37 83t-93 31q-79 0 -152 -62q-11 -8 -16 -8q-8 0 -18 13l-23 33q-9 10 -9 18q0 7 13 19q94 82 211 82q98 0 163 -54.5t65 -147.5q0 -59 -30.5 -114t-105.5 -136l-151 -164h296q13 -1 18 -5.5
t5 -16.5v-51q0 -13 -5 -17.5t-18 -4.5z" />
    <glyph glyph-name="three" unicode="3" horiz-adv-x="599" 
d="M449 218q0 130 -205 130q-32 0 -32 13q0 7 10 21l161 223h-298q-22 1 -22 22v51q0 13 5 17.5t17 4.5h439q23 0 23 -14q0 -8 -11 -25l-177 -242q93 -11 143.5 -62t50.5 -136q0 -103 -77.5 -167.5t-200.5 -64.5q-134 0 -242 87q-11 9 -11 18q0 6 6 15l28 44q7 10 15 10
t15 -7q88 -72 190 -72q77 0 125 37.5t48 96.5z" />
    <glyph glyph-name="four" unicode="4" horiz-adv-x="599" 
d="M549 254q13 0 18 -5t5 -18v-46q0 -13 -5 -17.5t-18 -4.5h-77v-140q0 -13 -5 -18t-18 -5h-55q-13 0 -17.5 5t-4.5 18v140h-322q-35 0 -35 22q0 10 16 31l375 466q25 30 40 30q26 0 26 -42v-416h77zM374 515l-207 -261h207v261z" />
    <glyph glyph-name="five" unicode="5" horiz-adv-x="599" 
d="M188 593l-7 -170q57 18 125 18q111 0 178 -58.5t67 -154.5q0 -103 -74 -171t-205 -68q-125 0 -226 74q-12 11 -12 18t6 17l25 40q7 12 15 12q7 0 17 -7q83 -59 177 -59q82 0 127.5 37.5t45.5 100.5q0 60 -46.5 93t-123.5 33q-85 0 -168 -30q-11 -4 -14 -4q-16 0 -14 26
l15 332q1 16 7 22t23 6h370q13 0 18 -4.5t5 -17.5v-51q0 -13 -5 -17.5t-18 -4.5h-296q-12 0 -12 -12z" />
    <glyph glyph-name="six" unicode="6" horiz-adv-x="606" 
d="M321 700h63q21 0 21 -11q0 -6 -7 -16l-163 -227q37 21 90 21q102 0 170 -63.5t68 -166.5q0 -112 -75 -180t-187 -68q-110 0 -181.5 64t-71.5 174q0 61 21 117q20 53 72 128l139 204q12 15 19 19.5t22 4.5zM304 84q68 0 111.5 40.5t43.5 109.5q0 63 -43 102.5t-109 39.5
q-68 0 -111.5 -40.5t-43.5 -106.5q0 -65 42.5 -105t109.5 -40z" />
    <glyph glyph-name="seven" unicode="7" horiz-adv-x="547" 
d="M212 0h-57q-21 0 -21 12q0 3 5 18l255 575h-346q-13 0 -18 5t-5 18v49q0 13 5 18t18 5h456q26 0 26 -15q0 -9 -6 -22l-276 -636q-8 -17 -14.5 -22t-21.5 -5z" />
    <glyph glyph-name="eight" unicode="8" horiz-adv-x="606" 
d="M534 516q0 -107 -96 -151q55 -19 87 -62.5t32 -102.5q0 -102 -70.5 -156.5t-187.5 -54.5q-113 0 -181.5 53.5t-68.5 150.5q0 62 31.5 106t86.5 66q-96 42 -96 151q0 87 64.5 141t171.5 54q102 0 164.5 -54t62.5 -141zM173 511q0 -47 37.5 -77t92.5 -30q54 0 91.5 30
t37.5 77q0 50 -34.5 79t-93.5 29q-58 0 -94.5 -30t-36.5 -78zM303 317q-62 0 -106 -32.5t-44 -85.5q0 -56 40 -87t109 -31q70 0 110.5 31t40.5 87q0 53 -44 85.5t-106 32.5z" />
    <glyph glyph-name="nine" unicode="9" horiz-adv-x="606" 
d="M284 0h-64q-20 0 -20 10q0 6 8 17l164 227q-40 -21 -91 -21q-103 0 -171 64t-68 166q0 109 75 178.5t187 69.5q110 0 181.5 -63.5t71.5 -174.5q0 -61 -21 -116t-71 -128l-139 -205q-11 -16 -18.5 -20t-23.5 -4zM302 616q-69 0 -112.5 -40.5t-43.5 -109.5
q0 -63 42.5 -102.5t108.5 -39.5q68 0 112 41t44 106t-42.5 105t-108.5 40z" />
    <glyph glyph-name="colon" unicode=":" horiz-adv-x="227" 
d="M113 110q27 0 45 -17t18 -43t-18 -42.5t-45 -16.5t-44.5 16.5t-17.5 42.5t18 43t44 17zM113 451q27 0 45 -17t18 -43t-18 -42.5t-45 -16.5t-44.5 16.5t-17.5 42.5t18 43t44 17z" />
    <glyph glyph-name="semicolon" unicode=";" horiz-adv-x="227" 
d="M176 46q0 -35 -26 -83l-28 -55q-6 -11 -11.5 -14t-17.5 -3h-31q-16 0 -16 10l4 12l42 78q-18 4 -29.5 19t-11.5 38q0 27 17.5 44.5t43.5 17.5q28 0 46 -17.5t18 -46.5zM113 451q27 0 45 -17t18 -43t-18 -42.5t-45 -16.5t-44.5 16.5t-17.5 42.5t18 43t44 17z" />
    <glyph glyph-name="less" unicode="&#x3c;" horiz-adv-x="672" 
d="M531 121v-46q0 -19 -11 -19q-8 0 -16 5l-382 215q-14 7 -17.5 12.5t-3.5 20.5v22q0 15 3.5 20.5t17.5 12.5l382 215q8 5 16 5q11 0 11 -19v-46q0 -14 -4 -19.5t-19 -14.5l-296 -165l296 -165q15 -9 19 -14.5t4 -19.5z" />
    <glyph glyph-name="equal" unicode="=" horiz-adv-x="672" 
d="M570 376h-467q-23 0 -23 22v41q0 22 23 22h467q12 0 17 -4.5t5 -17.5v-41q0 -13 -5 -17.5t-17 -4.5zM570 179h-467q-23 0 -23 22v41q0 22 23 22h467q12 0 17 -4.5t5 -17.5v-41q0 -13 -5 -17.5t-17 -4.5z" />
    <glyph glyph-name="greater" unicode="&#x3e;" horiz-adv-x="672" 
d="M142 519v46q0 19 11 19q7 0 15 -5l382 -215q14 -7 18 -13t4 -20v-22q0 -14 -4 -20t-18 -13l-382 -215q-8 -5 -15 -5q-11 0 -11 19v46q0 14 4 20t18 14l296 165l-296 165q-14 8 -18 14t-4 20z" />
    <glyph glyph-name="question" unicode="?" horiz-adv-x="505" 
d="M162 181v15q0 60 18 94.5t78 79.5q59 46 81 75.5t22 66.5q0 48 -35 76t-89 28q-79 0 -151 -59q-9 -9 -16 -9q-8 0 -18 13l-24 34q-8 11 -8 18q0 9 14 21q95 77 206 77q97 0 161 -52.5t64 -140.5q0 -56 -31 -102.5t-99 -98.5q-43 -33 -58 -59t-15 -63v-14q0 -21 -22 -21
h-56q-22 0 -22 21zM211 107q27 0 44.5 -16.5t17.5 -42.5q0 -25 -17.5 -41.5t-44.5 -16.5q-26 0 -44 16.5t-18 41.5q0 26 17.5 42.5t44.5 16.5z" />
    <glyph glyph-name="at" unicode="@" horiz-adv-x="894" 
d="M28 259q-2 195 117 325t311 127q92 1 171 -28.5t131 -80.5t80.5 -118t27.5 -140q1 -130 -66.5 -214.5t-156.5 -82.5q-51 0 -87 27t-48 73q-64 -78 -148 -78q-58 0 -96 43.5t-38 113.5q-1 63 28.5 128t82.5 107.5t110 40.5q76 0 112 -69l10 34q6 18 12 23.5t21 5.5h38
q23 0 23 -14q0 -6 -3 -15l-49 -147q-24 -77 -24 -115q0 -34 17.5 -54.5t46.5 -20.5q52 0 89.5 59t37.5 151q0 125 -85 206.5t-237 81.5q-155 0 -247 -103t-92 -263q0 -153 87 -243t223 -90q122 0 224 63q1 0 4.5 2t7.5 3.5t6 1.5q7 0 15 -12l19 -30q6 -10 6 -16
q0 -11 -13 -18q-121 -78 -273 -78q-168 -2 -282.5 113.5t-112.5 300.5zM317 233q0 -37 15.5 -58.5t45.5 -21.5q53 -3 98 61.5t43 122.5q0 37 -17.5 59t-49.5 22q-53 3 -95 -59.5t-40 -125.5z" />
    <glyph glyph-name="A" unicode="A" 
d="M480 208h-275q-14 0 -19 -12l-76 -168q-8 -17 -15.5 -22.5t-23.5 -5.5h-51q-21 0 -21 13q0 4 5 17l299 633q14 30 22.5 40t18.5 10t18 -10t22 -40l301 -633q5 -13 5 -17q0 -13 -21 -13h-55q-16 0 -23.5 5.5t-15.5 22.5l-77 168q-4 12 -18 12zM449 302q0 3 -3 9l-104 224
l-103 -224q-3 -6 -3 -10q0 -5 10 -5h192q11 0 11 6z" />
    <glyph glyph-name="B" unicode="B" horiz-adv-x="626" 
d="M110 700h196q263 0 263 -186q0 -115 -104 -152q58 -15 91 -55t33 -102q0 -205 -280 -205h-199q-12 0 -17 4.5t-5 17.5v656q0 13 5 17.5t17 4.5zM188 596v-186q0 -12 12 -12h113q152 0 152 106q0 104 -166 104h-99q-12 0 -12 -12zM485 204q0 55 -41.5 79t-126.5 24h-117
q-12 0 -12 -12v-191q0 -12 12 -12h109q93 0 134.5 26t41.5 86z" />
    <glyph glyph-name="C" unicode="C" horiz-adv-x="701" 
d="M607 156q11 9 17 9q7 0 15 -10l29 -40q5 -7 5 -14t-12 -18q-111 -94 -259 -94q-147 -3 -253 102t-103 256q-2 153 104 259.5t258 104.5q143 0 254 -93q10 -7 10 -15q0 -7 -6 -16l-29 -39q-8 -11 -16 -11q-6 0 -17 8q-92 71 -198 71q-108 0 -182 -76t-74 -191
q-2 -111 73.5 -189t182.5 -76q112 0 201 72z" />
    <glyph glyph-name="D" unicode="D" horiz-adv-x="742" 
d="M110 700h208q174 0 276 -93t102 -249q0 -163 -106 -260.5t-286 -97.5h-194q-12 0 -17 4.5t-5 17.5v656q0 13 5 17.5t17 4.5zM188 594v-488q0 -11 12 -11h106q135 0 210.5 69t75.5 190q0 114 -75.5 182.5t-206.5 68.5h-110q-12 0 -12 -11z" />
    <glyph glyph-name="E" unicode="E" horiz-adv-x="565" 
d="M511 73v-51q0 -13 -5 -17.5t-17 -4.5h-379q-12 0 -17 4.5t-5 17.5v656q0 13 5 17.5t17 4.5h378q12 0 17 -4.5t5 -17.5v-51q0 -13 -5 -17.5t-17 -4.5h-288q-12 0 -12 -11v-183q0 -12 12 -12h254q12 0 17 -4.5t5 -17.5v-50q0 -22 -22 -22h-254q-12 0 -12 -11v-188
q0 -11 12 -11h289q12 0 17 -4.5t5 -17.5z" />
    <glyph glyph-name="F" unicode="F" horiz-adv-x="550" 
d="M166 0h-56q-12 0 -17 4.5t-5 17.5v656q0 13 5 17.5t17 4.5h381q12 0 17 -4.5t5 -17.5v-51q0 -13 -5 -17.5t-17 -4.5h-291q-12 0 -12 -11v-198q0 -11 12 -11h256q13 0 18 -5t5 -18v-50q0 -22 -23 -22h-256q-12 0 -12 -11v-257q0 -13 -5 -17.5t-17 -4.5z" />
    <glyph glyph-name="G" unicode="G" horiz-adv-x="746" 
d="M661 51q-118 -62 -260 -62q-147 -2 -252 100t-103 256q-2 159 106 263.5t262 102.5q140 0 249 -80q13 -9 13 -18q0 -5 -7 -15l-28 -40q-7 -10 -16 -10q-7 0 -16 6q-97 62 -197 62q-115 0 -188.5 -75t-73.5 -192t74.5 -191.5t182.5 -74.5q92 0 158 29q14 6 14 19v178
q0 13 5 17.5t17 4.5h56q12 0 17 -4.5t5 -17.5v-229q0 -21 -18 -29z" />
    <glyph glyph-name="H" unicode="H" horiz-adv-x="731" 
d="M621 0h-56q-12 0 -17 4.5t-5 17.5v279q0 11 -12 11h-331q-12 0 -12 -11v-279q0 -13 -5 -17.5t-17 -4.5h-56q-12 0 -17 4.5t-5 17.5v656q0 13 5 17.5t17 4.5h56q12 0 17 -4.5t5 -17.5v-260q0 -12 12 -12h331q12 0 12 12v260q0 13 5 17.5t17 4.5h56q12 0 17 -4.5t5 -17.5
v-656q0 -13 -5 -17.5t-17 -4.5z" />
    <glyph glyph-name="I" unicode="I" horiz-adv-x="276" 
d="M166 0h-56q-12 0 -17 4.5t-5 17.5v656q0 13 5 17.5t17 4.5h56q12 0 17 -4.5t5 -17.5v-656q0 -13 -5 -17.5t-17 -4.5z" />
    <glyph glyph-name="J" unicode="J" horiz-adv-x="284" 
d="M-39 -102q3 0 20 -1.5t25 -1.5q45 0 70 36t25 104v643q0 13 5 17.5t17 4.5h56q12 0 17 -4.5t5 -17.5v-651q0 -227 -187 -227q-40 0 -60 6q-17 4 -16 24l6 50q1 18 17 18z" />
    <glyph glyph-name="K" unicode="K" horiz-adv-x="621" 
d="M166 0h-56q-12 0 -17 4.5t-5 17.5v656q0 13 5 17.5t17 4.5h56q12 0 17 -4.5t5 -17.5v-656q0 -13 -5 -17.5t-17 -4.5zM522 700h65q19 0 19 -11q0 -7 -7 -14l-271 -320l278 -329q8 -11 8 -15q0 -11 -20 -11h-69q-17 0 -25 4t-20 19l-257 310q-9 11 -9 19q0 10 10 20
l254 304q12 15 20 19.5t24 4.5z" />
    <glyph glyph-name="L" unicode="L" horiz-adv-x="552" 
d="M200 95h295q12 0 17 -4.5t5 -17.5v-51q0 -13 -5 -17.5t-17 -4.5h-385q-12 0 -17 4.5t-5 17.5v656q0 13 5 17.5t17 4.5h56q12 0 17 -4.5t5 -17.5v-572q0 -11 12 -11z" />
    <glyph glyph-name="M" unicode="M" horiz-adv-x="846" 
d="M188 22q0 -13 -5 -17.5t-17 -4.5h-56q-12 0 -17 4.5t-5 17.5v655q0 33 20 33q12 0 38 -29l279 -335l275 335q26 29 38 29q20 0 20 -33v-655q0 -13 -5 -17.5t-17 -4.5h-56q-12 0 -17 4.5t-5 17.5v466l-200 -246q-21 -28 -35 -28t-35 28l-200 246v-466z" />
    <glyph glyph-name="N" unicode="N" horiz-adv-x="744" 
d="M578 700h56q12 0 17 -4.5t5 -17.5v-656q0 -33 -20 -33q-15 0 -42 31l-406 479v-477q0 -13 -5 -17.5t-17 -4.5h-56q-12 0 -17 4.5t-5 17.5v656q0 33 21 33q15 0 41 -31l406 -479v477q0 13 5 17.5t17 4.5z" />
    <glyph glyph-name="O" unicode="O" horiz-adv-x="814" 
d="M408 711q152 2 257 -103t103 -257q2 -153 -104.5 -259t-259.5 -103q-150 -3 -255 102t-103 256q-2 152 104.5 259.5t257.5 104.5zM405 84q106 -2 183.5 76.5t75.5 189.5q0 115 -74.5 190.5t-182.5 75.5t-182.5 -76.5t-74.5 -191.5q-2 -112 73.5 -189t181.5 -75z" />
    <glyph glyph-name="P" unicode="P" horiz-adv-x="624" 
d="M188 220v-198q0 -13 -5 -17.5t-17 -4.5h-56q-12 0 -17 4.5t-5 17.5v656q0 13 5 17.5t17 4.5h193q284 0 284 -230q0 -114 -76 -176.5t-217 -62.5h-94q-12 0 -12 -11zM188 594v-256q0 -12 12 -12h97q89 0 137.5 35.5t48.5 106.5q0 137 -186 137h-97q-12 0 -12 -11z" />
    <glyph glyph-name="Q" unicode="Q" horiz-adv-x="814" 
d="M406 711q152 3 258.5 -103.5t103.5 -258.5q0 -129 -76 -224.5t-196 -122.5l89 -136q6 -11 6 -16q0 -11 -22 -11h-58q-17 0 -25 5t-18 21l-80 124q-145 4 -244.5 108.5t-97.5 251.5q-3 151 103 257.5t257 104.5zM406 84q108 0 183 76t75 189q0 115 -74 191t-184 76
q-108 0 -182 -76t-74 -191q0 -113 74 -189t182 -76z" />
    <glyph glyph-name="R" unicode="R" horiz-adv-x="635" 
d="M188 253v-231q0 -13 -5 -17.5t-17 -4.5h-56q-12 0 -17 4.5t-5 17.5v656q0 13 5 17.5t17 4.5h196q280 0 280 -215q0 -145 -137 -194l173 -261q8 -14 8 -19q0 -11 -22 -11h-60q-17 0 -26 5.5t-19 21.5l-145 224q-9 14 -26 14h-132q-12 0 -12 -12zM188 594v-226
q0 -12 12 -12h107q175 0 175 125q0 124 -181 124h-101q-12 0 -12 -11z" />
    <glyph glyph-name="S" unicode="S" horiz-adv-x="569" 
d="M510 632q11 -8 11 -15q0 -5 -8 -16l-29 -43q-8 -11 -16 -11q-6 0 -16 7q-86 63 -171 63q-58 0 -94 -28.5t-36 -75.5q0 -46 33.5 -69.5t120.5 -46.5q117 -29 168 -74t51 -126q0 -94 -71.5 -151t-185.5 -57q-128 0 -237 86q-11 11 -11 17q0 7 7 17l30 42q8 11 15 11
q4 0 15 -8q92 -71 183 -71q69 0 110 29t41 78q0 46 -33 69t-125 47q-112 28 -164 72.5t-52 128.5q0 93 66.5 148.5t169.5 55.5q127 0 228 -79z" />
    <glyph glyph-name="T" unicode="T" horiz-adv-x="574" 
d="M537 605h-188q-12 0 -12 -11v-572q0 -13 -5 -17.5t-17 -4.5h-56q-12 0 -17 4.5t-5 17.5v572q0 11 -12 11h-188q-12 0 -17 4.5t-5 17.5v51q0 13 5 17.5t17 4.5h500q12 0 17 -4.5t5 -17.5v-51q0 -13 -5 -17.5t-17 -4.5z" />
    <glyph glyph-name="U" unicode="U" horiz-adv-x="743" 
d="M366 -11q-129 0 -205.5 78t-76.5 228v383q0 13 5 17.5t17 4.5h55q13 0 18 -4.5t5 -17.5v-377q0 -103 48 -160t138 -57t140 57.5t50 158.5v378q0 12 5 17t16 5h56q13 0 18 -4.5t5 -17.5v-380q0 -149 -80.5 -229t-213.5 -80z" />
    <glyph glyph-name="V" unicode="V" 
d="M577 670q9 18 17 24t24 6h51q21 0 21 -13q0 -4 -5 -17l-302 -634q-13 -29 -21 -39.5t-17 -10.5t-16.5 10t-21.5 40l-303 634q-5 13 -5 17q0 13 21 13h55q16 0 24 -6t16 -24l232 -498z" />
    <glyph glyph-name="W" unicode="W" horiz-adv-x="967" 
d="M295 -13q-11 0 -18.5 10.5t-19.5 42.5l-245 630q-3 9 -3 15q0 15 22 15h55q16 0 22.5 -5.5t14.5 -24.5l175 -472l155 432q10 26 17 35t18 9q10 0 17 -9t17 -35l153 -429l175 469q8 18 15 24t22 6h54q22 0 22 -15q0 -6 -3 -15l-245 -630q-12 -32 -19.5 -42.5t-17.5 -10.5
q-18 0 -37 50l-155 425l-155 -425q-10 -29 -17.5 -39.5t-18.5 -10.5z" />
    <glyph glyph-name="X" unicode="X" horiz-adv-x="615" 
d="M601 24q6 -7 6 -13q0 -11 -18 -11h-70q-15 0 -22 4.5t-17 19.5l-172 253l-173 -255q-10 -14 -16.5 -18t-20.5 -4h-68q-18 0 -18 11q0 5 6 13l228 331l-220 321q-5 7 -5 13q0 11 18 11h70q14 0 20.5 -4.5t18.5 -19.5l163 -242l164 244q10 14 17 18t22 4h67q18 0 18 -10
q0 -5 -6 -14l-221 -319z" />
    <glyph glyph-name="Y" unicode="Y" horiz-adv-x="603" 
d="M487 675q10 16 17 20.5t23 4.5h59q19 0 19 -11q0 -2 -5 -14l-248 -411v-242q0 -13 -5 -17.5t-17 -4.5h-56q-12 0 -17 4.5t-5 17.5v237l-248 416q-5 12 -5 14q0 11 18 11h62q17 0 24 -4.5t17 -20.5l183 -316z" />
    <glyph glyph-name="Z" unicode="Z" horiz-adv-x="581" 
d="M514 0h-463q-28 0 -28 15q0 5 8 19l354 571h-317q-22 1 -22 22v51q0 13 5 17.5t17 4.5h450q28 0 28 -15q0 -5 -8 -19l-355 -571h331q13 0 18 -4.5t5 -17.5v-51q0 -13 -5 -17.5t-18 -4.5z" />
    <glyph glyph-name="bracketleft" unicode="[" horiz-adv-x="320" 
d="M96 838h178q20 0 20 -19v-41q0 -11 -4.5 -15.5t-15.5 -4.5h-95q-12 0 -12 -12v-793q0 -12 12 -12h95q20 0 20 -19v-41q0 -11 -4.5 -15.5t-15.5 -4.5h-178q-12 0 -17 4.5t-5 17.5v933q0 13 5 17.5t17 4.5z" />
    <glyph glyph-name="backslash" unicode="\" horiz-adv-x="391" 
d="M389 1q0 -12 -18 -12h-52q-14 0 -20 4t-12 18l-282 677q-2 6 -2 10q0 13 18 13h52q14 0 20 -4t12 -18l282 -677q2 -6 2 -11z" />
    <glyph glyph-name="bracketright" unicode="]" horiz-adv-x="320" 
d="M223 -139h-177q-11 0 -15.5 4.5t-4.5 15.5v41q0 19 20 19h95q12 0 12 12v793q0 12 -12 12h-95q-11 0 -15.5 4.5t-4.5 15.5v41q0 19 20 19h177q12 0 17 -4.5t5 -17.5v-933q0 -13 -5 -17.5t-17 -4.5z" />
    <glyph glyph-name="asciicircum" unicode="^" horiz-adv-x="513" 
d="M124 479q-6 0 -14 5l-33 19q-12 7 -12 15q0 7 7 14l134 157q11 14 31 14h39q20 0 31 -14l134 -157q7 -9 7 -15q0 -7 -12 -14l-33 -19q-8 -5 -14 -5q-7 0 -18 12l-115 137l-114 -137q-10 -12 -18 -12z" />
    <glyph glyph-name="underscore" unicode="_" horiz-adv-x="500" 
d="M468 -168h-436q-12 0 -17 4.5t-5 17.5v34q0 23 22 23h436q22 0 22 -23v-34q0 -13 -5 -17.5t-17 -4.5z" />
    <glyph glyph-name="grave" unicode="`" horiz-adv-x="500" 
d="M158 938q7 0 18 -8l144 -118q10 -7 10 -14q0 -6 -9 -13l-25 -20q-8 -7 -14 -7q-4 0 -18 8l-150 108q-11 8 -11 16q0 7 8 15l29 24q10 9 18 9z" />
    <glyph glyph-name="a" unicode="a" 
d="M480 208h-275q-14 0 -19 -12l-76 -168q-8 -17 -15.5 -22.5t-23.5 -5.5h-51q-21 0 -21 13q0 4 5 17l299 633q14 30 22.5 40t18.5 10t18 -10t22 -40l301 -633q5 -13 5 -17q0 -13 -21 -13h-55q-16 0 -23.5 5.5t-15.5 22.5l-77 168q-4 12 -18 12zM449 302q0 3 -3 9l-104 224
l-103 -224q-3 -6 -3 -10q0 -5 10 -5h192q11 0 11 6z" />
    <glyph glyph-name="b" unicode="b" horiz-adv-x="626" 
d="M110 700h196q263 0 263 -186q0 -115 -104 -152q58 -15 91 -55t33 -102q0 -205 -280 -205h-199q-12 0 -17 4.5t-5 17.5v656q0 13 5 17.5t17 4.5zM188 596v-186q0 -12 12 -12h113q152 0 152 106q0 104 -166 104h-99q-12 0 -12 -12zM485 204q0 55 -41.5 79t-126.5 24h-117
q-12 0 -12 -12v-191q0 -12 12 -12h109q93 0 134.5 26t41.5 86z" />
    <glyph glyph-name="c" unicode="c" horiz-adv-x="701" 
d="M607 156q11 9 17 9q7 0 15 -10l29 -40q5 -7 5 -14t-12 -18q-111 -94 -259 -94q-147 -3 -253 102t-103 256q-2 153 104 259.5t258 104.5q143 0 254 -93q10 -7 10 -15q0 -7 -6 -16l-29 -39q-8 -11 -16 -11q-6 0 -17 8q-92 71 -198 71q-108 0 -182 -76t-74 -191
q-2 -111 73.5 -189t182.5 -76q112 0 201 72z" />
    <glyph glyph-name="d" unicode="d" horiz-adv-x="742" 
d="M110 700h208q174 0 276 -93t102 -249q0 -163 -106 -260.5t-286 -97.5h-194q-12 0 -17 4.5t-5 17.5v656q0 13 5 17.5t17 4.5zM188 594v-488q0 -11 12 -11h106q135 0 210.5 69t75.5 190q0 114 -75.5 182.5t-206.5 68.5h-110q-12 0 -12 -11z" />
    <glyph glyph-name="e" unicode="e" horiz-adv-x="565" 
d="M511 73v-51q0 -13 -5 -17.5t-17 -4.5h-379q-12 0 -17 4.5t-5 17.5v656q0 13 5 17.5t17 4.5h378q12 0 17 -4.5t5 -17.5v-51q0 -13 -5 -17.5t-17 -4.5h-288q-12 0 -12 -11v-183q0 -12 12 -12h254q12 0 17 -4.5t5 -17.5v-50q0 -22 -22 -22h-254q-12 0 -12 -11v-188
q0 -11 12 -11h289q12 0 17 -4.5t5 -17.5z" />
    <glyph glyph-name="f" unicode="f" horiz-adv-x="550" 
d="M166 0h-56q-12 0 -17 4.5t-5 17.5v656q0 13 5 17.5t17 4.5h381q12 0 17 -4.5t5 -17.5v-51q0 -13 -5 -17.5t-17 -4.5h-291q-12 0 -12 -11v-198q0 -11 12 -11h256q13 0 18 -5t5 -18v-50q0 -22 -23 -22h-256q-12 0 -12 -11v-257q0 -13 -5 -17.5t-17 -4.5z" />
    <glyph glyph-name="g" unicode="g" horiz-adv-x="746" 
d="M661 51q-118 -62 -260 -62q-147 -2 -252 100t-103 256q-2 159 106 263.5t262 102.5q140 0 249 -80q13 -9 13 -18q0 -5 -7 -15l-28 -40q-7 -10 -16 -10q-7 0 -16 6q-97 62 -197 62q-115 0 -188.5 -75t-73.5 -192t74.5 -191.5t182.5 -74.5q92 0 158 29q14 6 14 19v178
q0 13 5 17.5t17 4.5h56q12 0 17 -4.5t5 -17.5v-229q0 -21 -18 -29z" />
    <glyph glyph-name="h" unicode="h" horiz-adv-x="731" 
d="M621 0h-56q-12 0 -17 4.5t-5 17.5v279q0 11 -12 11h-331q-12 0 -12 -11v-279q0 -13 -5 -17.5t-17 -4.5h-56q-12 0 -17 4.5t-5 17.5v656q0 13 5 17.5t17 4.5h56q12 0 17 -4.5t5 -17.5v-260q0 -12 12 -12h331q12 0 12 12v260q0 13 5 17.5t17 4.5h56q12 0 17 -4.5t5 -17.5
v-656q0 -13 -5 -17.5t-17 -4.5z" />
    <glyph glyph-name="i" unicode="i" horiz-adv-x="276" 
d="M166 0h-56q-12 0 -17 4.5t-5 17.5v656q0 13 5 17.5t17 4.5h56q12 0 17 -4.5t5 -17.5v-656q0 -13 -5 -17.5t-17 -4.5z" />
    <glyph glyph-name="j" unicode="j" horiz-adv-x="284" 
d="M-39 -102q3 0 20 -1.5t25 -1.5q45 0 70 36t25 104v643q0 13 5 17.5t17 4.5h56q12 0 17 -4.5t5 -17.5v-651q0 -227 -187 -227q-40 0 -60 6q-17 4 -16 24l6 50q1 18 17 18z" />
    <glyph glyph-name="k" unicode="k" horiz-adv-x="621" 
d="M166 0h-56q-12 0 -17 4.5t-5 17.5v656q0 13 5 17.5t17 4.5h56q12 0 17 -4.5t5 -17.5v-656q0 -13 -5 -17.5t-17 -4.5zM522 700h65q19 0 19 -11q0 -7 -7 -14l-271 -320l278 -329q8 -11 8 -15q0 -11 -20 -11h-69q-17 0 -25 4t-20 19l-257 310q-9 11 -9 19q0 10 10 20
l254 304q12 15 20 19.5t24 4.5z" />
    <glyph glyph-name="l" unicode="l" horiz-adv-x="552" 
d="M200 95h295q12 0 17 -4.5t5 -17.5v-51q0 -13 -5 -17.5t-17 -4.5h-385q-12 0 -17 4.5t-5 17.5v656q0 13 5 17.5t17 4.5h56q12 0 17 -4.5t5 -17.5v-572q0 -11 12 -11z" />
    <glyph glyph-name="m" unicode="m" horiz-adv-x="846" 
d="M188 22q0 -13 -5 -17.5t-17 -4.5h-56q-12 0 -17 4.5t-5 17.5v655q0 33 20 33q12 0 38 -29l279 -335l275 335q26 29 38 29q20 0 20 -33v-655q0 -13 -5 -17.5t-17 -4.5h-56q-12 0 -17 4.5t-5 17.5v466l-200 -246q-21 -28 -35 -28t-35 28l-200 246v-466z" />
    <glyph glyph-name="n" unicode="n" horiz-adv-x="744" 
d="M578 700h56q12 0 17 -4.5t5 -17.5v-656q0 -33 -20 -33q-15 0 -42 31l-406 479v-477q0 -13 -5 -17.5t-17 -4.5h-56q-12 0 -17 4.5t-5 17.5v656q0 33 21 33q15 0 41 -31l406 -479v477q0 13 5 17.5t17 4.5z" />
    <glyph glyph-name="o" unicode="o" horiz-adv-x="814" 
d="M408 711q152 2 257 -103t103 -257q2 -153 -104.5 -259t-259.5 -103q-150 -3 -255 102t-103 256q-2 152 104.5 259.5t257.5 104.5zM405 84q106 -2 183.5 76.5t75.5 189.5q0 115 -74.5 190.5t-182.5 75.5t-182.5 -76.5t-74.5 -191.5q-2 -112 73.5 -189t181.5 -75z" />
    <glyph glyph-name="p" unicode="p" horiz-adv-x="624" 
d="M188 220v-198q0 -13 -5 -17.5t-17 -4.5h-56q-12 0 -17 4.5t-5 17.5v656q0 13 5 17.5t17 4.5h193q284 0 284 -230q0 -114 -76 -176.5t-217 -62.5h-94q-12 0 -12 -11zM188 594v-256q0 -12 12 -12h97q89 0 137.5 35.5t48.5 106.5q0 137 -186 137h-97q-12 0 -12 -11z" />
    <glyph glyph-name="q" unicode="q" horiz-adv-x="814" 
d="M406 711q152 3 258.5 -103.5t103.5 -258.5q0 -129 -76 -224.5t-196 -122.5l89 -136q6 -11 6 -16q0 -11 -22 -11h-58q-17 0 -25 5t-18 21l-80 124q-145 4 -244.5 108.5t-97.5 251.5q-3 151 103 257.5t257 104.5zM406 84q108 0 183 76t75 189q0 115 -74 191t-184 76
q-108 0 -182 -76t-74 -191q0 -113 74 -189t182 -76z" />
    <glyph glyph-name="r" unicode="r" horiz-adv-x="635" 
d="M188 253v-231q0 -13 -5 -17.5t-17 -4.5h-56q-12 0 -17 4.5t-5 17.5v656q0 13 5 17.5t17 4.5h196q280 0 280 -215q0 -145 -137 -194l173 -261q8 -14 8 -19q0 -11 -22 -11h-60q-17 0 -26 5.5t-19 21.5l-145 224q-9 14 -26 14h-132q-12 0 -12 -12zM188 594v-226
q0 -12 12 -12h107q175 0 175 125q0 124 -181 124h-101q-12 0 -12 -11z" />
    <glyph glyph-name="s" unicode="s" horiz-adv-x="569" 
d="M510 632q11 -8 11 -15q0 -5 -8 -16l-29 -43q-8 -11 -16 -11q-6 0 -16 7q-86 63 -171 63q-58 0 -94 -28.5t-36 -75.5q0 -46 33.5 -69.5t120.5 -46.5q117 -29 168 -74t51 -126q0 -94 -71.5 -151t-185.5 -57q-128 0 -237 86q-11 11 -11 17q0 7 7 17l30 42q8 11 15 11
q4 0 15 -8q92 -71 183 -71q69 0 110 29t41 78q0 46 -33 69t-125 47q-112 28 -164 72.5t-52 128.5q0 93 66.5 148.5t169.5 55.5q127 0 228 -79z" />
    <glyph glyph-name="t" unicode="t" horiz-adv-x="574" 
d="M537 605h-188q-12 0 -12 -11v-572q0 -13 -5 -17.5t-17 -4.5h-56q-12 0 -17 4.5t-5 17.5v572q0 11 -12 11h-188q-12 0 -17 4.5t-5 17.5v51q0 13 5 17.5t17 4.5h500q12 0 17 -4.5t5 -17.5v-51q0 -13 -5 -17.5t-17 -4.5z" />
    <glyph glyph-name="u" unicode="u" horiz-adv-x="743" 
d="M366 -11q-129 0 -205.5 78t-76.5 228v383q0 13 5 17.5t17 4.5h55q13 0 18 -4.5t5 -17.5v-377q0 -103 48 -160t138 -57t140 57.5t50 158.5v378q0 12 5 17t16 5h56q13 0 18 -4.5t5 -17.5v-380q0 -149 -80.5 -229t-213.5 -80z" />
    <glyph glyph-name="v" unicode="v" 
d="M577 670q9 18 17 24t24 6h51q21 0 21 -13q0 -4 -5 -17l-302 -634q-13 -29 -21 -39.5t-17 -10.5t-16.5 10t-21.5 40l-303 634q-5 13 -5 17q0 13 21 13h55q16 0 24 -6t16 -24l232 -498z" />
    <glyph glyph-name="w" unicode="w" horiz-adv-x="967" 
d="M295 -13q-11 0 -18.5 10.5t-19.5 42.5l-245 630q-3 9 -3 15q0 15 22 15h55q16 0 22.5 -5.5t14.5 -24.5l175 -472l155 432q10 26 17 35t18 9q10 0 17 -9t17 -35l153 -429l175 469q8 18 15 24t22 6h54q22 0 22 -15q0 -6 -3 -15l-245 -630q-12 -32 -19.5 -42.5t-17.5 -10.5
q-18 0 -37 50l-155 425l-155 -425q-10 -29 -17.5 -39.5t-18.5 -10.5z" />
    <glyph glyph-name="x" unicode="x" horiz-adv-x="615" 
d="M601 24q6 -7 6 -13q0 -11 -18 -11h-70q-15 0 -22 4.5t-17 19.5l-172 253l-173 -255q-10 -14 -16.5 -18t-20.5 -4h-68q-18 0 -18 11q0 5 6 13l228 331l-220 321q-5 7 -5 13q0 11 18 11h70q14 0 20.5 -4.5t18.5 -19.5l163 -242l164 244q10 14 17 18t22 4h67q18 0 18 -10
q0 -5 -6 -14l-221 -319z" />
    <glyph glyph-name="y" unicode="y" horiz-adv-x="603" 
d="M486 675q10 16 17 20.5t23 4.5h59q19 0 19 -11q0 -2 -5 -14l-248 -411v-242q0 -13 -5 -17.5t-17 -4.5h-56q-12 0 -17 4.5t-5 17.5v237l-248 416q-5 12 -5 14q0 11 18 11h62q17 0 24 -4.5t17 -20.5l183 -316z" />
    <glyph glyph-name="z" unicode="z" horiz-adv-x="581" 
d="M514 0h-463q-28 0 -28 15q0 5 8 19l354 571h-317q-22 1 -22 22v51q0 13 5 17.5t17 4.5h450q28 0 28 -15q0 -5 -8 -19l-355 -571h331q13 0 18 -4.5t5 -17.5v-51q0 -13 -5 -17.5t-18 -4.5z" />
    <glyph glyph-name="braceleft" unicode="{" horiz-adv-x="347" 
d="M204 212v-145q0 -63 22 -92t75 -33q12 -1 16 -4.5t4 -14.5v-45q0 -17 -20 -17q-93 0 -141.5 50t-48.5 146v154q0 92 -74 99q-20 1 -20 20v40q0 19 20 20q74 7 74 99v154q0 96 48.5 146t141.5 50q20 0 20 -17v-45q0 -11 -4 -14.5t-16 -4.5q-53 -4 -75 -33t-22 -92v-145
q0 -58 -20 -90t-67 -48q47 -16 67 -48t20 -90z" />
    <glyph glyph-name="bar" unicode="|" horiz-adv-x="262" 
d="M110 800h42q13 0 17.5 -5t4.5 -17v-886q0 -12 -4.5 -17t-17.5 -5h-42q-13 0 -17.5 5t-4.5 17v886q0 12 4.5 17t17.5 5z" />
    <glyph glyph-name="braceright" unicode="}" horiz-adv-x="347" 
d="M143 488v145q0 63 -22 92t-75 33q-12 1 -16 4.5t-4 14.5v45q0 17 19 17q95 0 143 -50t48 -146v-154q0 -92 74 -99q20 -1 20 -20v-40q0 -19 -20 -20q-74 -7 -74 -99v-154q0 -96 -48 -146t-143 -50q-19 0 -19 17v45q0 11 4 14.5t16 4.5q53 4 75 33t22 92v145q0 58 20 90
t67 48q-47 16 -67 48t-20 90z" />
    <glyph glyph-name="asciitilde" unicode="~" horiz-adv-x="672" 
d="M535 382q9 10 17 10q7 0 15 -8l24 -28q8 -8 8 -16q0 -6 -8 -17q-62 -76 -150 -76q-44 0 -121 34q-57 28 -91 28q-47 0 -92 -51q-7 -10 -16 -10q-7 0 -15 8l-24 28q-8 11 -8 16q0 6 8 17q64 76 149 76q44 0 121 -34q57 -28 91 -28q47 0 92 51z" />
    <glyph glyph-name="uni00A0" unicode="&#xa0;" horiz-adv-x="275" 
 />
    <glyph glyph-name="exclamdown" unicode="&#xa1;" horiz-adv-x="253" 
d="M126 593q-27 0 -44.5 16.5t-17.5 42.5q0 25 17.5 41.5t44.5 16.5t45 -16.5t18 -41.5q0 -26 -18 -42.5t-45 -16.5zM166 511l19 -474q1 -21 -6 -29t-26 -8h-53q-20 0 -27 8t-5 29l18 474q1 18 6 23.5t19 5.5h30q14 0 19 -5.5t6 -23.5z" />
    <glyph glyph-name="cent" unicode="&#xa2;" horiz-adv-x="672" 
d="M74 346q0 111 69.5 188t177.5 94v118q0 12 4.5 17t17.5 5h36q13 0 17.5 -5t4.5 -17v-118q103 -7 181 -77q12 -9 12 -18q0 -10 -7 -17l-24 -38q-7 -10 -16 -10t-16 7q-61 49 -130 57v-364q70 8 132 58q11 9 17 9q7 0 14 -10l24 -38q6 -9 6 -16q0 -8 -13 -20
q-81 -67 -180 -79v-118q0 -12 -4.5 -17t-17.5 -5h-36q-13 0 -17.5 5t-4.5 17v117q-108 15 -177.5 90.5t-69.5 184.5zM321 170v360q-67 -14 -106.5 -61.5t-39.5 -119.5q0 -69 40.5 -118t105.5 -61z" />
    <glyph glyph-name="sterling" unicode="&#xa3;" horiz-adv-x="672" 
d="M234 104q18 2 36 2q38 0 98 -13q50 -12 93 -12q58 0 107 29q12 5 14 5q8 0 13 -11l20 -43q4 -4 4 -13q0 -7 -14 -18q-59 -41 -149 -41q-38 0 -101 13q-75 15 -106 13q-64 0 -120 -25q-7 -4 -14 -4q-5 0 -12 9l-22 45q0 1 -1.5 3.5t-2 5t-0.5 3.5q0 8 12 15q45 28 72.5 68
t27.5 82q0 31 -15 75h-97q-12 0 -17 4.5t-5 17.5v42q0 13 5 17.5t17 4.5h70q-19 48 -19 98q0 104 69.5 169.5t183.5 65.5q121 0 206 -79q9 -8 9 -15q0 -6 -6 -15l-29 -41q-7 -9 -13 -9q-4 0 -15 8q-71 56 -152 56q-68 0 -109.5 -38.5t-41.5 -102.5q0 -43 20 -97h218
q12 0 16.5 -4.5t4.5 -17.5v-42q0 -22 -21 -22h-195q11 -39 11 -70q0 -30 -15 -63t-35 -55z" />
    <glyph glyph-name="currency" unicode="&#xa4;" horiz-adv-x="672" 
d="M232 162l-79 -79q-9 -9 -16 -9t-16 9l-28 29q-9 9 -9 16t9 16l78 78q-32 47 -32 104q0 60 32 104l-78 79q-9 9 -9 16t9 16l28 28q9 9 16 9q9 0 16 -9l79 -78q50 32 104 32q52 0 104 -32l79 78q7 9 15 9q7 0 16 -9l29 -28q9 -9 9 -16t-9 -16l-79 -79q32 -44 32 -104
q0 -57 -32 -104l79 -78q9 -9 9 -16t-9 -16l-29 -29q-9 -9 -16 -9q-6 0 -15 9l-79 79q-49 -32 -104 -32q-58 0 -104 32zM448 326q0 46 -33 79t-79 33t-79 -33t-33 -79t33 -79t79 -33t79 33t33 79z" />
    <glyph glyph-name="yen" unicode="&#xa5;" horiz-adv-x="599" 
d="M358 308h110q13 0 17.5 -4t4.5 -16v-34q0 -12 -4.5 -16t-17.5 -4h-110q-8 0 -8 -8v-41q0 -8 8 -8h110q13 0 17.5 -4.5t4.5 -16.5v-33q0 -12 -4.5 -16.5t-17.5 -4.5h-110q-8 0 -8 -8v-72q0 -13 -5 -17.5t-17 -4.5h-56q-12 0 -17 4.5t-5 17.5v72q0 8 -8 8h-110
q-13 0 -17.5 4.5t-4.5 16.5v33q0 12 4.5 16.5t17.5 4.5h110q8 0 8 8v41q0 8 -8 8h-110q-13 0 -17.5 4t-4.5 16v34q0 12 4.5 16t17.5 4h110q8 0 8 8v12l-246 347q-6 7 -6 13q0 12 19 12h64q16 0 23 -4.5t17 -19.5l179 -261l181 261q12 15 19 19.5t22 4.5h59q20 0 20 -11
q0 -9 -7 -16l-244 -341v-16q0 -8 8 -8z" />
    <glyph glyph-name="brokenbar" unicode="&#xa6;" horiz-adv-x="262" 
d="M110 800h42q13 0 17.5 -5t4.5 -17v-356q0 -12 -4.5 -17t-17.5 -5h-42q-13 0 -17.5 5t-4.5 17v356q0 12 4.5 17t17.5 5zM110 270h42q13 0 17.5 -5t4.5 -17v-356q0 -12 -4.5 -17t-17.5 -5h-42q-13 0 -17.5 5t-4.5 17v356q0 12 4.5 17t17.5 5z" />
    <glyph glyph-name="section" unicode="&#xa7;" horiz-adv-x="595" 
d="M136 421q-40 37 -40 104q0 85 64.5 135.5t158.5 50.5q124 0 218 -73q11 -8 11 -16t-7 -15l-29 -42q-7 -10 -14 -10q-6 0 -15 6q-73 55 -160 55q-56 0 -89 -22.5t-33 -63.5t32.5 -61.5t110.5 -39.5q112 -27 162 -64.5t50 -111.5q0 -43 -24.5 -80t-64.5 -60q40 -40 40 -104
q0 -86 -70 -138.5t-178 -52.5q-124 0 -230 80q-11 8 -11 16q0 9 7 16l29 42q8 11 14 11q7 0 14 -7q87 -63 179 -63q64 0 102.5 24t38.5 66q-3 43 -31.5 61t-117.5 39q-105 26 -156 65t-51 113q0 89 90 140zM151 289q0 -39 33.5 -59.5t109.5 -37.5q62 -14 95 -29q63 26 63 80
q0 39 -31 58t-116 39q-51 12 -91 28q-63 -24 -63 -79z" />
    <glyph glyph-name="dieresis" unicode="&#xa8;" horiz-adv-x="500" 
d="M157 867q24 0 39 -14.5t15 -38.5q0 -23 -15 -38t-39 -15t-38.5 15t-14.5 38q0 24 14.5 38.5t38.5 14.5zM342 867q25 0 39.5 -14.5t14.5 -38.5t-15 -38.5t-39 -14.5t-38.5 15t-14.5 38q0 24 14.5 38.5t38.5 14.5z" />
    <glyph glyph-name="copyright" unicode="&#xa9;" horiz-adv-x="524" 
d="M264 711q97 0 165.5 -68.5t68.5 -165.5q2 -97 -69 -168.5t-168 -69.5q-97 0 -166 68.5t-69 165.5q-2 97 69 168t169 70zM262 288q77 0 131 55t54 132q0 78 -53.5 132.5t-131.5 54.5q-77 0 -131 -55t-54 -132q0 -79 53.5 -133t131.5 -54zM272 604q54 0 93 -33q8 -6 3 -15
l-19 -28q-6 -10 -14 -2q-29 23 -62 23q-31 0 -51.5 -21t-20.5 -54q0 -32 20.5 -52t51.5 -20q37 0 63 22q8 8 13 -1l18 -28q4 -5 4 -8t-6 -7q-40 -34 -96 -34q-55 0 -92.5 36.5t-37.5 90.5q0 56 38.5 93.5t94.5 37.5z" />
    <glyph glyph-name="ordfeminine" unicode="&#xaa;" horiz-adv-x="425" 
d="M158 308q-58 0 -93.5 33.5t-35.5 86.5q0 138 240 138h22v4q0 73 -86 73q-60 0 -114 -39q-7 -5 -12 -5t-12 7l-16 26q-6 7 -6 13q0 7 10 14q69 52 156 52q73 0 114.5 -35.5t41.5 -102.5v-242q0 -16 -16 -16h-43q-16 0 -16 16v27q-58 -50 -134 -50zM277 410q14 10 14 25v60
q0 11 -12 11h-8q-165 0 -165 -74q0 -26 18.5 -41.5t49.5 -15.5q54 0 103 35z" />
    <glyph glyph-name="guillemotleft" unicode="&#xab;" horiz-adv-x="475" 
d="M241 191q0 -7 -6 -17l-19 -35q-6 -12 -15 -12q-8 0 -15 10l-134 152q-22 24 -22 48v26q0 24 22 48l134 152q7 10 15 10q9 0 15 -12l19 -35q6 -11 6 -17q0 -8 -11 -22l-122 -137l122 -137q11 -14 11 -22zM435 191q0 -7 -6 -17l-19 -35q-6 -12 -15 -12q-8 0 -15 10
l-134 152q-22 24 -22 48v26q0 24 22 48l134 152q7 10 15 10q9 0 15 -12l19 -35q6 -11 6 -17q0 -8 -11 -22l-122 -137l122 -137q11 -14 11 -22z" />
    <glyph glyph-name="logicalnot" unicode="&#xac;" horiz-adv-x="672" 
d="M532 124h-41q-22 0 -22 22v186q0 12 -11 12h-363q-12 0 -17 4.5t-5 17.5v41q0 13 5 17.5t17 4.5h437q12 0 17 -4.5t5 -17.5v-261q0 -12 -4.5 -17t-17.5 -5z" />
    <glyph glyph-name="uni00AD" unicode="&#xad;" horiz-adv-x="429" 
d="M356 299h-284q-12 0 -17 4.5t-5 17.5v42q0 23 22 23h284q23 0 23 -23v-42q0 -22 -23 -22z" />
    <glyph glyph-name="registered" unicode="&#xae;" horiz-adv-x="524" 
d="M264 711q97 0 165.5 -68.5t68.5 -165.5q2 -97 -69 -168.5t-168 -69.5q-97 0 -166 68.5t-69 165.5q-2 97 69 168t169 70zM262 288q77 0 131 55t54 132q0 78 -53.5 132.5t-131.5 54.5q-77 0 -131 -55t-54 -132q0 -79 53.5 -133t131.5 -54zM222 426v-60q0 -14 -14 -14h-32
q-14 0 -14 14v220q0 14 14 14h86q106 0 106 -82q0 -50 -46 -72l54 -79q4 -4 4 -9q0 -6 -11 -6h-40q-13 0 -21 12l-38 60q-6 8 -14 8h-29q-5 0 -5 -6zM222 540v-52q0 -8 8 -8h31q45 0 45 35q0 33 -45 33h-31q-8 0 -8 -8z" />
    <glyph glyph-name="overscore" unicode="&#xaf;" horiz-adv-x="500" 
d="M108 802v36q0 12 4.5 16.5t17.5 4.5h240q13 0 17.5 -4.5t4.5 -16.5v-36q0 -12 -4.5 -16t-17.5 -4h-240q-13 0 -17.5 4t-4.5 16z" />
    <glyph glyph-name="degree" unicode="&#xb0;" horiz-adv-x="376" 
d="M188 711q62 0 106 -44t44 -106t-44 -106t-106 -44t-106 44t-44 106t44 106t106 44zM188 485q32 0 54 22t22 54t-22 54t-54 22t-54 -22t-22 -54t22 -54t54 -22z" />
    <glyph glyph-name="plusminus" unicode="&#xb1;" horiz-adv-x="672" 
d="M90 353v40q0 22 23 22h169q12 0 12 12v156q0 12 4.5 17t17.5 5h40q23 0 23 -22v-156q0 -12 11 -12h170q12 0 17 -4.5t5 -17.5v-40q0 -13 -5 -17.5t-17 -4.5h-170q-11 0 -11 -12v-156q0 -12 -5 -16.5t-18 -4.5h-40q-13 0 -17.5 4.5t-4.5 16.5v156q0 12 -12 12h-169
q-23 0 -23 22zM560 0h-447q-23 0 -23 22v41q0 22 23 22h447q22 0 22 -22v-41q0 -13 -5 -17.5t-17 -4.5z" />
    <glyph glyph-name="twosuperior" unicode="&#xb2;" horiz-adv-x="364" 
d="M309 441h-274q-15 0 -15 8q0 5 6 13l131 145q68 75 68 113q0 27 -17.5 42t-47.5 15q-47 0 -85 -32q-8 -5 -10 -5q-6 0 -10 7l-21 32q-4 4 -4 11q0 6 7 12q56 47 127 47q63 0 101.5 -34t38.5 -89q0 -33 -14.5 -62t-51.5 -69l-74 -83h145q16 0 16 -15v-41q0 -15 -16 -15z
" />
    <glyph glyph-name="threesuperior" unicode="&#xb3;" horiz-adv-x="364" 
d="M253 571q0 65 -114 65q-16 0 -16 9q0 3 5 11l77 113h-150q-16 0 -16 15v41q0 15 16 15h260q13 0 13 -8q0 -6 -6 -14l-93 -132q49 -8 76 -37t27 -76q0 -62 -47 -101.5t-124 -39.5q-80 0 -136 46q-9 8 -9 14t4 10l21 33q6 9 12 9q4 0 9 -5q42 -35 100 -35q40 0 65.5 18.5
t25.5 48.5z" />
    <glyph glyph-name="acute" unicode="&#xb4;" horiz-adv-x="500" 
d="M397 890q0 -8 -11 -16l-150 -108q-14 -8 -18 -8q-6 0 -14 7l-25 20q-8 8 -8 13q0 6 9 14l144 118q11 8 18 8q8 0 18 -9l29 -24q8 -8 8 -15z" />
    <glyph glyph-name="mu" unicode="&#xb5;" horiz-adv-x="587" 
d="M94 490h63q18 0 18 -18v-245q0 -148 119 -148q120 0 120 148v245q0 18 18 18h63q17 0 17 -18v-253q0 -111 -56.5 -170.5t-161.5 -59.5q-77 0 -119 44v-241q0 -13 -5 -17.5t-17 -4.5h-54q-12 0 -17 4.5t-5 17.5v680q0 18 17 18z" />
    <glyph glyph-name="paragraph" unicode="&#xb6;" horiz-adv-x="590" 
d="M105 464q0 -68 45 -113.5t114 -45.5h35q22 0 22 -21v-422q0 -13 -5 -17.5t-17 -4.5h-34q-12 0 -17 4.5t-5 17.5v369q-92 5 -155.5 71.5t-63.5 159.5q0 100 70 169t171 69h275q12 0 17 -4.5t5 -17.5v-34q0 -13 -5 -17.5t-17 -4.5h-53q-12 0 -12 -12v-748q0 -13 -4.5 -17.5
t-17.5 -4.5h-34q-12 0 -17 4.5t-5 17.5v748q0 12 -12 12h-121q-68 0 -113.5 -45.5t-45.5 -112.5zM262 516q22 0 37 -14.5t15 -37.5q0 -22 -15 -37t-37 -15t-37.5 15t-15.5 37q0 23 15.5 37.5t37.5 14.5z" />
    <glyph glyph-name="middot" unicode="&#xb7;" horiz-adv-x="227" 
d="M113 411q27 0 45 -16.5t18 -42.5t-18 -42.5t-45 -16.5t-44.5 16.5t-17.5 42.5t17.5 42.5t44.5 16.5z" />
    <glyph glyph-name="cedilla" unicode="&#xb8;" horiz-adv-x="500" 
d="M151 -161q4 0 10 -3q35 -15 70 -15q62 0 62 40t-61 40q-21 0 -44 -4h-5q-9 0 -9 7q0 4 2 8l49 98h65l-30 -59q50 0 78.5 -24t28.5 -64q0 -47 -38 -75.5t-98 -28.5q-49 0 -93 21q-12 6 -12 13q0 4 3 10l12 26q4 10 10 10z" />
    <glyph glyph-name="onesuperior" unicode="&#xb9;" horiz-adv-x="266" 
d="M178 825v-369q0 -15 -15 -15h-46q-16 0 -16 15v305q0 9 -9 9h-48q-15 0 -15 15v40q0 15 15 15h119q15 0 15 -15z" />
    <glyph glyph-name="ordmasculine" unicode="&#xba;" horiz-adv-x="425" 
d="M25 507q0 92 53 148t137 56q81 0 133 -54t52 -145q0 -92 -53 -148t-137 -56q-81 0 -133 54t-52 145zM322 509q0 61 -29.5 97t-79.5 36t-80 -36.5t-30 -96.5q0 -61 29.5 -96.5t79.5 -35.5t80 36t30 96z" />
    <glyph glyph-name="guillemotright" unicode="&#xbb;" horiz-adv-x="475" 
d="M40 509q0 7 6 17l19 35q6 12 14 12q7 0 16 -10l134 -152q22 -24 22 -48v-26q0 -24 -22 -48l-134 -152q-9 -10 -16 -10q-8 0 -14 12l-19 35q-6 10 -6 17q0 8 11 22l122 137l-122 137q-11 14 -11 22zM234 509q0 7 6 17l19 35q6 12 14 12q7 0 16 -10l134 -152q22 -24 22 -48
v-26q0 -24 -22 -48l-134 -152q-9 -10 -16 -10q-8 0 -14 12l-19 35q-6 11 -6 17q0 8 11 22l122 137l-122 137q-11 14 -11 22z" />
    <glyph glyph-name="onequarter" unicode="&#xbc;" horiz-adv-x="725" 
d="M93 -11h-40q-20 0 -20 12q0 8 13 23l503 666q10 13 16.5 17t20.5 4h40q20 0 20 -12q0 -3 -2.5 -8t-6 -9.5t-4.5 -5.5l-504 -666q-9 -13 -15.5 -17t-20.5 -4zM178 685v-369q0 -15 -15 -15h-46q-16 0 -16 15v305q0 9 -9 9h-48q-15 0 -15 15v40q0 15 15 15h119q15 0 15 -15z
M669 155q15 0 15 -15v-37q0 -16 -15 -16h-41v-72q0 -15 -15 -15h-46q-16 0 -16 15v72h-184q-26 0 -26 19q0 11 10 22l219 257q21 25 36 25q22 0 22 -30v-225h41zM552 278l-102 -123h102v123z" />
    <glyph glyph-name="onehalf" unicode="&#xbd;" horiz-adv-x="799" 
d="M93 -11h-40q-20 0 -20 12q0 8 13 23l503 666q10 13 16.5 17t20.5 4h40q20 0 20 -12q0 -3 -2.5 -8t-6 -9.5t-4.5 -5.5l-504 -666q-9 -13 -15.5 -17t-20.5 -4zM178 685v-369q0 -15 -15 -15h-46q-16 0 -16 15v305q0 9 -9 9h-48q-15 0 -15 15v40q0 15 15 15h119q15 0 15 -15z
M741 0h-274q-15 0 -15 8q0 6 6 13l131 145q68 75 68 113q0 27 -17.5 42t-47.5 15q-47 0 -85 -32q-8 -5 -10 -5q-6 0 -10 7l-21 32q-4 4 -4 11q0 6 7 12q56 47 127 47q63 0 101.5 -34t38.5 -89q0 -33 -14.5 -62t-51.5 -69l-74 -83h145q16 0 16 -15v-41q0 -15 -16 -15z" />
    <glyph glyph-name="threequarters" unicode="&#xbe;" horiz-adv-x="828" 
d="M196 -11h-40q-20 0 -20 12q0 8 13 23l503 666q10 13 16.5 17t20.5 4h40q20 0 20 -12q0 -3 -2.5 -8t-6 -9.5t-4.5 -5.5l-504 -666q-9 -13 -15.5 -17t-20.5 -4zM771 155q15 0 15 -15v-37q0 -16 -15 -16h-41v-72q0 -15 -15 -15h-46q-16 0 -16 15v72h-184q-26 0 -26 19
q0 11 10 22l219 257q21 25 36 25q22 0 22 -30v-225h41zM654 278l-102 -123h102v123zM253 431q0 65 -114 65q-16 0 -16 9q0 3 5 11l77 113h-150q-16 0 -16 15v41q0 15 16 15h260q13 0 13 -8q0 -6 -6 -14l-93 -132q49 -8 76 -37t27 -76q0 -62 -47 -101.5t-124 -39.5
q-80 0 -136 46q-9 8 -9 14t4 10l21 33q6 9 12 9q4 0 9 -5q42 -35 100 -35q40 0 65.5 18.5t25.5 48.5z" />
    <glyph glyph-name="questiondown" unicode="&#xbf;" horiz-adv-x="505" 
d="M294 593q-27 0 -44.5 16.5t-17.5 42.5q0 25 17.5 41.5t44.5 16.5t45 -16.5t18 -41.5q0 -26 -18 -42.5t-45 -16.5zM344 519v-15q0 -57 -19 -93t-77 -81q-59 -46 -81 -75.5t-22 -66.5q0 -49 35 -76.5t88 -27.5q84 0 151 59q11 9 17 9q8 0 18 -13l23 -34q8 -11 8 -18
q0 -9 -13 -21q-95 -77 -206 -77q-96 0 -161 52.5t-65 140.5q0 56 31 102.5t99 98.5q44 33 59 59.5t15 62.5v14q0 12 4.5 16.5t16.5 4.5h57q22 0 22 -21z" />
    <glyph glyph-name="Agrave" unicode="&#xc0;" 
d="M480 208h-275q-14 0 -19 -12l-76 -168q-8 -17 -15.5 -22.5t-23.5 -5.5h-51q-21 0 -21 13q0 4 5 17l299 633q14 30 22.5 40t18.5 10t18 -10t22 -40l301 -633q5 -13 5 -17q0 -13 -21 -13h-55q-16 0 -23.5 5.5t-15.5 22.5l-77 168q-4 12 -18 12zM449 302q0 3 -3 9l-104 224
l-103 -224q-3 -6 -3 -10q0 -5 10 -5h192q11 0 11 6zM252 938q7 0 18 -8l144 -118q10 -7 10 -14q0 -6 -9 -13l-25 -20q-8 -7 -14 -7q-4 0 -18 8l-150 108q-11 8 -11 16q0 7 8 15l29 24q10 9 18 9z" />
    <glyph glyph-name="Aacute" unicode="&#xc1;" 
d="M480 208h-275q-14 0 -19 -12l-76 -168q-8 -17 -15.5 -22.5t-23.5 -5.5h-51q-21 0 -21 13q0 4 5 17l299 633q14 30 22.5 40t18.5 10t18 -10t22 -40l301 -633q5 -13 5 -17q0 -13 -21 -13h-55q-16 0 -23.5 5.5t-15.5 22.5l-77 168q-4 12 -18 12zM449 302q0 3 -3 9l-104 224
l-103 -224q-3 -6 -3 -10q0 -5 10 -5h192q11 0 11 6zM491 890q0 -8 -11 -16l-150 -108q-14 -8 -18 -8q-6 0 -14 7l-25 20q-8 8 -8 13q0 6 9 14l144 118q11 8 18 8q8 0 18 -9l29 -24q8 -8 8 -15z" />
    <glyph glyph-name="Acircumflex" unicode="&#xc2;" 
d="M480 208h-275q-14 0 -19 -12l-76 -168q-8 -17 -15.5 -22.5t-23.5 -5.5h-51q-21 0 -21 13q0 4 5 17l299 633q14 30 22.5 40t18.5 10t18 -10t22 -40l301 -633q5 -13 5 -17q0 -13 -21 -13h-55q-16 0 -23.5 5.5t-15.5 22.5l-77 168q-4 12 -18 12zM449 302q0 3 -3 9l-104 224
l-103 -224q-3 -6 -3 -10q0 -5 10 -5h192q11 0 11 6zM229 758q-3 0 -15 5l-30 17q-10 7 -10 14t8 15l109 105q15 14 34 14h38q19 0 34 -14l109 -105q8 -8 8 -15t-10 -14l-30 -17q-12 -5 -15 -5q-9 0 -20 11l-95 94l-95 -94q-11 -11 -20 -11z" />
    <glyph glyph-name="Atilde" unicode="&#xc3;" 
d="M480 208h-275q-14 0 -19 -12l-76 -168q-8 -17 -15.5 -22.5t-23.5 -5.5h-51q-21 0 -21 13q0 4 5 17l299 633q14 30 22.5 40t18.5 10t18 -10t22 -40l301 -633q5 -13 5 -17q0 -13 -21 -13h-55q-16 0 -23.5 5.5t-15.5 22.5l-77 168q-4 12 -18 12zM449 302q0 3 -3 9l-104 224
l-103 -224q-3 -6 -3 -10q0 -5 10 -5h192q11 0 11 6zM331 788q-36 18 -58 18q-34 0 -63 -35q-6 -7 -12 -7q-5 0 -11 6l-24 30q-4 4 -4 10q0 4 6 12q44 56 110 56q33 0 84 -24q36 -18 58 -18q34 0 63 35q6 7 12 7q5 0 11 -6l24 -30q4 -4 4 -10q0 -4 -6 -13q-44 -55 -110 -55
q-36 0 -84 24z" />
    <glyph glyph-name="Adieresis" unicode="&#xc4;" 
d="M480 208h-275q-14 0 -19 -12l-76 -168q-8 -17 -15.5 -22.5t-23.5 -5.5h-51q-21 0 -21 13q0 4 5 17l299 633q14 30 22.5 40t18.5 10t18 -10t22 -40l301 -633q5 -13 5 -17q0 -13 -21 -13h-55q-16 0 -23.5 5.5t-15.5 22.5l-77 168q-4 12 -18 12zM449 302q0 3 -3 9l-104 224
l-103 -224q-3 -6 -3 -10q0 -5 10 -5h192q11 0 11 6zM251 867q24 0 39 -14.5t15 -38.5q0 -23 -15 -38t-39 -15t-38.5 15t-14.5 38q0 24 14.5 38.5t38.5 14.5zM436 867q25 0 39.5 -14.5t14.5 -38.5t-15 -38.5t-39 -14.5t-38.5 15t-14.5 38q0 24 14.5 38.5t38.5 14.5z" />
    <glyph glyph-name="Aring" unicode="&#xc5;" 
d="M575 28l-77 168q-4 12 -18 12h-275q-14 0 -19 -12l-76 -168q-8 -17 -15.5 -22.5t-23.5 -5.5h-51q-21 0 -21 13q0 4 5 17l292 617q-39 14 -63.5 48.5t-24.5 78.5q0 54 40.5 94.5t95.5 40.5q56 0 95.5 -40t39.5 -95q0 -44 -24 -78.5t-63 -48.5l293 -617q5 -13 5 -17
q0 -13 -21 -13h-55q-16 0 -23.5 5.5t-15.5 22.5zM344 711q26 0 44.5 18t18.5 45q0 26 -18.5 44.5t-44.5 18.5q-27 0 -45 -18.5t-18 -44.5q0 -27 18 -45t45 -18zM449 302q0 3 -3 9l-104 224l-103 -224q-3 -6 -3 -10q0 -5 10 -5h192q11 0 11 6z" />
    <glyph glyph-name="AE" unicode="&#xc6;" horiz-adv-x="983" 
d="M237 223l-132 -200q-9 -14 -16.5 -18.5t-23.5 -4.5h-60q-20 0 -20 13q0 5 11 22l426 642q10 14 17 18.5t23 4.5h443q12 0 17 -4.5t5 -17.5v-51q0 -13 -5 -17.5t-17 -4.5h-288q-12 0 -12 -11v-183q0 -12 12 -12h255q12 0 16.5 -4.5t4.5 -17.5v-50q0 -22 -21 -22h-255
q-12 0 -12 -11v-188q0 -11 12 -11h289q12 0 17 -4.5t5 -17.5v-51q0 -13 -5 -17.5t-17 -4.5h-379q-12 0 -17 4.5t-5 17.5v201q0 12 -11 12h-236q-12 0 -21 -12zM505 340v272q0 10 -5 10q-2 0 -7 -6l-182 -273q-3 -6 -3 -9q0 -6 11 -6h175q11 0 11 12z" />
    <glyph glyph-name="Ccedilla" unicode="&#xc7;" horiz-adv-x="701" 
d="M607 156q11 9 17 9q7 0 15 -10l29 -40q5 -7 5 -14t-12 -18q-111 -94 -259 -94l-19 -38h5q45 0 72.5 -23.5t27.5 -60.5q0 -47 -40 -77.5t-99 -30.5q-48 0 -94 22q-12 7 -12 14q0 4 3 10l13 26q4 10 11 10q4 0 10 -3q26 -17 67 -17q30 0 49 12t19 30t-16.5 28.5t-43.5 10.5
q-19 0 -44 -5q-1 -1 -6 -1q-8 0 -8 7q0 4 2 8l41 83q-128 20 -211 118t-83 235q-2 153 104 259.5t258 104.5q143 0 254 -93q10 -7 10 -15q0 -7 -6 -16l-29 -39q-8 -11 -16 -11q-6 0 -17 8q-92 71 -198 71q-108 0 -182 -76t-74 -191q-2 -111 73.5 -189t182.5 -76
q112 0 201 72z" />
    <glyph glyph-name="Egrave" unicode="&#xc8;" horiz-adv-x="565" 
d="M511 73v-51q0 -13 -5 -17.5t-17 -4.5h-379q-12 0 -17 4.5t-5 17.5v656q0 13 5 17.5t17 4.5h378q12 0 17 -4.5t5 -17.5v-51q0 -13 -5 -17.5t-17 -4.5h-288q-12 0 -12 -11v-183q0 -12 12 -12h254q12 0 17 -4.5t5 -17.5v-50q0 -22 -22 -22h-254q-12 0 -12 -11v-188
q0 -11 12 -11h289q12 0 17 -4.5t5 -17.5zM207 938q7 0 18 -8l144 -118q10 -7 10 -14q0 -6 -9 -13l-25 -20q-8 -7 -14 -7q-4 0 -18 8l-150 108q-11 8 -11 16q0 7 8 15l29 24q11 9 18 9z" />
    <glyph glyph-name="Eacute" unicode="&#xc9;" horiz-adv-x="565" 
d="M511 73v-51q0 -13 -5 -17.5t-17 -4.5h-379q-12 0 -17 4.5t-5 17.5v656q0 13 5 17.5t17 4.5h378q12 0 17 -4.5t5 -17.5v-51q0 -13 -5 -17.5t-17 -4.5h-288q-12 0 -12 -11v-183q0 -12 12 -12h254q12 0 17 -4.5t5 -17.5v-50q0 -22 -22 -22h-254q-12 0 -12 -11v-188
q0 -11 12 -11h289q12 0 17 -4.5t5 -17.5zM446 890q0 -8 -11 -16l-150 -108q-14 -8 -18 -8q-6 0 -14 7l-25 20q-8 8 -8 13q0 6 9 14l144 118q11 8 18 8t18 -9l29 -24q8 -8 8 -15z" />
    <glyph glyph-name="Ecircumflex" unicode="&#xca;" horiz-adv-x="565" 
d="M511 73v-51q0 -13 -5 -17.5t-17 -4.5h-379q-12 0 -17 4.5t-5 17.5v656q0 13 5 17.5t17 4.5h378q12 0 17 -4.5t5 -17.5v-51q0 -13 -5 -17.5t-17 -4.5h-288q-12 0 -12 -11v-183q0 -12 12 -12h254q12 0 17 -4.5t5 -17.5v-50q0 -22 -22 -22h-254q-12 0 -12 -11v-188
q0 -11 12 -11h289q12 0 17 -4.5t5 -17.5zM184 758q-3 0 -15 5l-30 17q-10 7 -10 14t8 15l109 105q15 14 34 14h38q19 0 34 -14l109 -105q8 -8 8 -15t-10 -14l-30 -17q-12 -5 -15 -5q-9 0 -20 11l-95 94l-95 -94q-11 -11 -20 -11z" />
    <glyph glyph-name="Edieresis" unicode="&#xcb;" horiz-adv-x="565" 
d="M511 73v-51q0 -13 -5 -17.5t-17 -4.5h-379q-12 0 -17 4.5t-5 17.5v656q0 13 5 17.5t17 4.5h378q12 0 17 -4.5t5 -17.5v-51q0 -13 -5 -17.5t-17 -4.5h-288q-12 0 -12 -11v-183q0 -12 12 -12h254q12 0 17 -4.5t5 -17.5v-50q0 -22 -22 -22h-254q-12 0 -12 -11v-188
q0 -11 12 -11h289q12 0 17 -4.5t5 -17.5zM206 867q24 0 39 -14.5t15 -38.5q0 -23 -15 -38t-39 -15t-38.5 15t-14.5 38q0 24 14.5 38.5t38.5 14.5zM391 867q25 0 39.5 -14.5t14.5 -38.5t-14.5 -38.5t-39.5 -14.5q-24 0 -38.5 15t-14.5 38q0 24 14.5 38.5t38.5 14.5z" />
    <glyph glyph-name="Igrave" unicode="&#xcc;" horiz-adv-x="276" 
d="M166 0h-56q-12 0 -17 4.5t-5 17.5v656q0 13 5 17.5t17 4.5h56q12 0 17 -4.5t5 -17.5v-656q0 -13 -5 -17.5t-17 -4.5zM46 938q7 0 18 -8l144 -118q10 -7 10 -14q0 -6 -9 -13l-25 -20q-8 -7 -14 -7q-4 0 -18 8l-150 108q-11 8 -11 16q0 7 8 15l29 24q10 9 18 9z" />
    <glyph glyph-name="Iacute" unicode="&#xcd;" horiz-adv-x="276" 
d="M166 0h-56q-12 0 -17 4.5t-5 17.5v656q0 13 5 17.5t17 4.5h56q12 0 17 -4.5t5 -17.5v-656q0 -13 -5 -17.5t-17 -4.5zM285 890q0 -8 -11 -16l-150 -108q-14 -8 -18 -8q-6 0 -14 7l-25 20q-8 8 -8 13q0 6 9 14l144 118q11 8 18 8q8 0 18 -9l29 -24q8 -8 8 -15z" />
    <glyph glyph-name="Icircumflex" unicode="&#xce;" horiz-adv-x="276" 
d="M166 0h-56q-12 0 -17 4.5t-5 17.5v656q0 13 5 17.5t17 4.5h56q12 0 17 -4.5t5 -17.5v-656q0 -13 -5 -17.5t-17 -4.5zM23 758q-3 0 -15 5l-30 17q-10 7 -10 14t8 15l109 105q15 14 34 14h38q19 0 34 -14l109 -105q8 -8 8 -15t-10 -14l-30 -17q-12 -5 -15 -5q-9 0 -20 11
l-95 94l-95 -94q-11 -11 -20 -11z" />
    <glyph glyph-name="Idieresis" unicode="&#xcf;" horiz-adv-x="276" 
d="M166 0h-56q-12 0 -17 4.5t-5 17.5v656q0 13 5 17.5t17 4.5h56q12 0 17 -4.5t5 -17.5v-656q0 -13 -5 -17.5t-17 -4.5zM45 867q24 0 39 -14.5t15 -38.5q0 -23 -15 -38t-39 -15t-38.5 15t-14.5 38q0 24 14.5 38.5t38.5 14.5zM230 867q25 0 39.5 -14.5t14.5 -38.5t-15 -38.5
t-39 -14.5t-38.5 15t-14.5 38q0 24 14.5 38.5t38.5 14.5z" />
    <glyph glyph-name="Eth" unicode="&#xd0;" horiz-adv-x="744" 
d="M78 310h-42q-13 0 -17.5 4t-4.5 16v44q0 12 4.5 16t17.5 4h42q10 0 10 10v274q0 13 5 17.5t17 4.5h208q174 0 276 -93t102 -249q0 -163 -106 -260.5t-286 -97.5h-194q-12 0 -17 4.5t-5 17.5v278q0 10 -10 10zM188 594v-190q0 -10 10 -10h155q13 0 17.5 -4t4.5 -16v-44
q0 -12 -4.5 -16t-17.5 -4h-155q-10 0 -10 -10v-194q0 -11 12 -11h106q135 0 210.5 69t75.5 190q0 114 -75.5 182.5t-206.5 68.5h-110q-12 0 -12 -11z" />
    <glyph glyph-name="Ntilde" unicode="&#xd1;" horiz-adv-x="744" 
d="M578 700h56q12 0 17 -4.5t5 -17.5v-656q0 -33 -20 -33q-15 0 -42 31l-406 479v-477q0 -13 -5 -17.5t-17 -4.5h-56q-12 0 -17 4.5t-5 17.5v656q0 33 21 33q15 0 41 -31l406 -479v477q0 13 5 17.5t17 4.5zM359 788q-36 18 -58 18q-34 0 -63 -35q-6 -7 -12 -7q-5 0 -11 6
l-24 30q-4 4 -4 10q0 4 6 12q44 56 110 56q33 0 84 -24q36 -18 58 -18q34 0 63 35q6 7 12 7q5 0 11 -6l24 -30q4 -4 4 -10q0 -4 -6 -13q-44 -55 -110 -55q-36 0 -84 24z" />
    <glyph glyph-name="Ograve" unicode="&#xd2;" horiz-adv-x="814" 
d="M408 711q152 2 257 -103t103 -257q2 -153 -104.5 -259t-259.5 -103q-150 -3 -255 102t-103 256q-2 152 104.5 259.5t257.5 104.5zM405 84q106 -2 183.5 76.5t75.5 189.5q0 115 -74.5 190.5t-182.5 75.5t-182.5 -76.5t-74.5 -191.5q-2 -112 73.5 -189t181.5 -75zM315 938
q7 0 18 -8l144 -118q10 -7 10 -14q0 -6 -9 -13l-25 -20q-8 -7 -14 -7q-4 0 -18 8l-150 108q-11 8 -11 16q0 7 8 15l29 24q11 9 18 9z" />
    <glyph glyph-name="Oacute" unicode="&#xd3;" horiz-adv-x="814" 
d="M408 711q152 2 257 -103t103 -257q2 -153 -104.5 -259t-259.5 -103q-150 -3 -255 102t-103 256q-2 152 104.5 259.5t257.5 104.5zM405 84q106 -2 183.5 76.5t75.5 189.5q0 115 -74.5 190.5t-182.5 75.5t-182.5 -76.5t-74.5 -191.5q-2 -112 73.5 -189t181.5 -75zM554 890
q0 -8 -11 -16l-150 -108q-14 -8 -18 -8q-6 0 -14 7l-25 20q-8 8 -8 13q0 6 9 14l144 118q11 8 18 8t18 -9l29 -24q8 -8 8 -15z" />
    <glyph glyph-name="Ocircumflex" unicode="&#xd4;" horiz-adv-x="814" 
d="M408 711q152 2 257 -103t103 -257q2 -153 -104.5 -259t-259.5 -103q-150 -3 -255 102t-103 256q-2 152 104.5 259.5t257.5 104.5zM405 84q106 -2 183.5 76.5t75.5 189.5q0 115 -74.5 190.5t-182.5 75.5t-182.5 -76.5t-74.5 -191.5q-2 -112 73.5 -189t181.5 -75zM292 758
q-3 0 -15 5l-30 17q-10 7 -10 14t8 15l109 105q15 14 34 14h38q19 0 34 -14l109 -105q8 -8 8 -15t-10 -14l-30 -17q-12 -5 -15 -5q-9 0 -20 11l-95 94l-95 -94q-11 -11 -20 -11z" />
    <glyph glyph-name="Otilde" unicode="&#xd5;" horiz-adv-x="814" 
d="M408 711q152 2 257 -103t103 -257q2 -153 -104.5 -259t-259.5 -103q-150 -3 -255 102t-103 256q-2 152 104.5 259.5t257.5 104.5zM405 84q106 -2 183.5 76.5t75.5 189.5q0 115 -74.5 190.5t-182.5 75.5t-182.5 -76.5t-74.5 -191.5q-2 -112 73.5 -189t181.5 -75zM393 788
q-36 18 -58 18q-34 0 -63 -35q-6 -7 -12 -7q-5 0 -11 6l-24 30q-4 4 -4 10q0 4 6 12q44 56 110 56q33 0 84 -24q36 -18 58 -18q34 0 63 35q6 7 12 7q5 0 11 -6l24 -30q4 -4 4 -10q0 -4 -6 -13q-44 -55 -110 -55q-36 0 -84 24z" />
    <glyph glyph-name="Odieresis" unicode="&#xd6;" horiz-adv-x="814" 
d="M408 711q152 2 257 -103t103 -257q2 -153 -104.5 -259t-259.5 -103q-150 -3 -255 102t-103 256q-2 152 104.5 259.5t257.5 104.5zM405 84q106 -2 183.5 76.5t75.5 189.5q0 115 -74.5 190.5t-182.5 75.5t-182.5 -76.5t-74.5 -191.5q-2 -112 73.5 -189t181.5 -75zM314 867
q24 0 39 -14.5t15 -38.5q0 -23 -15 -38t-39 -15t-38.5 15t-14.5 38q0 24 14.5 38.5t38.5 14.5zM499 867q25 0 39.5 -14.5t14.5 -38.5t-14.5 -38.5t-39.5 -14.5q-24 0 -38.5 15t-14.5 38q0 24 14.5 38.5t38.5 14.5z" />
    <glyph glyph-name="multiply" unicode="&#xd7;" horiz-adv-x="672" 
d="M554 156q0 -7 -9 -16l-29 -29q-9 -9 -16 -9q-6 0 -15 9l-141 141q-5 5 -8 5t-8 -5l-140 -141q-9 -9 -16 -9t-16 9l-29 29q-9 9 -9 16t9 16l141 140q5 5 5 8t-5 8l-141 140q-9 9 -9 16t9 16l29 29q9 9 16 9t16 -9l140 -141q5 -5 8 -5t8 5l141 141q9 9 15 9q7 0 16 -9
l29 -29q9 -9 9 -16t-9 -16l-141 -140q-4 -4 -4 -8t4 -8l141 -140q9 -9 9 -16z" />
    <glyph glyph-name="Oslash" unicode="&#xd8;" horiz-adv-x="814" 
d="M768 351q2 -153 -104.5 -259t-259.5 -103q-121 0 -212 66l-40 -45q-20 -21 -41 -21h-32q-22 0 -22 12q0 5 15 23l67 76q-93 99 -93 247q-2 152 104.5 259.5t257.5 104.5q122 0 213 -67l41 46q20 21 41 21h32q22 0 22 -12q0 -5 -15 -23l-68 -77q94 -100 94 -248zM208 177
l347 392q-62 47 -148 47q-108 0 -182.5 -76.5t-74.5 -191.5q0 -102 58 -171zM605 522l-347 -392q61 -46 147 -46q106 -2 183.5 76.5t75.5 189.5q0 104 -59 172z" />
    <glyph glyph-name="Ugrave" unicode="&#xd9;" horiz-adv-x="743" 
d="M366 -11q-129 0 -205.5 78t-76.5 228v383q0 13 5 17.5t17 4.5h55q13 0 18 -4.5t5 -17.5v-377q0 -103 48 -160t138 -57t140 57.5t50 158.5v378q0 12 5 17t16 5h56q13 0 18 -4.5t5 -17.5v-380q0 -149 -80.5 -229t-213.5 -80zM279 938q7 0 18 -8l144 -118q10 -7 10 -14
q0 -6 -9 -13l-25 -20q-8 -7 -14 -7q-4 0 -18 8l-150 108q-11 8 -11 16q0 7 8 15l29 24q11 9 18 9z" />
    <glyph glyph-name="Uacute" unicode="&#xda;" horiz-adv-x="743" 
d="M366 -11q-129 0 -205.5 78t-76.5 228v383q0 13 5 17.5t17 4.5h55q13 0 18 -4.5t5 -17.5v-377q0 -103 48 -160t138 -57t140 57.5t50 158.5v378q0 12 5 17t16 5h56q13 0 18 -4.5t5 -17.5v-380q0 -149 -80.5 -229t-213.5 -80zM518 890q0 -8 -11 -16l-150 -108q-14 -8 -18 -8
q-6 0 -14 7l-25 20q-8 8 -8 13q0 6 9 14l144 118q11 8 18 8t18 -9l29 -24q8 -8 8 -15z" />
    <glyph glyph-name="Ucircumflex" unicode="&#xdb;" horiz-adv-x="743" 
d="M366 -11q-129 0 -205.5 78t-76.5 228v383q0 13 5 17.5t17 4.5h55q13 0 18 -4.5t5 -17.5v-377q0 -103 48 -160t138 -57t140 57.5t50 158.5v378q0 12 5 17t16 5h56q13 0 18 -4.5t5 -17.5v-380q0 -149 -80.5 -229t-213.5 -80zM256 758q-3 0 -15 5l-30 17q-10 7 -10 14t8 15
l109 105q15 14 34 14h38q19 0 34 -14l109 -105q8 -8 8 -15t-10 -14l-30 -17q-12 -5 -15 -5q-9 0 -20 11l-95 94l-95 -94q-11 -11 -20 -11z" />
    <glyph glyph-name="Udieresis" unicode="&#xdc;" horiz-adv-x="743" 
d="M366 -11q-129 0 -205.5 78t-76.5 228v383q0 13 5 17.5t17 4.5h55q13 0 18 -4.5t5 -17.5v-377q0 -103 48 -160t138 -57t140 57.5t50 158.5v378q0 12 5 17t16 5h56q13 0 18 -4.5t5 -17.5v-380q0 -149 -80.5 -229t-213.5 -80zM278 867q24 0 39 -14.5t15 -38.5q0 -23 -15 -38
t-39 -15t-38.5 15t-14.5 38q0 24 14.5 38.5t38.5 14.5zM463 867q25 0 39.5 -14.5t14.5 -38.5t-14.5 -38.5t-39.5 -14.5q-24 0 -38.5 15t-14.5 38q0 24 14.5 38.5t38.5 14.5z" />
    <glyph glyph-name="Yacute" unicode="&#xdd;" horiz-adv-x="603" 
d="M487 675q10 16 17 20.5t23 4.5h59q19 0 19 -11q0 -2 -5 -14l-248 -411v-242q0 -13 -5 -17.5t-17 -4.5h-56q-12 0 -17 4.5t-5 17.5v237l-248 416q-5 12 -5 14q0 11 18 11h62q17 0 24 -4.5t17 -20.5l183 -316zM449 890q0 -8 -11 -16l-150 -108q-14 -8 -18 -8q-6 0 -14 7
l-25 20q-8 8 -8 13q0 6 9 14l144 118q11 8 18 8q8 0 18 -9l29 -24q8 -8 8 -15z" />
    <glyph glyph-name="Thorn" unicode="&#xde;" horiz-adv-x="624" 
d="M200 581h107q138 0 209 -56.5t71 -165.5t-76 -169.5t-216 -60.5h-95q-12 0 -12 -12v-95q0 -13 -5 -17.5t-17 -4.5h-56q-12 0 -17 4.5t-5 17.5v656q0 13 5 17.5t17 4.5h56q12 0 17 -4.5t5 -17.5v-85q0 -12 12 -12zM188 475v-240q0 -12 12 -12h95q90 0 139 34t49 100
q0 67 -46 98t-139 31h-98q-12 0 -12 -11z" />
    <glyph glyph-name="germandbls" unicode="&#xdf;" horiz-adv-x="785" 
d="M545 378q108 -29 155 -71t47 -118q0 -90 -68 -145t-176 -55q-130 0 -226 80q-10 7 -10 15q0 7 7 17l29 43q8 11 15 11q6 0 15 -7q81 -65 171 -65q64 0 101 26.5t37 73.5q0 42 -30.5 64t-113.5 45q-101 26 -148 68.5t-47 118.5q0 46 23.5 83t65.5 57l-26 1q-88 0 -136 -54
q-45 -51 -45 -167v-377q0 -13 -5 -17.5t-17 -4.5h-56q-12 0 -17 4.5t-5 17.5v385q0 84 16.5 135t55.5 91q80 80 226 80q71 0 154 -20q84 -20 140 -49q15 -10 15 -19q0 -7 -6 -17l-22 -38q-7 -13 -16 -13q-4 0 -17 5q-58 26 -113 26q-48 0 -80 -28.5t-32 -69.5
q0 -44 30.5 -67.5t108.5 -44.5z" />
    <glyph glyph-name="agrave" unicode="&#xe0;" 
d="M480 208h-275q-14 0 -19 -12l-76 -168q-8 -17 -15.5 -22.5t-23.5 -5.5h-51q-21 0 -21 13q0 4 5 17l299 633q14 30 22.5 40t18.5 10t18 -10t22 -40l301 -633q5 -13 5 -17q0 -13 -21 -13h-55q-16 0 -23.5 5.5t-15.5 22.5l-77 168q-4 12 -18 12zM449 302q0 3 -3 9l-104 224
l-103 -224q-3 -6 -3 -10q0 -5 10 -5h192q11 0 11 6zM252 938q7 0 18 -8l144 -118q10 -7 10 -14q0 -6 -9 -13l-25 -20q-8 -7 -14 -7q-4 0 -18 8l-150 108q-11 8 -11 16q0 7 8 15l29 24q10 9 18 9z" />
    <glyph glyph-name="aacute" unicode="&#xe1;" 
d="M480 208h-275q-14 0 -19 -12l-76 -168q-8 -17 -15.5 -22.5t-23.5 -5.5h-51q-21 0 -21 13q0 4 5 17l299 633q14 30 22.5 40t18.5 10t18 -10t22 -40l301 -633q5 -13 5 -17q0 -13 -21 -13h-55q-16 0 -23.5 5.5t-15.5 22.5l-77 168q-4 12 -18 12zM449 302q0 3 -3 9l-104 224
l-103 -224q-3 -6 -3 -10q0 -5 10 -5h192q11 0 11 6zM491 890q0 -8 -11 -16l-150 -108q-14 -8 -18 -8q-6 0 -14 7l-25 20q-8 8 -8 13q0 6 9 14l144 118q11 8 18 8q8 0 18 -9l29 -24q8 -8 8 -15z" />
    <glyph glyph-name="acircumflex" unicode="&#xe2;" 
d="M480 208h-275q-14 0 -19 -12l-76 -168q-8 -17 -15.5 -22.5t-23.5 -5.5h-51q-21 0 -21 13q0 4 5 17l299 633q14 30 22.5 40t18.5 10t18 -10t22 -40l301 -633q5 -13 5 -17q0 -13 -21 -13h-55q-16 0 -23.5 5.5t-15.5 22.5l-77 168q-4 12 -18 12zM449 302q0 3 -3 9l-104 224
l-103 -224q-3 -6 -3 -10q0 -5 10 -5h192q11 0 11 6zM229 758q-3 0 -15 5l-30 17q-10 7 -10 14t8 15l109 105q15 14 34 14h38q19 0 34 -14l109 -105q8 -8 8 -15t-10 -14l-30 -17q-12 -5 -15 -5q-9 0 -20 11l-95 94l-95 -94q-11 -11 -20 -11z" />
    <glyph glyph-name="atilde" unicode="&#xe3;" 
d="M480 208h-275q-14 0 -19 -12l-76 -168q-8 -17 -15.5 -22.5t-23.5 -5.5h-51q-21 0 -21 13q0 4 5 17l299 633q14 30 22.5 40t18.5 10t18 -10t22 -40l301 -633q5 -13 5 -17q0 -13 -21 -13h-55q-16 0 -23.5 5.5t-15.5 22.5l-77 168q-4 12 -18 12zM449 302q0 3 -3 9l-104 224
l-103 -224q-3 -6 -3 -10q0 -5 10 -5h192q11 0 11 6zM331 788q-36 18 -58 18q-34 0 -63 -35q-6 -7 -12 -7q-5 0 -11 6l-24 30q-4 4 -4 10q0 4 6 12q44 56 110 56q33 0 84 -24q36 -18 58 -18q34 0 63 35q6 7 12 7q5 0 11 -6l24 -30q4 -4 4 -10q0 -4 -6 -13q-44 -55 -110 -55
q-36 0 -84 24z" />
    <glyph glyph-name="adieresis" unicode="&#xe4;" 
d="M480 208h-275q-14 0 -19 -12l-76 -168q-8 -17 -15.5 -22.5t-23.5 -5.5h-51q-21 0 -21 13q0 4 5 17l299 633q14 30 22.5 40t18.5 10t18 -10t22 -40l301 -633q5 -13 5 -17q0 -13 -21 -13h-55q-16 0 -23.5 5.5t-15.5 22.5l-77 168q-4 12 -18 12zM449 302q0 3 -3 9l-104 224
l-103 -224q-3 -6 -3 -10q0 -5 10 -5h192q11 0 11 6zM251 867q24 0 39 -14.5t15 -38.5q0 -23 -15 -38t-39 -15t-38.5 15t-14.5 38q0 24 14.5 38.5t38.5 14.5zM436 867q25 0 39.5 -14.5t14.5 -38.5t-15 -38.5t-39 -14.5t-38.5 15t-14.5 38q0 24 14.5 38.5t38.5 14.5z" />
    <glyph glyph-name="aring" unicode="&#xe5;" 
d="M575 28l-77 168q-4 12 -18 12h-275q-14 0 -19 -12l-76 -168q-8 -17 -15.5 -22.5t-23.5 -5.5h-51q-21 0 -21 13q0 4 5 17l292 617q-39 14 -63.5 48.5t-24.5 78.5q0 54 40.5 94.5t95.5 40.5q56 0 95.5 -40t39.5 -95q0 -44 -24 -78.5t-63 -48.5l293 -617q5 -13 5 -17
q0 -13 -21 -13h-55q-16 0 -23.5 5.5t-15.5 22.5zM344 711q26 0 44.5 18t18.5 45q0 26 -18.5 44.5t-44.5 18.5q-27 0 -45 -18.5t-18 -44.5q0 -27 18 -45t45 -18zM449 302q0 3 -3 9l-104 224l-103 -224q-3 -6 -3 -10q0 -5 10 -5h192q11 0 11 6z" />
    <glyph glyph-name="ae" unicode="&#xe6;" horiz-adv-x="983" 
d="M237 223l-132 -200q-9 -14 -16.5 -18.5t-23.5 -4.5h-60q-20 0 -20 13q0 5 11 22l426 642q10 14 17 18.5t23 4.5h443q12 0 17 -4.5t5 -17.5v-51q0 -13 -5 -17.5t-17 -4.5h-288q-12 0 -12 -11v-183q0 -12 12 -12h255q12 0 16.5 -4.5t4.5 -17.5v-50q0 -22 -21 -22h-255
q-12 0 -12 -11v-188q0 -11 12 -11h289q12 0 17 -4.5t5 -17.5v-51q0 -13 -5 -17.5t-17 -4.5h-379q-12 0 -17 4.5t-5 17.5v201q0 12 -11 12h-236q-12 0 -21 -12zM505 340v272q0 10 -5 10q-2 0 -7 -6l-182 -273q-3 -6 -3 -9q0 -6 11 -6h175q11 0 11 12z" />
    <glyph glyph-name="ccedilla" unicode="&#xe7;" horiz-adv-x="701" 
d="M607 156q11 9 17 9q7 0 15 -10l29 -40q5 -7 5 -14t-12 -18q-111 -94 -259 -94l-19 -38h5q45 0 72.5 -23.5t27.5 -60.5q0 -47 -40 -77.5t-99 -30.5q-48 0 -94 22q-12 7 -12 14q0 4 3 10l13 26q4 10 11 10q4 0 10 -3q26 -17 67 -17q30 0 49 12t19 30t-16.5 28.5t-43.5 10.5
q-19 0 -44 -5q-1 -1 -6 -1q-8 0 -8 7q0 4 2 8l41 83q-128 20 -211 118t-83 235q-2 153 104 259.5t258 104.5q143 0 254 -93q10 -7 10 -15q0 -7 -6 -16l-29 -39q-8 -11 -16 -11q-6 0 -17 8q-92 71 -198 71q-108 0 -182 -76t-74 -191q-2 -111 73.5 -189t182.5 -76
q112 0 201 72z" />
    <glyph glyph-name="egrave" unicode="&#xe8;" horiz-adv-x="565" 
d="M511 73v-51q0 -13 -5 -17.5t-17 -4.5h-379q-12 0 -17 4.5t-5 17.5v656q0 13 5 17.5t17 4.5h378q12 0 17 -4.5t5 -17.5v-51q0 -13 -5 -17.5t-17 -4.5h-288q-12 0 -12 -11v-183q0 -12 12 -12h254q12 0 17 -4.5t5 -17.5v-50q0 -22 -22 -22h-254q-12 0 -12 -11v-188
q0 -11 12 -11h289q12 0 17 -4.5t5 -17.5zM207 938q7 0 18 -8l144 -118q10 -7 10 -14q0 -6 -9 -13l-25 -20q-8 -7 -14 -7q-4 0 -18 8l-150 108q-11 8 -11 16q0 7 8 15l29 24q11 9 18 9z" />
    <glyph glyph-name="eacute" unicode="&#xe9;" horiz-adv-x="565" 
d="M511 73v-51q0 -13 -5 -17.5t-17 -4.5h-379q-12 0 -17 4.5t-5 17.5v656q0 13 5 17.5t17 4.5h378q12 0 17 -4.5t5 -17.5v-51q0 -13 -5 -17.5t-17 -4.5h-288q-12 0 -12 -11v-183q0 -12 12 -12h254q12 0 17 -4.5t5 -17.5v-50q0 -22 -22 -22h-254q-12 0 -12 -11v-188
q0 -11 12 -11h289q12 0 17 -4.5t5 -17.5zM446 890q0 -8 -11 -16l-150 -108q-14 -8 -18 -8q-6 0 -14 7l-25 20q-8 8 -8 13q0 6 9 14l144 118q11 8 18 8t18 -9l29 -24q8 -8 8 -15z" />
    <glyph glyph-name="ecircumflex" unicode="&#xea;" horiz-adv-x="565" 
d="M511 73v-51q0 -13 -5 -17.5t-17 -4.5h-379q-12 0 -17 4.5t-5 17.5v656q0 13 5 17.5t17 4.5h378q12 0 17 -4.5t5 -17.5v-51q0 -13 -5 -17.5t-17 -4.5h-288q-12 0 -12 -11v-183q0 -12 12 -12h254q12 0 17 -4.5t5 -17.5v-50q0 -22 -22 -22h-254q-12 0 -12 -11v-188
q0 -11 12 -11h289q12 0 17 -4.5t5 -17.5zM184 758q-3 0 -15 5l-30 17q-10 7 -10 14t8 15l109 105q15 14 34 14h38q19 0 34 -14l109 -105q8 -8 8 -15t-10 -14l-30 -17q-12 -5 -15 -5q-9 0 -20 11l-95 94l-95 -94q-11 -11 -20 -11z" />
    <glyph glyph-name="edieresis" unicode="&#xeb;" horiz-adv-x="565" 
d="M511 73v-51q0 -13 -5 -17.5t-17 -4.5h-379q-12 0 -17 4.5t-5 17.5v656q0 13 5 17.5t17 4.5h378q12 0 17 -4.5t5 -17.5v-51q0 -13 -5 -17.5t-17 -4.5h-288q-12 0 -12 -11v-183q0 -12 12 -12h254q12 0 17 -4.5t5 -17.5v-50q0 -22 -22 -22h-254q-12 0 -12 -11v-188
q0 -11 12 -11h289q12 0 17 -4.5t5 -17.5zM206 867q24 0 39 -14.5t15 -38.5q0 -23 -15 -38t-39 -15t-38.5 15t-14.5 38q0 24 14.5 38.5t38.5 14.5zM391 867q25 0 39.5 -14.5t14.5 -38.5t-14.5 -38.5t-39.5 -14.5q-24 0 -38.5 15t-14.5 38q0 24 14.5 38.5t38.5 14.5z" />
    <glyph glyph-name="igrave" unicode="&#xec;" horiz-adv-x="276" 
d="M166 0h-56q-12 0 -17 4.5t-5 17.5v656q0 13 5 17.5t17 4.5h56q12 0 17 -4.5t5 -17.5v-656q0 -13 -5 -17.5t-17 -4.5zM46 938q7 0 18 -8l144 -118q10 -7 10 -14q0 -6 -9 -13l-25 -20q-8 -7 -14 -7q-4 0 -18 8l-150 108q-11 8 -11 16q0 7 8 15l29 24q10 9 18 9z" />
    <glyph glyph-name="iacute" unicode="&#xed;" horiz-adv-x="276" 
d="M166 0h-56q-12 0 -17 4.5t-5 17.5v656q0 13 5 17.5t17 4.5h56q12 0 17 -4.5t5 -17.5v-656q0 -13 -5 -17.5t-17 -4.5zM285 890q0 -8 -11 -16l-150 -108q-14 -8 -18 -8q-6 0 -14 7l-25 20q-8 8 -8 13q0 6 9 14l144 118q11 8 18 8q8 0 18 -9l29 -24q8 -8 8 -15z" />
    <glyph glyph-name="icircumflex" unicode="&#xee;" horiz-adv-x="276" 
d="M166 0h-56q-12 0 -17 4.5t-5 17.5v656q0 13 5 17.5t17 4.5h56q12 0 17 -4.5t5 -17.5v-656q0 -13 -5 -17.5t-17 -4.5zM23 758q-3 0 -15 5l-30 17q-10 7 -10 14t8 15l109 105q15 14 34 14h38q19 0 34 -14l109 -105q8 -8 8 -15t-10 -14l-30 -17q-12 -5 -15 -5q-9 0 -20 11
l-95 94l-95 -94q-11 -11 -20 -11z" />
    <glyph glyph-name="idieresis" unicode="&#xef;" horiz-adv-x="276" 
d="M166 0h-56q-12 0 -17 4.5t-5 17.5v656q0 13 5 17.5t17 4.5h56q12 0 17 -4.5t5 -17.5v-656q0 -13 -5 -17.5t-17 -4.5zM45 867q24 0 39 -14.5t15 -38.5q0 -23 -15 -38t-39 -15t-38.5 15t-14.5 38q0 24 14.5 38.5t38.5 14.5zM230 867q25 0 39.5 -14.5t14.5 -38.5t-15 -38.5
t-39 -14.5t-38.5 15t-14.5 38q0 24 14.5 38.5t38.5 14.5z" />
    <glyph glyph-name="eth" unicode="&#xf0;" horiz-adv-x="744" 
d="M78 310h-42q-13 0 -17.5 4t-4.5 16v44q0 12 4.5 16t17.5 4h42q10 0 10 10v274q0 13 5 17.5t17 4.5h208q174 0 276 -93t102 -249q0 -163 -106 -260.5t-286 -97.5h-194q-12 0 -17 4.5t-5 17.5v278q0 10 -10 10zM188 594v-190q0 -10 10 -10h155q13 0 17.5 -4t4.5 -16v-44
q0 -12 -4.5 -16t-17.5 -4h-155q-10 0 -10 -10v-194q0 -11 12 -11h106q135 0 210.5 69t75.5 190q0 114 -75.5 182.5t-206.5 68.5h-110q-12 0 -12 -11z" />
    <glyph glyph-name="ntilde" unicode="&#xf1;" horiz-adv-x="744" 
d="M578 700h56q12 0 17 -4.5t5 -17.5v-656q0 -33 -20 -33q-15 0 -42 31l-406 479v-477q0 -13 -5 -17.5t-17 -4.5h-56q-12 0 -17 4.5t-5 17.5v656q0 33 21 33q15 0 41 -31l406 -479v477q0 13 5 17.5t17 4.5zM359 788q-36 18 -58 18q-34 0 -63 -35q-6 -7 -12 -7q-5 0 -11 6
l-24 30q-4 4 -4 10q0 4 6 12q44 56 110 56q33 0 84 -24q36 -18 58 -18q34 0 63 35q6 7 12 7q5 0 11 -6l24 -30q4 -4 4 -10q0 -4 -6 -13q-44 -55 -110 -55q-36 0 -84 24z" />
    <glyph glyph-name="ograve" unicode="&#xf2;" horiz-adv-x="814" 
d="M408 711q152 2 257 -103t103 -257q2 -153 -104.5 -259t-259.5 -103q-150 -3 -255 102t-103 256q-2 152 104.5 259.5t257.5 104.5zM405 84q106 -2 183.5 76.5t75.5 189.5q0 115 -74.5 190.5t-182.5 75.5t-182.5 -76.5t-74.5 -191.5q-2 -112 73.5 -189t181.5 -75zM315 938
q7 0 18 -8l144 -118q10 -7 10 -14q0 -6 -9 -13l-25 -20q-8 -7 -14 -7q-4 0 -18 8l-150 108q-11 8 -11 16q0 7 8 15l29 24q11 9 18 9z" />
    <glyph glyph-name="oacute" unicode="&#xf3;" horiz-adv-x="814" 
d="M408 711q152 2 257 -103t103 -257q2 -153 -104.5 -259t-259.5 -103q-150 -3 -255 102t-103 256q-2 152 104.5 259.5t257.5 104.5zM405 84q106 -2 183.5 76.5t75.5 189.5q0 115 -74.5 190.5t-182.5 75.5t-182.5 -76.5t-74.5 -191.5q-2 -112 73.5 -189t181.5 -75zM554 890
q0 -8 -11 -16l-150 -108q-14 -8 -18 -8q-6 0 -14 7l-25 20q-8 8 -8 13q0 6 9 14l144 118q11 8 18 8t18 -9l29 -24q8 -8 8 -15z" />
    <glyph glyph-name="ocircumflex" unicode="&#xf4;" horiz-adv-x="814" 
d="M408 711q152 2 257 -103t103 -257q2 -153 -104.5 -259t-259.5 -103q-150 -3 -255 102t-103 256q-2 152 104.5 259.5t257.5 104.5zM405 84q106 -2 183.5 76.5t75.5 189.5q0 115 -74.5 190.5t-182.5 75.5t-182.5 -76.5t-74.5 -191.5q-2 -112 73.5 -189t181.5 -75zM292 758
q-3 0 -15 5l-30 17q-10 7 -10 14t8 15l109 105q15 14 34 14h38q19 0 34 -14l109 -105q8 -8 8 -15t-10 -14l-30 -17q-12 -5 -15 -5q-9 0 -20 11l-95 94l-95 -94q-11 -11 -20 -11z" />
    <glyph glyph-name="otilde" unicode="&#xf5;" horiz-adv-x="814" 
d="M408 711q152 2 257 -103t103 -257q2 -153 -104.5 -259t-259.5 -103q-150 -3 -255 102t-103 256q-2 152 104.5 259.5t257.5 104.5zM405 84q106 -2 183.5 76.5t75.5 189.5q0 115 -74.5 190.5t-182.5 75.5t-182.5 -76.5t-74.5 -191.5q-2 -112 73.5 -189t181.5 -75zM393 788
q-36 18 -58 18q-34 0 -63 -35q-6 -7 -12 -7q-5 0 -11 6l-24 30q-4 4 -4 10q0 4 6 12q44 56 110 56q33 0 84 -24q36 -18 58 -18q34 0 63 35q6 7 12 7q5 0 11 -6l24 -30q4 -4 4 -10q0 -4 -6 -13q-44 -55 -110 -55q-36 0 -84 24z" />
    <glyph glyph-name="odieresis" unicode="&#xf6;" horiz-adv-x="814" 
d="M408 711q152 2 257 -103t103 -257q2 -153 -104.5 -259t-259.5 -103q-150 -3 -255 102t-103 256q-2 152 104.5 259.5t257.5 104.5zM405 84q106 -2 183.5 76.5t75.5 189.5q0 115 -74.5 190.5t-182.5 75.5t-182.5 -76.5t-74.5 -191.5q-2 -112 73.5 -189t181.5 -75zM314 867
q24 0 39 -14.5t15 -38.5q0 -23 -15 -38t-39 -15t-38.5 15t-14.5 38q0 24 14.5 38.5t38.5 14.5zM499 867q25 0 39.5 -14.5t14.5 -38.5t-14.5 -38.5t-39.5 -14.5q-24 0 -38.5 15t-14.5 38q0 24 14.5 38.5t38.5 14.5z" />
    <glyph glyph-name="divide" unicode="&#xf7;" horiz-adv-x="672" 
d="M336 558q26 0 42.5 -16t16.5 -41t-16.5 -40.5t-42.5 -15.5q-25 0 -41.5 15.5t-16.5 40.5t16.5 41t41.5 16zM570 277h-467q-23 0 -23 22v42q0 22 23 22h467q12 0 17 -4.5t5 -17.5v-42q0 -13 -5 -17.5t-17 -4.5zM336 195q26 0 42.5 -16t16.5 -41t-16.5 -40.5t-42.5 -15.5
q-25 0 -41.5 15.5t-16.5 40.5t16.5 41t41.5 16z" />
    <glyph glyph-name="oslash" unicode="&#xf8;" horiz-adv-x="814" 
d="M768 351q2 -153 -104.5 -259t-259.5 -103q-121 0 -212 66l-40 -45q-20 -21 -41 -21h-32q-22 0 -22 12q0 5 15 23l67 76q-93 99 -93 247q-2 152 104.5 259.5t257.5 104.5q122 0 213 -67l41 46q20 21 41 21h32q22 0 22 -12q0 -5 -15 -23l-68 -77q94 -100 94 -248zM208 177
l347 392q-62 47 -148 47q-108 0 -182.5 -76.5t-74.5 -191.5q0 -102 58 -171zM605 522l-347 -392q61 -46 147 -46q106 -2 183.5 76.5t75.5 189.5q0 104 -59 172z" />
    <glyph glyph-name="ugrave" unicode="&#xf9;" horiz-adv-x="743" 
d="M366 -11q-129 0 -205.5 78t-76.5 228v383q0 13 5 17.5t17 4.5h55q13 0 18 -4.5t5 -17.5v-377q0 -103 48 -160t138 -57t140 57.5t50 158.5v378q0 12 5 17t16 5h56q13 0 18 -4.5t5 -17.5v-380q0 -149 -80.5 -229t-213.5 -80zM279 938q7 0 18 -8l144 -118q10 -7 10 -14
q0 -6 -9 -13l-25 -20q-8 -7 -14 -7q-4 0 -18 8l-150 108q-11 8 -11 16q0 7 8 15l29 24q11 9 18 9z" />
    <glyph glyph-name="uacute" unicode="&#xfa;" horiz-adv-x="743" 
d="M366 -11q-129 0 -205.5 78t-76.5 228v383q0 13 5 17.5t17 4.5h55q13 0 18 -4.5t5 -17.5v-377q0 -103 48 -160t138 -57t140 57.5t50 158.5v378q0 12 5 17t16 5h56q13 0 18 -4.5t5 -17.5v-380q0 -149 -80.5 -229t-213.5 -80zM518 890q0 -8 -11 -16l-150 -108q-14 -8 -18 -8
q-6 0 -14 7l-25 20q-8 8 -8 13q0 6 9 14l144 118q11 8 18 8t18 -9l29 -24q8 -8 8 -15z" />
    <glyph glyph-name="ucircumflex" unicode="&#xfb;" horiz-adv-x="743" 
d="M366 -11q-129 0 -205.5 78t-76.5 228v383q0 13 5 17.5t17 4.5h55q13 0 18 -4.5t5 -17.5v-377q0 -103 48 -160t138 -57t140 57.5t50 158.5v378q0 12 5 17t16 5h56q13 0 18 -4.5t5 -17.5v-380q0 -149 -80.5 -229t-213.5 -80zM256 758q-3 0 -15 5l-30 17q-10 7 -10 14t8 15
l109 105q15 14 34 14h38q19 0 34 -14l109 -105q8 -8 8 -15t-10 -14l-30 -17q-12 -5 -15 -5q-9 0 -20 11l-95 94l-95 -94q-11 -11 -20 -11z" />
    <glyph glyph-name="udieresis" unicode="&#xfc;" horiz-adv-x="743" 
d="M366 -11q-129 0 -205.5 78t-76.5 228v383q0 13 5 17.5t17 4.5h55q13 0 18 -4.5t5 -17.5v-377q0 -103 48 -160t138 -57t140 57.5t50 158.5v378q0 12 5 17t16 5h56q13 0 18 -4.5t5 -17.5v-380q0 -149 -80.5 -229t-213.5 -80zM278 867q24 0 39 -14.5t15 -38.5q0 -23 -15 -38
t-39 -15t-38.5 15t-14.5 38q0 24 14.5 38.5t38.5 14.5zM463 867q25 0 39.5 -14.5t14.5 -38.5t-14.5 -38.5t-39.5 -14.5q-24 0 -38.5 15t-14.5 38q0 24 14.5 38.5t38.5 14.5z" />
    <glyph glyph-name="yacute" unicode="&#xfd;" horiz-adv-x="603" 
d="M487 675q10 16 17 20.5t23 4.5h59q19 0 19 -11q0 -2 -5 -14l-248 -411v-242q0 -13 -5 -17.5t-17 -4.5h-56q-12 0 -17 4.5t-5 17.5v237l-248 416q-5 12 -5 14q0 11 18 11h62q17 0 24 -4.5t17 -20.5l183 -316zM449 890q0 -8 -11 -16l-150 -108q-14 -8 -18 -8q-6 0 -14 7
l-25 20q-8 8 -8 13q0 6 9 14l144 118q11 8 18 8q8 0 18 -9l29 -24q8 -8 8 -15z" />
    <glyph glyph-name="thorn" unicode="&#xfe;" horiz-adv-x="624" 
d="M200 581h107q138 0 209 -56.5t71 -165.5t-76 -169.5t-216 -60.5h-95q-12 0 -12 -12v-95q0 -13 -5 -17.5t-17 -4.5h-56q-12 0 -17 4.5t-5 17.5v656q0 13 5 17.5t17 4.5h56q12 0 17 -4.5t5 -17.5v-85q0 -12 12 -12zM188 475v-240q0 -12 12 -12h95q90 0 139 34t49 100
q0 67 -46 98t-139 31h-98q-12 0 -12 -11z" />
    <glyph glyph-name="ydieresis" unicode="&#xff;" horiz-adv-x="603" 
d="M487 675q10 16 17 20.5t23 4.5h59q19 0 19 -11q0 -2 -5 -14l-248 -411v-242q0 -13 -5 -17.5t-17 -4.5h-56q-12 0 -17 4.5t-5 17.5v237l-248 416q-5 12 -5 14q0 11 18 11h62q17 0 24 -4.5t17 -20.5l183 -316zM209 867q24 0 39 -14.5t15 -38.5q0 -23 -15 -38t-39 -15
t-38.5 15t-14.5 38q0 24 14.5 38.5t38.5 14.5zM394 867q25 0 39.5 -14.5t14.5 -38.5t-15 -38.5t-39 -14.5t-38.5 15t-14.5 38q0 24 14.5 38.5t38.5 14.5z" />
    <glyph glyph-name="Amacron" unicode="&#x100;" 
d="M480 208h-275q-14 0 -19 -12l-76 -168q-8 -17 -15.5 -22.5t-23.5 -5.5h-51q-21 0 -21 13q0 4 5 17l299 633q14 30 22.5 40t18.5 10t18 -10t22 -40l301 -633q5 -13 5 -17q0 -13 -21 -13h-55q-16 0 -23.5 5.5t-15.5 22.5l-77 168q-4 12 -18 12zM449 302q0 3 -3 9l-104 224
l-103 -224q-3 -6 -3 -10q0 -5 10 -5h192q11 0 11 6zM202 802v36q0 12 4.5 16.5t17.5 4.5h240q13 0 17.5 -4.5t4.5 -16.5v-36q0 -12 -4.5 -16t-17.5 -4h-240q-13 0 -17.5 4t-4.5 16z" />
    <glyph glyph-name="amacron" unicode="&#x101;" 
d="M480 208h-275q-14 0 -19 -12l-76 -168q-8 -17 -15.5 -22.5t-23.5 -5.5h-51q-21 0 -21 13q0 4 5 17l299 633q14 30 22.5 40t18.5 10t18 -10t22 -40l301 -633q5 -13 5 -17q0 -13 -21 -13h-55q-16 0 -23.5 5.5t-15.5 22.5l-77 168q-4 12 -18 12zM449 302q0 3 -3 9l-104 224
l-103 -224q-3 -6 -3 -10q0 -5 10 -5h192q11 0 11 6zM202 802v36q0 12 4.5 16.5t17.5 4.5h240q13 0 17.5 -4.5t4.5 -16.5v-36q0 -12 -4.5 -16t-17.5 -4h-240q-13 0 -17.5 4t-4.5 16z" />
    <glyph glyph-name="Abreve" unicode="&#x102;" 
d="M480 208h-275q-14 0 -19 -12l-76 -168q-8 -17 -15.5 -22.5t-23.5 -5.5h-51q-21 0 -21 13q0 4 5 17l299 633q14 30 22.5 40t18.5 10t18 -10t22 -40l301 -633q5 -13 5 -17q0 -13 -21 -13h-55q-16 0 -23.5 5.5t-15.5 22.5l-77 168q-4 12 -18 12zM449 302q0 3 -3 9l-104 224
l-103 -224q-3 -6 -3 -10q0 -5 10 -5h192q11 0 11 6zM195 894q0 16 14 16h44q8 0 11 -3t5 -12q8 -65 75 -65q32 0 51.5 17t23.5 48q2 9 5 12t11 3h44q14 0 14 -16q0 -59 -38.5 -97.5t-112.5 -38.5q-72 0 -109.5 38t-37.5 98z" />
    <glyph glyph-name="abreve" unicode="&#x103;" 
d="M480 208h-275q-14 0 -19 -12l-76 -168q-8 -17 -15.5 -22.5t-23.5 -5.5h-51q-21 0 -21 13q0 4 5 17l299 633q14 30 22.5 40t18.5 10t18 -10t22 -40l301 -633q5 -13 5 -17q0 -13 -21 -13h-55q-16 0 -23.5 5.5t-15.5 22.5l-77 168q-4 12 -18 12zM449 302q0 3 -3 9l-104 224
l-103 -224q-3 -6 -3 -10q0 -5 10 -5h192q11 0 11 6zM195 894q0 16 14 16h44q8 0 11 -3t5 -12q8 -65 75 -65q32 0 51.5 17t23.5 48q2 9 5 12t11 3h44q14 0 14 -16q0 -59 -38.5 -97.5t-112.5 -38.5q-72 0 -109.5 38t-37.5 98z" />
    <glyph glyph-name="Aogonek" unicode="&#x104;" 
d="M572 -86q0 -24 17 -39t41 -15q29 0 56 15q7 4 12 4q6 0 11 -9l12 -23q3 -6 3 -11q0 -10 -12 -17q-40 -25 -90 -25q-54 0 -88.5 30.5t-34.5 77.5q0 73 80 118l-81 176q-5 12 -18 12h-275q-14 0 -19 -12l-76 -168q-8 -17 -15.5 -22.5t-23.5 -5.5h-51q-21 0 -21 13q0 4 5 17
l299 633q14 30 22.5 40t18.5 10t18 -10t22 -40l301 -633q5 -13 5 -17q0 -13 -21 -13h-33q-64 -34 -64 -86zM449 302q0 3 -3 9l-104 224l-103 -224q-3 -6 -3 -10q0 -5 10 -5h192q11 0 11 6z" />
    <glyph glyph-name="aogonek" unicode="&#x105;" 
d="M572 -86q0 -24 17 -39t41 -15q29 0 56 15q7 4 12 4q6 0 11 -9l12 -23q3 -6 3 -11q0 -10 -12 -17q-40 -25 -90 -25q-54 0 -88.5 30.5t-34.5 77.5q0 73 80 118l-81 176q-5 12 -18 12h-275q-14 0 -19 -12l-76 -168q-8 -17 -15.5 -22.5t-23.5 -5.5h-51q-21 0 -21 13q0 4 5 17
l299 633q14 30 22.5 40t18.5 10t18 -10t22 -40l301 -633q5 -13 5 -17q0 -13 -21 -13h-33q-64 -34 -64 -86zM449 302q0 3 -3 9l-104 224l-103 -224q-3 -6 -3 -10q0 -5 10 -5h192q11 0 11 6z" />
    <glyph glyph-name="Cacute" unicode="&#x106;" horiz-adv-x="701" 
d="M607 156q11 9 17 9q7 0 15 -10l29 -40q5 -7 5 -14t-12 -18q-111 -94 -259 -94q-147 -3 -253 102t-103 256q-2 153 104 259.5t258 104.5q143 0 254 -93q10 -7 10 -15q0 -7 -6 -16l-29 -39q-8 -11 -16 -11q-6 0 -17 8q-92 71 -198 71q-108 0 -182 -76t-74 -191
q-2 -111 73.5 -189t182.5 -76q112 0 201 72zM535 890q0 -8 -11 -16l-150 -108q-14 -8 -18 -8q-6 0 -14 7l-25 20q-8 8 -8 13q0 6 9 14l144 118q11 8 18 8q8 0 18 -9l29 -24q8 -8 8 -15z" />
    <glyph glyph-name="cacute" unicode="&#x107;" horiz-adv-x="701" 
d="M607 156q11 9 17 9q7 0 15 -10l29 -40q5 -7 5 -14t-12 -18q-111 -94 -259 -94q-147 -3 -253 102t-103 256q-2 153 104 259.5t258 104.5q143 0 254 -93q10 -7 10 -15q0 -7 -6 -16l-29 -39q-8 -11 -16 -11q-6 0 -17 8q-92 71 -198 71q-108 0 -182 -76t-74 -191
q-2 -111 73.5 -189t182.5 -76q112 0 201 72zM535 890q0 -8 -11 -16l-150 -108q-14 -8 -18 -8q-6 0 -14 7l-25 20q-8 8 -8 13q0 6 9 14l144 118q11 8 18 8q8 0 18 -9l29 -24q8 -8 8 -15z" />
    <glyph glyph-name="Ccircumflex" unicode="&#x108;" horiz-adv-x="701" 
d="M607 156q11 9 17 9q7 0 15 -10l29 -40q5 -7 5 -14t-12 -18q-111 -94 -259 -94q-147 -3 -253 102t-103 256q-2 153 104 259.5t258 104.5q143 0 254 -93q10 -7 10 -15q0 -7 -6 -16l-29 -39q-8 -11 -16 -11q-6 0 -17 8q-92 71 -198 71q-108 0 -182 -76t-74 -191
q-2 -111 73.5 -189t182.5 -76q112 0 201 72zM273 758q-3 0 -15 5l-30 17q-10 7 -10 14t8 15l109 105q15 14 34 14h38q19 0 34 -14l109 -105q8 -8 8 -15t-10 -14l-30 -17q-12 -5 -15 -5q-9 0 -20 11l-95 94l-95 -94q-11 -11 -20 -11z" />
    <glyph glyph-name="ccircumflex" unicode="&#x109;" horiz-adv-x="701" 
d="M607 156q11 9 17 9q7 0 15 -10l29 -40q5 -7 5 -14t-12 -18q-111 -94 -259 -94q-147 -3 -253 102t-103 256q-2 153 104 259.5t258 104.5q143 0 254 -93q10 -7 10 -15q0 -7 -6 -16l-29 -39q-8 -11 -16 -11q-6 0 -17 8q-92 71 -198 71q-108 0 -182 -76t-74 -191
q-2 -111 73.5 -189t182.5 -76q112 0 201 72zM273 758q-3 0 -15 5l-30 17q-10 7 -10 14t8 15l109 105q15 14 34 14h38q19 0 34 -14l109 -105q8 -8 8 -15t-10 -14l-30 -17q-12 -5 -15 -5q-9 0 -20 11l-95 94l-95 -94q-11 -11 -20 -11z" />
    <glyph glyph-name="Cdotaccent" unicode="&#x10a;" horiz-adv-x="701" 
d="M607 156q11 9 17 9q7 0 15 -10l29 -40q5 -7 5 -14t-12 -18q-111 -94 -259 -94q-147 -3 -253 102t-103 256q-2 153 104 259.5t258 104.5q143 0 254 -93q10 -7 10 -15q0 -7 -6 -16l-29 -39q-8 -11 -16 -11q-6 0 -17 8q-92 71 -198 71q-108 0 -182 -76t-74 -191
q-2 -111 73.5 -189t182.5 -76q112 0 201 72zM388 871q26 0 42.5 -16t16.5 -41t-16.5 -40.5t-42.5 -15.5q-25 0 -42 16t-17 40q0 25 17 41t42 16z" />
    <glyph glyph-name="cdotaccent" unicode="&#x10b;" horiz-adv-x="701" 
d="M607 156q11 9 17 9q7 0 15 -10l29 -40q5 -7 5 -14t-12 -18q-111 -94 -259 -94q-147 -3 -253 102t-103 256q-2 153 104 259.5t258 104.5q143 0 254 -93q10 -7 10 -15q0 -7 -6 -16l-29 -39q-8 -11 -16 -11q-6 0 -17 8q-92 71 -198 71q-108 0 -182 -76t-74 -191
q-2 -111 73.5 -189t182.5 -76q112 0 201 72zM388 871q26 0 42.5 -16t16.5 -41t-16.5 -40.5t-42.5 -15.5q-25 0 -42 16t-17 40q0 25 17 41t42 16z" />
    <glyph glyph-name="Ccaron" unicode="&#x10c;" horiz-adv-x="701" 
d="M607 156q11 9 17 9q7 0 15 -10l29 -40q5 -7 5 -14t-12 -18q-111 -94 -259 -94q-147 -3 -253 102t-103 256q-2 153 104 259.5t258 104.5q143 0 254 -93q10 -7 10 -15q0 -7 -6 -16l-29 -39q-8 -11 -16 -11q-6 0 -17 8q-92 71 -198 71q-108 0 -182 -76t-74 -191
q-2 -111 73.5 -189t182.5 -76q112 0 201 72zM503 928q3 0 15 -5l30 -18q10 -6 10 -13t-8 -15l-109 -105q-15 -14 -34 -14h-38q-19 0 -34 14l-109 105q-8 8 -8 15t10 13l30 18q12 5 15 5q9 0 20 -11l95 -94l95 94q11 11 20 11z" />
    <glyph glyph-name="ccaron" unicode="&#x10d;" horiz-adv-x="701" 
d="M607 156q11 9 17 9q7 0 15 -10l29 -40q5 -7 5 -14t-12 -18q-111 -94 -259 -94q-147 -3 -253 102t-103 256q-2 153 104 259.5t258 104.5q143 0 254 -93q10 -7 10 -15q0 -7 -6 -16l-29 -39q-8 -11 -16 -11q-6 0 -17 8q-92 71 -198 71q-108 0 -182 -76t-74 -191
q-2 -111 73.5 -189t182.5 -76q112 0 201 72zM503 928q3 0 15 -5l30 -18q10 -6 10 -13t-8 -15l-109 -105q-15 -14 -34 -14h-38q-19 0 -34 14l-109 105q-8 8 -8 15t10 13l30 18q12 5 15 5q9 0 20 -11l95 -94l95 94q11 11 20 11z" />
    <glyph glyph-name="Dcaron" unicode="&#x10e;" horiz-adv-x="742" 
d="M110 700h208q174 0 276 -93t102 -249q0 -163 -106 -260.5t-286 -97.5h-194q-12 0 -17 4.5t-5 17.5v656q0 13 5 17.5t17 4.5zM188 594v-488q0 -11 12 -11h106q135 0 210.5 69t75.5 190q0 114 -75.5 182.5t-206.5 68.5h-110q-12 0 -12 -11zM468 928q3 0 15 -5l30 -18
q10 -6 10 -13t-8 -15l-109 -105q-15 -14 -34 -14h-38q-19 0 -34 14l-109 105q-8 8 -8 15t10 13l30 18q12 5 15 5q9 0 20 -11l95 -94l95 94q11 11 20 11z" />
    <glyph glyph-name="dcaron" unicode="&#x10f;" horiz-adv-x="742" 
d="M110 700h208q174 0 276 -93t102 -249q0 -163 -106 -260.5t-286 -97.5h-194q-12 0 -17 4.5t-5 17.5v656q0 13 5 17.5t17 4.5zM188 594v-488q0 -11 12 -11h106q135 0 210.5 69t75.5 190q0 114 -75.5 182.5t-206.5 68.5h-110q-12 0 -12 -11zM468 928q3 0 15 -5l30 -18
q10 -6 10 -13t-8 -15l-109 -105q-15 -14 -34 -14h-38q-19 0 -34 14l-109 105q-8 8 -8 15t10 13l30 18q12 5 15 5q9 0 20 -11l95 -94l95 94q11 11 20 11z" />
    <glyph glyph-name="Dcroat" unicode="&#x110;" horiz-adv-x="744" 
d="M78 310h-42q-13 0 -17.5 4t-4.5 16v44q0 12 4.5 16t17.5 4h42q10 0 10 10v274q0 13 5 17.5t17 4.5h208q174 0 276 -93t102 -249q0 -163 -106 -260.5t-286 -97.5h-194q-12 0 -17 4.5t-5 17.5v278q0 10 -10 10zM188 594v-190q0 -10 10 -10h155q13 0 17.5 -4t4.5 -16v-44
q0 -12 -4.5 -16t-17.5 -4h-155q-10 0 -10 -10v-194q0 -11 12 -11h106q135 0 210.5 69t75.5 190q0 114 -75.5 182.5t-206.5 68.5h-110q-12 0 -12 -11z" />
    <glyph glyph-name="dslash" unicode="&#x111;" horiz-adv-x="744" 
d="M78 310h-42q-13 0 -17.5 4t-4.5 16v44q0 12 4.5 16t17.5 4h42q10 0 10 10v274q0 13 5 17.5t17 4.5h208q174 0 276 -93t102 -249q0 -163 -106 -260.5t-286 -97.5h-194q-12 0 -17 4.5t-5 17.5v278q0 10 -10 10zM188 594v-190q0 -10 10 -10h155q13 0 17.5 -4t4.5 -16v-44
q0 -12 -4.5 -16t-17.5 -4h-155q-10 0 -10 -10v-194q0 -11 12 -11h106q135 0 210.5 69t75.5 190q0 114 -75.5 182.5t-206.5 68.5h-110q-12 0 -12 -11z" />
    <glyph glyph-name="Emacron" unicode="&#x112;" horiz-adv-x="565" 
d="M511 73v-51q0 -13 -5 -17.5t-17 -4.5h-379q-12 0 -17 4.5t-5 17.5v656q0 13 5 17.5t17 4.5h378q12 0 17 -4.5t5 -17.5v-51q0 -13 -5 -17.5t-17 -4.5h-288q-12 0 -12 -11v-183q0 -12 12 -12h254q12 0 17 -4.5t5 -17.5v-50q0 -22 -22 -22h-254q-12 0 -12 -11v-188
q0 -11 12 -11h289q12 0 17 -4.5t5 -17.5zM157 802v36q0 12 4.5 16.5t17.5 4.5h240q13 0 17.5 -4.5t4.5 -16.5v-36q0 -12 -4.5 -16t-17.5 -4h-240q-13 0 -17.5 4t-4.5 16z" />
    <glyph glyph-name="emacron" unicode="&#x113;" horiz-adv-x="565" 
d="M511 73v-51q0 -13 -5 -17.5t-17 -4.5h-379q-12 0 -17 4.5t-5 17.5v656q0 13 5 17.5t17 4.5h378q12 0 17 -4.5t5 -17.5v-51q0 -13 -5 -17.5t-17 -4.5h-288q-12 0 -12 -11v-183q0 -12 12 -12h254q12 0 17 -4.5t5 -17.5v-50q0 -22 -22 -22h-254q-12 0 -12 -11v-188
q0 -11 12 -11h289q12 0 17 -4.5t5 -17.5zM157 802v36q0 12 4.5 16.5t17.5 4.5h240q13 0 17.5 -4.5t4.5 -16.5v-36q0 -12 -4.5 -16t-17.5 -4h-240q-13 0 -17.5 4t-4.5 16z" />
    <glyph glyph-name="Ebreve" unicode="&#x114;" horiz-adv-x="565" 
d="M511 73v-51q0 -13 -5 -17.5t-17 -4.5h-379q-12 0 -17 4.5t-5 17.5v656q0 13 5 17.5t17 4.5h378q12 0 17 -4.5t5 -17.5v-51q0 -13 -5 -17.5t-17 -4.5h-288q-12 0 -12 -11v-183q0 -12 12 -12h254q12 0 17 -4.5t5 -17.5v-50q0 -22 -22 -22h-254q-12 0 -12 -11v-188
q0 -11 12 -11h289q12 0 17 -4.5t5 -17.5zM150 894q0 16 14 16h44q8 0 11 -3t5 -12q8 -65 75 -65q32 0 51.5 17t23.5 48q2 9 5 12t11 3h44q14 0 14 -16q0 -59 -38.5 -97.5t-112.5 -38.5q-72 0 -109.5 38t-37.5 98z" />
    <glyph glyph-name="ebreve" unicode="&#x115;" horiz-adv-x="565" 
d="M511 73v-51q0 -13 -5 -17.5t-17 -4.5h-379q-12 0 -17 4.5t-5 17.5v656q0 13 5 17.5t17 4.5h378q12 0 17 -4.5t5 -17.5v-51q0 -13 -5 -17.5t-17 -4.5h-288q-12 0 -12 -11v-183q0 -12 12 -12h254q12 0 17 -4.5t5 -17.5v-50q0 -22 -22 -22h-254q-12 0 -12 -11v-188
q0 -11 12 -11h289q12 0 17 -4.5t5 -17.5zM150 894q0 16 14 16h44q8 0 11 -3t5 -12q8 -65 75 -65q32 0 51.5 17t23.5 48q2 9 5 12t11 3h44q14 0 14 -16q0 -59 -38.5 -97.5t-112.5 -38.5q-72 0 -109.5 38t-37.5 98z" />
    <glyph glyph-name="Edotaccent" unicode="&#x116;" horiz-adv-x="565" 
d="M511 73v-51q0 -13 -5 -17.5t-17 -4.5h-379q-12 0 -17 4.5t-5 17.5v656q0 13 5 17.5t17 4.5h378q12 0 17 -4.5t5 -17.5v-51q0 -13 -5 -17.5t-17 -4.5h-288q-12 0 -12 -11v-183q0 -12 12 -12h254q12 0 17 -4.5t5 -17.5v-50q0 -22 -22 -22h-254q-12 0 -12 -11v-188
q0 -11 12 -11h289q12 0 17 -4.5t5 -17.5zM299 871q26 0 42.5 -16t16.5 -41t-16.5 -40.5t-42.5 -15.5q-25 0 -42 16t-17 40q0 25 17 41t42 16z" />
    <glyph glyph-name="edotaccent" unicode="&#x117;" horiz-adv-x="565" 
d="M511 73v-51q0 -13 -5 -17.5t-17 -4.5h-379q-12 0 -17 4.5t-5 17.5v656q0 13 5 17.5t17 4.5h378q12 0 17 -4.5t5 -17.5v-51q0 -13 -5 -17.5t-17 -4.5h-288q-12 0 -12 -11v-183q0 -12 12 -12h254q12 0 17 -4.5t5 -17.5v-50q0 -22 -22 -22h-254q-12 0 -12 -11v-188
q0 -11 12 -11h289q12 0 17 -4.5t5 -17.5zM299 871q26 0 42.5 -16t16.5 -41t-16.5 -40.5t-42.5 -15.5q-25 0 -42 16t-17 40q0 25 17 41t42 16z" />
    <glyph glyph-name="Eogonek" unicode="&#x118;" horiz-adv-x="565" 
d="M511 73v-51q0 -13 -5 -17.5t-17 -4.5h-82q-64 -34 -64 -86q0 -24 17 -39t41 -15q29 0 56 15q7 4 12 4q7 0 11 -9l12 -23q3 -6 3 -11q0 -10 -12 -17q-40 -25 -90 -25q-54 0 -88.5 30.5t-34.5 77.5q0 55 51 98h-211q-12 0 -17 4.5t-5 17.5v656q0 13 5 17.5t17 4.5h378
q12 0 17 -4.5t5 -17.5v-51q0 -13 -5 -17.5t-17 -4.5h-288q-12 0 -12 -11v-183q0 -12 12 -12h254q12 0 17 -4.5t5 -17.5v-50q0 -22 -22 -22h-254q-12 0 -12 -11v-188q0 -11 12 -11h289q12 0 17 -4.5t5 -17.5z" />
    <glyph glyph-name="eogonek" unicode="&#x119;" horiz-adv-x="565" 
d="M511 73v-51q0 -13 -5 -17.5t-17 -4.5h-82q-64 -34 -64 -86q0 -24 17 -39t41 -15q29 0 56 15q7 4 12 4q7 0 11 -9l12 -23q3 -6 3 -11q0 -10 -12 -17q-40 -25 -90 -25q-54 0 -88.5 30.5t-34.5 77.5q0 55 51 98h-211q-12 0 -17 4.5t-5 17.5v656q0 13 5 17.5t17 4.5h378
q12 0 17 -4.5t5 -17.5v-51q0 -13 -5 -17.5t-17 -4.5h-288q-12 0 -12 -11v-183q0 -12 12 -12h254q12 0 17 -4.5t5 -17.5v-50q0 -22 -22 -22h-254q-12 0 -12 -11v-188q0 -11 12 -11h289q12 0 17 -4.5t5 -17.5z" />
    <glyph glyph-name="Ecaron" unicode="&#x11a;" horiz-adv-x="565" 
d="M511 73v-51q0 -13 -5 -17.5t-17 -4.5h-379q-12 0 -17 4.5t-5 17.5v656q0 13 5 17.5t17 4.5h378q12 0 17 -4.5t5 -17.5v-51q0 -13 -5 -17.5t-17 -4.5h-288q-12 0 -12 -11v-183q0 -12 12 -12h254q12 0 17 -4.5t5 -17.5v-50q0 -22 -22 -22h-254q-12 0 -12 -11v-188
q0 -11 12 -11h289q12 0 17 -4.5t5 -17.5zM414 928q3 0 15 -5l30 -18q10 -6 10 -13t-8 -15l-109 -105q-15 -14 -34 -14h-38q-19 0 -34 14l-109 105q-8 8 -8 15t10 13l30 18q12 5 15 5q9 0 20 -11l95 -94l95 94q11 11 20 11z" />
    <glyph glyph-name="ecaron" unicode="&#x11b;" horiz-adv-x="565" 
d="M511 73v-51q0 -13 -5 -17.5t-17 -4.5h-379q-12 0 -17 4.5t-5 17.5v656q0 13 5 17.5t17 4.5h378q12 0 17 -4.5t5 -17.5v-51q0 -13 -5 -17.5t-17 -4.5h-288q-12 0 -12 -11v-183q0 -12 12 -12h254q12 0 17 -4.5t5 -17.5v-50q0 -22 -22 -22h-254q-12 0 -12 -11v-188
q0 -11 12 -11h289q12 0 17 -4.5t5 -17.5zM414 928q3 0 15 -5l30 -18q10 -6 10 -13t-8 -15l-109 -105q-15 -14 -34 -14h-38q-19 0 -34 14l-109 105q-8 8 -8 15t10 13l30 18q12 5 15 5q9 0 20 -11l95 -94l95 94q11 11 20 11z" />
    <glyph glyph-name="Gcircumflex" unicode="&#x11c;" horiz-adv-x="746" 
d="M661 51q-118 -62 -260 -62q-147 -2 -252 100t-103 256q-2 159 106 263.5t262 102.5q140 0 249 -80q13 -9 13 -18q0 -5 -7 -15l-28 -40q-7 -10 -16 -10q-7 0 -16 6q-97 62 -197 62q-115 0 -188.5 -75t-73.5 -192t74.5 -191.5t182.5 -74.5q92 0 158 29q14 6 14 19v178
q0 13 5 17.5t17 4.5h56q12 0 17 -4.5t5 -17.5v-229q0 -21 -18 -29zM273 758q-3 0 -15 5l-30 17q-10 7 -10 14t8 15l109 105q15 14 34 14h38q19 0 34 -14l109 -105q8 -8 8 -15t-10 -14l-30 -17q-12 -5 -15 -5q-9 0 -20 11l-95 94l-95 -94q-11 -11 -20 -11z" />
    <glyph glyph-name="gcircumflex" unicode="&#x11d;" horiz-adv-x="746" 
d="M661 51q-118 -62 -260 -62q-147 -2 -252 100t-103 256q-2 159 106 263.5t262 102.5q140 0 249 -80q13 -9 13 -18q0 -5 -7 -15l-28 -40q-7 -10 -16 -10q-7 0 -16 6q-97 62 -197 62q-115 0 -188.5 -75t-73.5 -192t74.5 -191.5t182.5 -74.5q92 0 158 29q14 6 14 19v178
q0 13 5 17.5t17 4.5h56q12 0 17 -4.5t5 -17.5v-229q0 -21 -18 -29zM273 758q-3 0 -15 5l-30 17q-10 7 -10 14t8 15l109 105q15 14 34 14h38q19 0 34 -14l109 -105q8 -8 8 -15t-10 -14l-30 -17q-12 -5 -15 -5q-9 0 -20 11l-95 94l-95 -94q-11 -11 -20 -11z" />
    <glyph glyph-name="Gbreve" unicode="&#x11e;" horiz-adv-x="746" 
d="M661 51q-118 -62 -260 -62q-147 -2 -252 100t-103 256q-2 159 106 263.5t262 102.5q140 0 249 -80q13 -9 13 -18q0 -5 -7 -15l-28 -40q-7 -10 -16 -10q-7 0 -16 6q-97 62 -197 62q-115 0 -188.5 -75t-73.5 -192t74.5 -191.5t182.5 -74.5q92 0 158 29q14 6 14 19v178
q0 13 5 17.5t17 4.5h56q12 0 17 -4.5t5 -17.5v-229q0 -21 -18 -29zM239 894q0 16 14 16h44q8 0 11 -3t5 -12q8 -65 75 -65q32 0 51.5 17t23.5 48q2 9 5 12t11 3h44q14 0 14 -16q0 -59 -38.5 -97.5t-112.5 -38.5q-72 0 -109.5 38t-37.5 98z" />
    <glyph glyph-name="gbreve" unicode="&#x11f;" horiz-adv-x="746" 
d="M661 51q-118 -62 -260 -62q-147 -2 -252 100t-103 256q-2 159 106 263.5t262 102.5q140 0 249 -80q13 -9 13 -18q0 -5 -7 -15l-28 -40q-7 -10 -16 -10q-7 0 -16 6q-97 62 -197 62q-115 0 -188.5 -75t-73.5 -192t74.5 -191.5t182.5 -74.5q92 0 158 29q14 6 14 19v178
q0 13 5 17.5t17 4.5h56q12 0 17 -4.5t5 -17.5v-229q0 -21 -18 -29zM239 894q0 16 14 16h44q8 0 11 -3t5 -12q8 -65 75 -65q32 0 51.5 17t23.5 48q2 9 5 12t11 3h44q14 0 14 -16q0 -59 -38.5 -97.5t-112.5 -38.5q-72 0 -109.5 38t-37.5 98z" />
    <glyph glyph-name="Gdotaccent" unicode="&#x120;" horiz-adv-x="746" 
d="M661 51q-118 -62 -260 -62q-147 -2 -252 100t-103 256q-2 159 106 263.5t262 102.5q140 0 249 -80q13 -9 13 -18q0 -5 -7 -15l-28 -40q-7 -10 -16 -10q-7 0 -16 6q-97 62 -197 62q-115 0 -188.5 -75t-73.5 -192t74.5 -191.5t182.5 -74.5q92 0 158 29q14 6 14 19v178
q0 13 5 17.5t17 4.5h56q12 0 17 -4.5t5 -17.5v-229q0 -21 -18 -29zM388 871q26 0 42.5 -16t16.5 -41t-16.5 -40.5t-42.5 -15.5q-25 0 -42 16t-17 40q0 25 17 41t42 16z" />
    <glyph glyph-name="gdotaccent" unicode="&#x121;" horiz-adv-x="746" 
d="M661 51q-118 -62 -260 -62q-147 -2 -252 100t-103 256q-2 159 106 263.5t262 102.5q140 0 249 -80q13 -9 13 -18q0 -5 -7 -15l-28 -40q-7 -10 -16 -10q-7 0 -16 6q-97 62 -197 62q-115 0 -188.5 -75t-73.5 -192t74.5 -191.5t182.5 -74.5q92 0 158 29q14 6 14 19v178
q0 13 5 17.5t17 4.5h56q12 0 17 -4.5t5 -17.5v-229q0 -21 -18 -29zM388 871q26 0 42.5 -16t16.5 -41t-16.5 -40.5t-42.5 -15.5q-25 0 -42 16t-17 40q0 25 17 41t42 16z" />
    <glyph glyph-name="Gcommaaccent" unicode="&#x122;" horiz-adv-x="746" 
d="M661 51q-118 -62 -260 -62q-147 -2 -252 100t-103 256q-2 159 106 263.5t262 102.5q140 0 249 -80q13 -9 13 -18q0 -5 -7 -15l-28 -40q-7 -10 -16 -10q-7 0 -16 6q-97 62 -197 62q-115 0 -188.5 -75t-73.5 -192t74.5 -191.5t182.5 -74.5q92 0 158 29q14 6 14 19v178
q0 13 5 17.5t17 4.5h56q12 0 17 -4.5t5 -17.5v-229q0 -21 -18 -29zM451 -99q0 -31 -26 -79l-24 -47q-10 -16 -29 -16h-31q-16 0 -16 10q0 4 4 11l38 69q-41 9 -41 54q0 26 18 42.5t45 16.5t44.5 -17t17.5 -44z" />
    <glyph glyph-name="gcommaaccent" unicode="&#x123;" horiz-adv-x="746" 
d="M661 51q-118 -62 -260 -62q-147 -2 -252 100t-103 256q-2 159 106 263.5t262 102.5q140 0 249 -80q13 -9 13 -18q0 -5 -7 -15l-28 -40q-7 -10 -16 -10q-7 0 -16 6q-97 62 -197 62q-115 0 -188.5 -75t-73.5 -192t74.5 -191.5t182.5 -74.5q92 0 158 29q14 6 14 19v178
q0 13 5 17.5t17 4.5h56q12 0 17 -4.5t5 -17.5v-229q0 -21 -18 -29zM451 -99q0 -31 -26 -79l-24 -47q-10 -16 -29 -16h-31q-16 0 -16 10q0 4 4 11l38 69q-41 9 -41 54q0 26 18 42.5t45 16.5t44.5 -17t17.5 -44z" />
    <glyph glyph-name="Hcircumflex" unicode="&#x124;" horiz-adv-x="731" 
d="M621 0h-56q-12 0 -17 4.5t-5 17.5v279q0 11 -12 11h-331q-12 0 -12 -11v-279q0 -13 -5 -17.5t-17 -4.5h-56q-12 0 -17 4.5t-5 17.5v656q0 13 5 17.5t17 4.5h56q12 0 17 -4.5t5 -17.5v-260q0 -12 12 -12h331q12 0 12 12v260q0 13 5 17.5t17 4.5h56q12 0 17 -4.5t5 -17.5
v-656q0 -13 -5 -17.5t-17 -4.5zM250 758q-3 0 -15 5l-30 17q-10 7 -10 14t8 15l109 105q15 14 34 14h38q19 0 34 -14l109 -105q8 -8 8 -15t-10 -14l-30 -17q-12 -5 -15 -5q-9 0 -20 11l-95 94l-95 -94q-11 -11 -20 -11z" />
    <glyph glyph-name="hcircumflex" unicode="&#x125;" horiz-adv-x="731" 
d="M621 0h-56q-12 0 -17 4.5t-5 17.5v279q0 11 -12 11h-331q-12 0 -12 -11v-279q0 -13 -5 -17.5t-17 -4.5h-56q-12 0 -17 4.5t-5 17.5v656q0 13 5 17.5t17 4.5h56q12 0 17 -4.5t5 -17.5v-260q0 -12 12 -12h331q12 0 12 12v260q0 13 5 17.5t17 4.5h56q12 0 17 -4.5t5 -17.5
v-656q0 -13 -5 -17.5t-17 -4.5zM250 758q-3 0 -15 5l-30 17q-10 7 -10 14t8 15l109 105q15 14 34 14h38q19 0 34 -14l109 -105q8 -8 8 -15t-10 -14l-30 -17q-12 -5 -15 -5q-9 0 -20 11l-95 94l-95 -94q-11 -11 -20 -11z" />
    <glyph glyph-name="Hbar" unicode="&#x126;" horiz-adv-x="731" 
d="M78 512h-42q-13 0 -17.5 4t-4.5 17v40q0 12 4.5 16t17.5 4h42q10 0 10 10v75q0 13 5 17.5t17 4.5h56q12 0 17 -4.5t5 -17.5v-75q0 -10 10 -10h335q10 0 10 10v75q0 13 5 17.5t17 4.5h56q12 0 17 -4.5t5 -17.5v-75q0 -10 10 -10h42q13 0 17.5 -4t4.5 -16v-40
q0 -13 -4.5 -17t-17.5 -4h-42q-10 0 -10 -10v-480q0 -13 -5 -17.5t-17 -4.5h-56q-12 0 -17 4.5t-5 17.5v278q0 12 -12 12h-331q-12 0 -12 -12v-278q0 -13 -5 -17.5t-17 -4.5h-56q-12 0 -17 4.5t-5 17.5v480q0 10 -10 10zM543 412v90q0 10 -10 10h-335q-10 0 -10 -10v-90
q0 -12 12 -12h331q12 0 12 12z" />
    <glyph glyph-name="hbar" unicode="&#x127;" horiz-adv-x="731" 
d="M78 512h-42q-13 0 -17.5 4t-4.5 17v40q0 12 4.5 16t17.5 4h42q10 0 10 10v75q0 13 5 17.5t17 4.5h56q12 0 17 -4.5t5 -17.5v-75q0 -10 10 -10h335q10 0 10 10v75q0 13 5 17.5t17 4.5h56q12 0 17 -4.5t5 -17.5v-75q0 -10 10 -10h42q13 0 17.5 -4t4.5 -16v-40
q0 -13 -4.5 -17t-17.5 -4h-42q-10 0 -10 -10v-480q0 -13 -5 -17.5t-17 -4.5h-56q-12 0 -17 4.5t-5 17.5v278q0 12 -12 12h-331q-12 0 -12 -12v-278q0 -13 -5 -17.5t-17 -4.5h-56q-12 0 -17 4.5t-5 17.5v480q0 10 -10 10zM543 412v90q0 10 -10 10h-335q-10 0 -10 -10v-90
q0 -12 12 -12h331q12 0 12 12z" />
    <glyph glyph-name="Itilde" unicode="&#x128;" horiz-adv-x="276" 
d="M166 0h-56q-12 0 -17 4.5t-5 17.5v656q0 13 5 17.5t17 4.5h56q12 0 17 -4.5t5 -17.5v-656q0 -13 -5 -17.5t-17 -4.5zM124 788q-36 18 -58 18q-34 0 -63 -35q-6 -7 -12 -7q-5 0 -11 6l-24 30q-4 4 -4 10q0 4 6 12q44 56 110 56q33 0 84 -24q36 -18 58 -18q34 0 63 35
q6 7 12 7q5 0 11 -6l24 -30q4 -4 4 -10q0 -4 -6 -13q-44 -55 -110 -55q-36 0 -84 24z" />
    <glyph glyph-name="itilde" unicode="&#x129;" horiz-adv-x="276" 
d="M166 0h-56q-12 0 -17 4.5t-5 17.5v656q0 13 5 17.5t17 4.5h56q12 0 17 -4.5t5 -17.5v-656q0 -13 -5 -17.5t-17 -4.5zM124 788q-36 18 -58 18q-34 0 -63 -35q-6 -7 -12 -7q-5 0 -11 6l-24 30q-4 4 -4 10q0 4 6 12q44 56 110 56q33 0 84 -24q36 -18 58 -18q34 0 63 35
q6 7 12 7q5 0 11 -6l24 -30q4 -4 4 -10q0 -4 -6 -13q-44 -55 -110 -55q-36 0 -84 24z" />
    <glyph glyph-name="Imacron" unicode="&#x12a;" horiz-adv-x="276" 
d="M166 0h-56q-12 0 -17 4.5t-5 17.5v656q0 13 5 17.5t17 4.5h56q12 0 17 -4.5t5 -17.5v-656q0 -13 -5 -17.5t-17 -4.5zM-4 802v36q0 12 4.5 16.5t17.5 4.5h240q13 0 17.5 -4.5t4.5 -16.5v-36q0 -12 -4.5 -16t-17.5 -4h-240q-13 0 -17.5 4t-4.5 16z" />
    <glyph glyph-name="imacron" unicode="&#x12b;" horiz-adv-x="276" 
d="M166 0h-56q-12 0 -17 4.5t-5 17.5v656q0 13 5 17.5t17 4.5h56q12 0 17 -4.5t5 -17.5v-656q0 -13 -5 -17.5t-17 -4.5zM-4 802v36q0 12 4.5 16.5t17.5 4.5h240q13 0 17.5 -4.5t4.5 -16.5v-36q0 -12 -4.5 -16t-17.5 -4h-240q-13 0 -17.5 4t-4.5 16z" />
    <glyph glyph-name="Ibreve" unicode="&#x12c;" horiz-adv-x="276" 
d="M166 0h-56q-12 0 -17 4.5t-5 17.5v656q0 13 5 17.5t17 4.5h56q12 0 17 -4.5t5 -17.5v-656q0 -13 -5 -17.5t-17 -4.5zM-11 894q0 16 14 16h44q8 0 11 -3t5 -12q8 -65 75 -65q32 0 51.5 17t23.5 48q2 9 5 12t11 3h44q14 0 14 -16q0 -59 -38.5 -97.5t-112.5 -38.5
q-72 0 -109.5 38t-37.5 98z" />
    <glyph glyph-name="ibreve" unicode="&#x12d;" horiz-adv-x="276" 
d="M166 0h-56q-12 0 -17 4.5t-5 17.5v656q0 13 5 17.5t17 4.5h56q12 0 17 -4.5t5 -17.5v-656q0 -13 -5 -17.5t-17 -4.5zM-11 894q0 16 14 16h44q8 0 11 -3t5 -12q8 -65 75 -65q32 0 51.5 17t23.5 48q2 9 5 12t11 3h44q14 0 14 -16q0 -59 -38.5 -97.5t-112.5 -38.5
q-72 0 -109.5 38t-37.5 98z" />
    <glyph glyph-name="Iogonek" unicode="&#x12e;" horiz-adv-x="276" 
d="M166 0h-9q-64 -34 -64 -86q0 -24 17 -39t41 -15q29 0 56 15q7 4 12 4q7 0 11 -9l12 -23q3 -6 3 -11q0 -10 -12 -17q-40 -25 -90 -25q-54 0 -88.5 30.5t-34.5 77.5q0 65 68 111v665q0 13 5 17.5t17 4.5h56q12 0 17 -4.5t5 -17.5v-656q0 -13 -5 -17.5t-17 -4.5z" />
    <glyph glyph-name="iogonek" unicode="&#x12f;" horiz-adv-x="276" 
d="M166 0h-9q-64 -34 -64 -86q0 -24 17 -39t41 -15q29 0 56 15q7 4 12 4q7 0 11 -9l12 -23q3 -6 3 -11q0 -10 -12 -17q-40 -25 -90 -25q-54 0 -88.5 30.5t-34.5 77.5q0 65 68 111v665q0 13 5 17.5t17 4.5h56q12 0 17 -4.5t5 -17.5v-656q0 -13 -5 -17.5t-17 -4.5z" />
    <glyph glyph-name="Idot" unicode="&#x130;" horiz-adv-x="276" 
d="M166 0h-56q-12 0 -17 4.5t-5 17.5v656q0 13 5 17.5t17 4.5h56q12 0 17 -4.5t5 -17.5v-656q0 -13 -5 -17.5t-17 -4.5zM138 871q26 0 42.5 -16t16.5 -41t-16.5 -40.5t-42.5 -15.5q-25 0 -42 16t-17 40q0 25 17 41t42 16z" />
    <glyph glyph-name="dotlessi" unicode="&#x131;" horiz-adv-x="276" 
d="M166 0h-56q-12 0 -17 4.5t-5 17.5v656q0 13 5 17.5t17 4.5h56q12 0 17 -4.5t5 -17.5v-656q0 -13 -5 -17.5t-17 -4.5z" />
    <glyph glyph-name="IJ" unicode="&#x132;" horiz-adv-x="560" 
d="M166 0h-56q-12 0 -17 4.5t-5 17.5v656q0 13 5 17.5t17 4.5h56q12 0 17 -4.5t5 -17.5v-656q0 -13 -5 -17.5t-17 -4.5zM237 -102q3 0 20 -1.5t25 -1.5q45 0 70 36t25 104v643q0 13 5 17.5t17 4.5h56q12 0 17 -4.5t5 -17.5v-651q0 -227 -187 -227q-40 0 -60 6q-17 4 -16 24
l6 50q1 18 17 18z" />
    <glyph glyph-name="ij" unicode="&#x133;" horiz-adv-x="560" 
d="M166 0h-56q-12 0 -17 4.5t-5 17.5v656q0 13 5 17.5t17 4.5h56q12 0 17 -4.5t5 -17.5v-656q0 -13 -5 -17.5t-17 -4.5zM237 -102q3 0 20 -1.5t25 -1.5q45 0 70 36t25 104v643q0 13 5 17.5t17 4.5h56q12 0 17 -4.5t5 -17.5v-651q0 -227 -187 -227q-40 0 -60 6q-17 4 -16 24
l6 50q1 18 17 18z" />
    <glyph glyph-name="Jcircumflex" unicode="&#x134;" horiz-adv-x="283" 
d="M-40 -102q3 0 20 -1.5t25 -1.5q45 0 70 36t25 104v643q0 13 5 17.5t17 4.5h56q12 0 17 -4.5t5 -17.5v-651q0 -227 -187 -227q-41 0 -60 6q-17 4 -16 24l6 50q1 18 17 18zM35 758q-3 0 -15 5l-30 17q-10 7 -10 14t8 15l109 105q15 14 34 14h38q19 0 34 -14l109 -105
q8 -8 8 -15t-10 -14l-30 -17q-12 -5 -15 -5q-9 0 -20 11l-95 94l-95 -94q-11 -11 -20 -11z" />
    <glyph glyph-name="jcircumflex" unicode="&#x135;" horiz-adv-x="283" 
d="M-40 -102q3 0 20 -1.5t25 -1.5q45 0 70 36t25 104v643q0 13 5 17.5t17 4.5h56q12 0 17 -4.5t5 -17.5v-651q0 -227 -187 -227q-41 0 -60 6q-17 4 -16 24l6 50q1 18 17 18zM35 758q-3 0 -15 5l-30 17q-10 7 -10 14t8 15l109 105q15 14 34 14h38q19 0 34 -14l109 -105
q8 -8 8 -15t-10 -14l-30 -17q-12 -5 -15 -5q-9 0 -20 11l-95 94l-95 -94q-11 -11 -20 -11z" />
    <glyph glyph-name="Kcommaaccent" unicode="&#x136;" horiz-adv-x="621" 
d="M166 0h-56q-12 0 -17 4.5t-5 17.5v656q0 13 5 17.5t17 4.5h56q12 0 17 -4.5t5 -17.5v-656q0 -13 -5 -17.5t-17 -4.5zM522 700h65q19 0 19 -11q0 -7 -7 -14l-271 -320l278 -329q8 -11 8 -15q0 -11 -20 -11h-69q-17 0 -25 4t-20 19l-257 310q-9 11 -9 19q0 10 10 20
l254 304q12 15 20 19.5t24 4.5zM394 -99q0 -31 -26 -79l-24 -47q-10 -16 -29 -16h-31q-16 0 -16 10q0 4 4 11l38 69q-41 9 -41 54q0 26 18 42.5t45 16.5t44.5 -17t17.5 -44z" />
    <glyph glyph-name="kcommaaccent" unicode="&#x137;" horiz-adv-x="621" 
d="M166 0h-56q-12 0 -17 4.5t-5 17.5v656q0 13 5 17.5t17 4.5h56q12 0 17 -4.5t5 -17.5v-656q0 -13 -5 -17.5t-17 -4.5zM522 700h65q19 0 19 -11q0 -7 -7 -14l-271 -320l278 -329q8 -11 8 -15q0 -11 -20 -11h-69q-17 0 -25 4t-20 19l-257 310q-9 11 -9 19q0 10 10 20
l254 304q12 15 20 19.5t24 4.5zM394 -99q0 -31 -26 -79l-24 -47q-10 -16 -29 -16h-31q-16 0 -16 10q0 4 4 11l38 69q-41 9 -41 54q0 26 18 42.5t45 16.5t44.5 -17t17.5 -44z" />
    <glyph glyph-name="kgreenlandic" unicode="&#x138;" horiz-adv-x="621" 
d="M166 0h-56q-12 0 -17 4.5t-5 17.5v656q0 13 5 17.5t17 4.5h56q12 0 17 -4.5t5 -17.5v-656q0 -13 -5 -17.5t-17 -4.5zM522 700h65q19 0 19 -11q0 -7 -7 -14l-271 -320l278 -329q8 -11 8 -15q0 -11 -20 -11h-69q-17 0 -25 4t-20 19l-257 310q-9 11 -9 19q0 10 10 20
l254 304q12 15 20 19.5t24 4.5z" />
    <glyph glyph-name="Lacute" unicode="&#x139;" horiz-adv-x="552" 
d="M200 95h295q12 0 17 -4.5t5 -17.5v-51q0 -13 -5 -17.5t-17 -4.5h-385q-12 0 -17 4.5t-5 17.5v656q0 13 5 17.5t17 4.5h56q12 0 17 -4.5t5 -17.5v-572q0 -11 12 -11zM318 890q0 -8 -11 -16l-150 -108q-14 -8 -18 -8q-6 0 -14 7l-25 20q-8 8 -8 13q0 6 9 14l144 118
q11 8 18 8t18 -9l29 -24q8 -8 8 -15z" />
    <glyph glyph-name="lacute" unicode="&#x13a;" horiz-adv-x="552" 
d="M200 95h295q12 0 17 -4.5t5 -17.5v-51q0 -13 -5 -17.5t-17 -4.5h-385q-12 0 -17 4.5t-5 17.5v656q0 13 5 17.5t17 4.5h56q12 0 17 -4.5t5 -17.5v-572q0 -11 12 -11zM318 890q0 -8 -11 -16l-150 -108q-14 -8 -18 -8q-6 0 -14 7l-25 20q-8 8 -8 13q0 6 9 14l144 118
q11 8 18 8t18 -9l29 -24q8 -8 8 -15z" />
    <glyph glyph-name="Lcommaaccent" unicode="&#x13b;" horiz-adv-x="552" 
d="M200 95h295q12 0 17 -4.5t5 -17.5v-51q0 -13 -5 -17.5t-17 -4.5h-385q-12 0 -17 4.5t-5 17.5v656q0 13 5 17.5t17 4.5h56q12 0 17 -4.5t5 -17.5v-572q0 -11 12 -11zM370 -99q0 -31 -26 -79l-24 -47q-10 -16 -29 -16h-31q-16 0 -16 10q0 4 4 11l38 69q-41 9 -41 54
q0 26 18 42.5t45 16.5t44.5 -17t17.5 -44z" />
    <glyph glyph-name="lcommaaccent" unicode="&#x13c;" horiz-adv-x="552" 
d="M200 95h295q12 0 17 -4.5t5 -17.5v-51q0 -13 -5 -17.5t-17 -4.5h-385q-12 0 -17 4.5t-5 17.5v656q0 13 5 17.5t17 4.5h56q12 0 17 -4.5t5 -17.5v-572q0 -11 12 -11zM370 -99q0 -31 -26 -79l-24 -47q-10 -16 -29 -16h-31q-16 0 -16 10q0 4 4 11l38 69q-41 9 -41 54
q0 26 18 42.5t45 16.5t44.5 -17t17.5 -44z" />
    <glyph glyph-name="Lcaron" unicode="&#x13d;" horiz-adv-x="552" 
d="M200 95h295q12 0 17 -4.5t5 -17.5v-51q0 -13 -5 -17.5t-17 -4.5h-385q-12 0 -17 4.5t-5 17.5v656q0 13 5 17.5t17 4.5h56q12 0 17 -4.5t5 -17.5v-572q0 -11 12 -11zM474 646q0 -33 -26 -82l-28 -56q-10 -16 -29 -16h-31q-16 0 -16 10q0 4 4 11l43 78q-41 12 -41 58
q0 27 17.5 44t43.5 17q28 0 45.5 -17t17.5 -47z" />
    <glyph glyph-name="lcaron" unicode="&#x13e;" horiz-adv-x="552" 
d="M200 95h295q12 0 17 -4.5t5 -17.5v-51q0 -13 -5 -17.5t-17 -4.5h-385q-12 0 -17 4.5t-5 17.5v656q0 13 5 17.5t17 4.5h56q12 0 17 -4.5t5 -17.5v-572q0 -11 12 -11zM474 646q0 -33 -26 -82l-28 -56q-10 -16 -29 -16h-31q-16 0 -16 10q0 4 4 11l43 78q-41 12 -41 58
q0 27 17.5 44t43.5 17q28 0 45.5 -17t17.5 -47z" />
    <glyph glyph-name="Ldot" unicode="&#x13f;" horiz-adv-x="552" 
d="M200 95h295q12 0 17 -4.5t5 -17.5v-51q0 -13 -5 -17.5t-17 -4.5h-385q-12 0 -17 4.5t-5 17.5v656q0 13 5 17.5t17 4.5h56q12 0 17 -4.5t5 -17.5v-572q0 -11 12 -11zM397 419q26 0 42.5 -16t16.5 -41t-16.5 -40.5t-42.5 -15.5q-25 0 -42 16t-17 40q0 25 17 41t42 16z" />
    <glyph glyph-name="ldot" unicode="&#x140;" horiz-adv-x="552" 
d="M200 95h295q12 0 17 -4.5t5 -17.5v-51q0 -13 -5 -17.5t-17 -4.5h-385q-12 0 -17 4.5t-5 17.5v656q0 13 5 17.5t17 4.5h56q12 0 17 -4.5t5 -17.5v-572q0 -11 12 -11zM397 419q26 0 42.5 -16t16.5 -41t-16.5 -40.5t-42.5 -15.5q-25 0 -42 16t-17 40q0 25 17 41t42 16z" />
    <glyph glyph-name="Lslash" unicode="&#x141;" horiz-adv-x="552" 
d="M23 241q-7 -4 -13 -4q-12 0 -12 19v42q0 22 20 32l70 34v314q0 13 5 17.5t17 4.5h56q12 0 17 -4.5t5 -17.5v-266l186 91q7 4 13 4q12 0 12 -19v-43q0 -21 -20 -31l-191 -94v-214q0 -11 12 -11h295q12 0 17 -4.5t5 -17.5v-51q0 -13 -5 -17.5t-17 -4.5h-385q-12 0 -17 4.5
t-5 17.5v250z" />
    <glyph glyph-name="lslash" unicode="&#x142;" horiz-adv-x="552" 
d="M23 241q-7 -4 -13 -4q-12 0 -12 19v42q0 22 20 32l70 34v314q0 13 5 17.5t17 4.5h56q12 0 17 -4.5t5 -17.5v-266l186 91q7 4 13 4q12 0 12 -19v-43q0 -21 -20 -31l-191 -94v-214q0 -11 12 -11h295q12 0 17 -4.5t5 -17.5v-51q0 -13 -5 -17.5t-17 -4.5h-385q-12 0 -17 4.5
t-5 17.5v250z" />
    <glyph glyph-name="Nacute" unicode="&#x143;" horiz-adv-x="744" 
d="M578 700h56q12 0 17 -4.5t5 -17.5v-656q0 -33 -20 -33q-15 0 -42 31l-406 479v-477q0 -13 -5 -17.5t-17 -4.5h-56q-12 0 -17 4.5t-5 17.5v656q0 33 21 33q15 0 41 -31l406 -479v477q0 13 5 17.5t17 4.5zM520 890q0 -8 -11 -16l-150 -108q-14 -8 -18 -8q-6 0 -14 7l-25 20
q-8 8 -8 13q0 6 9 14l144 118q11 8 18 8t18 -9l29 -24q8 -8 8 -15z" />
    <glyph glyph-name="nacute" unicode="&#x144;" horiz-adv-x="744" 
d="M578 700h56q12 0 17 -4.5t5 -17.5v-656q0 -33 -20 -33q-15 0 -42 31l-406 479v-477q0 -13 -5 -17.5t-17 -4.5h-56q-12 0 -17 4.5t-5 17.5v656q0 33 21 33q15 0 41 -31l406 -479v477q0 13 5 17.5t17 4.5zM520 890q0 -8 -11 -16l-150 -108q-14 -8 -18 -8q-6 0 -14 7l-25 20
q-8 8 -8 13q0 6 9 14l144 118q11 8 18 8t18 -9l29 -24q8 -8 8 -15z" />
    <glyph glyph-name="Ncommaaccent" unicode="&#x145;" horiz-adv-x="744" 
d="M578 700h56q12 0 17 -4.5t5 -17.5v-656q0 -33 -20 -33q-15 0 -42 31l-406 479v-477q0 -13 -5 -17.5t-17 -4.5h-56q-12 0 -17 4.5t-5 17.5v656q0 33 21 33q15 0 41 -31l406 -479v477q0 13 5 17.5t17 4.5zM438 -99q0 -31 -26 -79l-24 -47q-10 -16 -29 -16h-31q-16 0 -16 10
q0 4 4 11l38 69q-41 9 -41 54q0 26 18 42.5t45 16.5t44.5 -17t17.5 -44z" />
    <glyph glyph-name="ncommaaccent" unicode="&#x146;" horiz-adv-x="744" 
d="M578 700h56q12 0 17 -4.5t5 -17.5v-656q0 -33 -20 -33q-15 0 -42 31l-406 479v-477q0 -13 -5 -17.5t-17 -4.5h-56q-12 0 -17 4.5t-5 17.5v656q0 33 21 33q15 0 41 -31l406 -479v477q0 13 5 17.5t17 4.5zM438 -99q0 -31 -26 -79l-24 -47q-10 -16 -29 -16h-31q-16 0 -16 10
q0 4 4 11l38 69q-41 9 -41 54q0 26 18 42.5t45 16.5t44.5 -17t17.5 -44z" />
    <glyph glyph-name="Ncaron" unicode="&#x147;" horiz-adv-x="744" 
d="M578 700h56q12 0 17 -4.5t5 -17.5v-656q0 -33 -20 -33q-15 0 -42 31l-406 479v-477q0 -13 -5 -17.5t-17 -4.5h-56q-12 0 -17 4.5t-5 17.5v656q0 33 21 33q15 0 41 -31l406 -479v477q0 13 5 17.5t17 4.5zM488 928q3 0 15 -5l30 -18q10 -6 10 -13t-8 -15l-109 -105
q-15 -14 -34 -14h-38q-19 0 -34 14l-109 105q-8 8 -8 15t10 13l30 18q12 5 15 5q9 0 20 -11l95 -94l95 94q11 11 20 11z" />
    <glyph glyph-name="ncaron" unicode="&#x148;" horiz-adv-x="744" 
d="M578 700h56q12 0 17 -4.5t5 -17.5v-656q0 -33 -20 -33q-15 0 -42 31l-406 479v-477q0 -13 -5 -17.5t-17 -4.5h-56q-12 0 -17 4.5t-5 17.5v656q0 33 21 33q15 0 41 -31l406 -479v477q0 13 5 17.5t17 4.5zM488 928q3 0 15 -5l30 -18q10 -6 10 -13t-8 -15l-109 -105
q-15 -14 -34 -14h-38q-19 0 -34 14l-109 105q-8 8 -8 15t10 13l30 18q12 5 15 5q9 0 20 -11l95 -94l95 94q11 11 20 11z" />
    <glyph glyph-name="napostrophe" unicode="&#x149;" horiz-adv-x="744" 
d="M578 700h56q12 0 17 -4.5t5 -17.5v-656q0 -33 -20 -33q-15 0 -42 31l-406 479v-477q0 -13 -5 -17.5t-17 -4.5h-56q-12 0 -17 4.5t-5 17.5v656q0 33 21 33q15 0 41 -31l406 -479v477q0 13 5 17.5t17 4.5zM0 646q0 -35 -26 -83l-28 -55q-6 -11 -11.5 -14t-17.5 -3h-31
q-16 0 -16 10l4 12l42 78q-18 4 -29.5 19t-11.5 38q0 27 17.5 44t43.5 17q30 0 47 -16.5t17 -46.5z" />
    <glyph glyph-name="Eng" unicode="&#x14a;" horiz-adv-x="744" 
d="M109 711q15 0 41 -31l406 -479v477q0 13 5 17.5t17 4.5h56q12 0 17 -4.5t5 -17.5v-651q0 -227 -186 -227q-40 0 -60 6q-17 4 -16 24l5 50q1 11 5 14.5t13 3.5q4 0 20 -1.5t24 -1.5q45 0 70 36t25 104v22l-368 442v-477q0 -13 -5 -17.5t-17 -4.5h-56q-12 0 -17 4.5
t-5 17.5v656q0 33 21 33z" />
    <glyph glyph-name="eng" unicode="&#x14b;" horiz-adv-x="744" 
d="M109 711q15 0 41 -31l406 -479v477q0 13 5 17.5t17 4.5h56q12 0 17 -4.5t5 -17.5v-651q0 -227 -186 -227q-40 0 -60 6q-17 4 -16 24l5 50q1 11 5 14.5t13 3.5q4 0 20 -1.5t24 -1.5q45 0 70 36t25 104v22l-368 442v-477q0 -13 -5 -17.5t-17 -4.5h-56q-12 0 -17 4.5
t-5 17.5v656q0 33 21 33z" />
    <glyph glyph-name="Omacron" unicode="&#x14c;" horiz-adv-x="814" 
d="M408 711q152 2 257 -103t103 -257q2 -153 -104.5 -259t-259.5 -103q-150 -3 -255 102t-103 256q-2 152 104.5 259.5t257.5 104.5zM405 84q106 -2 183.5 76.5t75.5 189.5q0 115 -74.5 190.5t-182.5 75.5t-182.5 -76.5t-74.5 -191.5q-2 -112 73.5 -189t181.5 -75zM265 802
v36q0 12 4.5 16.5t17.5 4.5h240q13 0 17.5 -4.5t4.5 -16.5v-36q0 -12 -4.5 -16t-17.5 -4h-240q-13 0 -17.5 4t-4.5 16z" />
    <glyph glyph-name="omacron" unicode="&#x14d;" horiz-adv-x="814" 
d="M408 711q152 2 257 -103t103 -257q2 -153 -104.5 -259t-259.5 -103q-150 -3 -255 102t-103 256q-2 152 104.5 259.5t257.5 104.5zM405 84q106 -2 183.5 76.5t75.5 189.5q0 115 -74.5 190.5t-182.5 75.5t-182.5 -76.5t-74.5 -191.5q-2 -112 73.5 -189t181.5 -75zM265 802
v36q0 12 4.5 16.5t17.5 4.5h240q13 0 17.5 -4.5t4.5 -16.5v-36q0 -12 -4.5 -16t-17.5 -4h-240q-13 0 -17.5 4t-4.5 16z" />
    <glyph glyph-name="Obreve" unicode="&#x14e;" horiz-adv-x="814" 
d="M408 711q152 2 257 -103t103 -257q2 -153 -104.5 -259t-259.5 -103q-150 -3 -255 102t-103 256q-2 152 104.5 259.5t257.5 104.5zM405 84q106 -2 183.5 76.5t75.5 189.5q0 115 -74.5 190.5t-182.5 75.5t-182.5 -76.5t-74.5 -191.5q-2 -112 73.5 -189t181.5 -75zM258 894
q0 16 14 16h44q8 0 11 -3t5 -12q8 -65 75 -65q32 0 51.5 17t23.5 48q2 9 5 12t11 3h44q14 0 14 -16q0 -59 -38.5 -97.5t-112.5 -38.5q-72 0 -109.5 38t-37.5 98z" />
    <glyph glyph-name="obreve" unicode="&#x14f;" horiz-adv-x="814" 
d="M408 711q152 2 257 -103t103 -257q2 -153 -104.5 -259t-259.5 -103q-150 -3 -255 102t-103 256q-2 152 104.5 259.5t257.5 104.5zM405 84q106 -2 183.5 76.5t75.5 189.5q0 115 -74.5 190.5t-182.5 75.5t-182.5 -76.5t-74.5 -191.5q-2 -112 73.5 -189t181.5 -75zM258 894
q0 16 14 16h44q8 0 11 -3t5 -12q8 -65 75 -65q32 0 51.5 17t23.5 48q2 9 5 12t11 3h44q14 0 14 -16q0 -59 -38.5 -97.5t-112.5 -38.5q-72 0 -109.5 38t-37.5 98z" />
    <glyph glyph-name="Ohungarumlaut" unicode="&#x150;" horiz-adv-x="814" 
d="M408 711q152 2 257 -103t103 -257q2 -153 -104.5 -259t-259.5 -103q-150 -3 -255 102t-103 256q-2 152 104.5 259.5t257.5 104.5zM405 84q106 -2 183.5 76.5t75.5 189.5q0 115 -74.5 190.5t-182.5 75.5t-182.5 -76.5t-74.5 -191.5q-2 -112 73.5 -189t181.5 -75zM458 896
q0 -7 -11 -16l-136 -113q-13 -9 -19 -9t-15 6l-26 18q-9 6 -9 13t9 14l131 119q10 10 16 10q7 0 18 -8l31 -19q11 -8 11 -15zM651 895q0 -8 -11 -16l-143 -112q-12 -9 -20 -9q-7 0 -14 6l-26 18q-8 8 -8 13q0 7 9 14l137 119q14 10 18 10q6 0 17 -8l31 -20q10 -7 10 -15z
" />
    <glyph glyph-name="ohungarumlaut" unicode="&#x151;" horiz-adv-x="814" 
d="M408 711q152 2 257 -103t103 -257q2 -153 -104.5 -259t-259.5 -103q-150 -3 -255 102t-103 256q-2 152 104.5 259.5t257.5 104.5zM405 84q106 -2 183.5 76.5t75.5 189.5q0 115 -74.5 190.5t-182.5 75.5t-182.5 -76.5t-74.5 -191.5q-2 -112 73.5 -189t181.5 -75zM458 896
q0 -7 -11 -16l-136 -113q-13 -9 -19 -9t-15 6l-26 18q-9 6 -9 13t9 14l131 119q10 10 16 10q7 0 18 -8l31 -19q11 -8 11 -15zM651 895q0 -8 -11 -16l-143 -112q-12 -9 -20 -9q-7 0 -14 6l-26 18q-8 8 -8 13q0 7 9 14l137 119q14 10 18 10q6 0 17 -8l31 -20q10 -7 10 -15z
" />
    <glyph glyph-name="OE" unicode="&#x152;" horiz-adv-x="1002" 
d="M504 -5q-56 -6 -93 -6q-159 -2 -263 101.5t-102 257.5q-2 155 102.5 260t263.5 103q36 0 92 -6q42 -5 65 -5h355q12 0 17 -4.5t5 -17.5v-51q0 -13 -5 -17.5t-17 -4.5h-288q-12 0 -12 -11v-184q0 -11 12 -11h254q22 0 22 -22v-49q0 -13 -5 -17.5t-17 -4.5h-254
q-12 0 -12 -12v-188q0 -11 12 -11h289q12 0 17 -4.5t5 -17.5v-51q0 -13 -5 -17.5t-17 -4.5h-356q-23 0 -65 -5zM512 607q-45 9 -96 9q-119 0 -192.5 -74.5t-73.5 -192.5q0 -116 74 -190.5t192 -74.5q51 0 96 9q12 4 12 17v480q0 13 -12 17z" />
    <glyph glyph-name="oe" unicode="&#x153;" horiz-adv-x="1002" 
d="M504 -5q-56 -6 -93 -6q-159 -2 -263 101.5t-102 257.5q-2 155 102.5 260t263.5 103q36 0 92 -6q42 -5 65 -5h355q12 0 17 -4.5t5 -17.5v-51q0 -13 -5 -17.5t-17 -4.5h-288q-12 0 -12 -11v-184q0 -11 12 -11h254q22 0 22 -22v-49q0 -13 -5 -17.5t-17 -4.5h-254
q-12 0 -12 -12v-188q0 -11 12 -11h289q12 0 17 -4.5t5 -17.5v-51q0 -13 -5 -17.5t-17 -4.5h-356q-23 0 -65 -5zM512 607q-45 9 -96 9q-119 0 -192.5 -74.5t-73.5 -192.5q0 -116 74 -190.5t192 -74.5q51 0 96 9q12 4 12 17v480q0 13 -12 17z" />
    <glyph glyph-name="Racute" unicode="&#x154;" horiz-adv-x="635" 
d="M188 253v-231q0 -13 -5 -17.5t-17 -4.5h-56q-12 0 -17 4.5t-5 17.5v656q0 13 5 17.5t17 4.5h196q280 0 280 -215q0 -145 -137 -194l173 -261q8 -14 8 -19q0 -11 -22 -11h-60q-17 0 -26 5.5t-19 21.5l-145 224q-9 14 -26 14h-132q-12 0 -12 -12zM188 594v-226
q0 -12 12 -12h107q175 0 175 125q0 124 -181 124h-101q-12 0 -12 -11zM458 890q0 -8 -11 -16l-150 -108q-14 -8 -18 -8q-6 0 -14 7l-25 20q-8 8 -8 13q0 6 9 14l144 118q11 8 18 8t18 -9l29 -24q8 -8 8 -15z" />
    <glyph glyph-name="racute" unicode="&#x155;" horiz-adv-x="635" 
d="M188 253v-231q0 -13 -5 -17.5t-17 -4.5h-56q-12 0 -17 4.5t-5 17.5v656q0 13 5 17.5t17 4.5h196q280 0 280 -215q0 -145 -137 -194l173 -261q8 -14 8 -19q0 -11 -22 -11h-60q-17 0 -26 5.5t-19 21.5l-145 224q-9 14 -26 14h-132q-12 0 -12 -12zM188 594v-226
q0 -12 12 -12h107q175 0 175 125q0 124 -181 124h-101q-12 0 -12 -11zM458 890q0 -8 -11 -16l-150 -108q-14 -8 -18 -8q-6 0 -14 7l-25 20q-8 8 -8 13q0 6 9 14l144 118q11 8 18 8t18 -9l29 -24q8 -8 8 -15z" />
    <glyph glyph-name="Rcommaaccent" unicode="&#x156;" horiz-adv-x="635" 
d="M188 253v-231q0 -13 -5 -17.5t-17 -4.5h-56q-12 0 -17 4.5t-5 17.5v656q0 13 5 17.5t17 4.5h196q280 0 280 -215q0 -145 -137 -194l173 -261q8 -14 8 -19q0 -11 -22 -11h-60q-17 0 -26 5.5t-19 21.5l-145 224q-9 14 -26 14h-132q-12 0 -12 -12zM188 594v-226
q0 -12 12 -12h107q175 0 175 125q0 124 -181 124h-101q-12 0 -12 -11zM406 -99q0 -31 -26 -79l-24 -47q-10 -16 -29 -16h-31q-16 0 -16 10q0 4 4 11l38 69q-41 9 -41 54q0 26 18 42.5t45 16.5t44.5 -17t17.5 -44z" />
    <glyph glyph-name="rcommaaccent" unicode="&#x157;" horiz-adv-x="635" 
d="M188 253v-231q0 -13 -5 -17.5t-17 -4.5h-56q-12 0 -17 4.5t-5 17.5v656q0 13 5 17.5t17 4.5h196q280 0 280 -215q0 -145 -137 -194l173 -261q8 -14 8 -19q0 -11 -22 -11h-60q-17 0 -26 5.5t-19 21.5l-145 224q-9 14 -26 14h-132q-12 0 -12 -12zM188 594v-226
q0 -12 12 -12h107q175 0 175 125q0 124 -181 124h-101q-12 0 -12 -11zM406 -99q0 -31 -26 -79l-24 -47q-10 -16 -29 -16h-31q-16 0 -16 10q0 4 4 11l38 69q-41 9 -41 54q0 26 18 42.5t45 16.5t44.5 -17t17.5 -44z" />
    <glyph glyph-name="Rcaron" unicode="&#x158;" horiz-adv-x="635" 
d="M188 253v-231q0 -13 -5 -17.5t-17 -4.5h-56q-12 0 -17 4.5t-5 17.5v656q0 13 5 17.5t17 4.5h196q280 0 280 -215q0 -145 -137 -194l173 -261q8 -14 8 -19q0 -11 -22 -11h-60q-17 0 -26 5.5t-19 21.5l-145 224q-9 14 -26 14h-132q-12 0 -12 -12zM188 594v-226
q0 -12 12 -12h107q175 0 175 125q0 124 -181 124h-101q-12 0 -12 -11zM426 928q3 0 15 -5l30 -18q10 -6 10 -13t-8 -15l-109 -105q-15 -14 -34 -14h-38q-19 0 -34 14l-109 105q-8 8 -8 15t10 13l30 18q12 5 15 5q9 0 20 -11l95 -94l95 94q11 11 20 11z" />
    <glyph glyph-name="rcaron" unicode="&#x159;" horiz-adv-x="635" 
d="M188 253v-231q0 -13 -5 -17.5t-17 -4.5h-56q-12 0 -17 4.5t-5 17.5v656q0 13 5 17.5t17 4.5h196q280 0 280 -215q0 -145 -137 -194l173 -261q8 -14 8 -19q0 -11 -22 -11h-60q-17 0 -26 5.5t-19 21.5l-145 224q-9 14 -26 14h-132q-12 0 -12 -12zM188 594v-226
q0 -12 12 -12h107q175 0 175 125q0 124 -181 124h-101q-12 0 -12 -11zM426 928q3 0 15 -5l30 -18q10 -6 10 -13t-8 -15l-109 -105q-15 -14 -34 -14h-38q-19 0 -34 14l-109 105q-8 8 -8 15t10 13l30 18q12 5 15 5q9 0 20 -11l95 -94l95 94q11 11 20 11z" />
    <glyph glyph-name="Sacute" unicode="&#x15a;" horiz-adv-x="569" 
d="M510 632q11 -8 11 -15q0 -5 -8 -16l-29 -43q-8 -11 -16 -11q-6 0 -16 7q-86 63 -171 63q-58 0 -94 -28.5t-36 -75.5q0 -46 33.5 -69.5t120.5 -46.5q117 -29 168 -74t51 -126q0 -94 -71.5 -151t-185.5 -57q-128 0 -237 86q-11 11 -11 17q0 7 7 17l30 42q8 11 15 11
q4 0 15 -8q92 -71 183 -71q69 0 110 29t41 78q0 46 -33 69t-125 47q-112 28 -164 72.5t-52 128.5q0 93 66.5 148.5t169.5 55.5q127 0 228 -79zM434 890q0 -8 -11 -16l-150 -108q-14 -8 -18 -8q-6 0 -14 7l-25 20q-8 8 -8 13q0 6 9 14l144 118q11 8 18 8t18 -9l29 -24
q8 -8 8 -15z" />
    <glyph glyph-name="sacute" unicode="&#x15b;" horiz-adv-x="569" 
d="M510 632q11 -8 11 -15q0 -5 -8 -16l-29 -43q-8 -11 -16 -11q-6 0 -16 7q-86 63 -171 63q-58 0 -94 -28.5t-36 -75.5q0 -46 33.5 -69.5t120.5 -46.5q117 -29 168 -74t51 -126q0 -94 -71.5 -151t-185.5 -57q-128 0 -237 86q-11 11 -11 17q0 7 7 17l30 42q8 11 15 11
q4 0 15 -8q92 -71 183 -71q69 0 110 29t41 78q0 46 -33 69t-125 47q-112 28 -164 72.5t-52 128.5q0 93 66.5 148.5t169.5 55.5q127 0 228 -79zM434 890q0 -8 -11 -16l-150 -108q-14 -8 -18 -8q-6 0 -14 7l-25 20q-8 8 -8 13q0 6 9 14l144 118q11 8 18 8t18 -9l29 -24
q8 -8 8 -15z" />
    <glyph glyph-name="Scircumflex" unicode="&#x15c;" horiz-adv-x="569" 
d="M510 632q11 -8 11 -15q0 -5 -8 -16l-29 -43q-8 -11 -16 -11q-6 0 -16 7q-86 63 -171 63q-58 0 -94 -28.5t-36 -75.5q0 -46 33.5 -69.5t120.5 -46.5q117 -29 168 -74t51 -126q0 -94 -71.5 -151t-185.5 -57q-128 0 -237 86q-11 11 -11 17q0 7 7 17l30 42q8 11 15 11
q4 0 15 -8q92 -71 183 -71q69 0 110 29t41 78q0 46 -33 69t-125 47q-112 28 -164 72.5t-52 128.5q0 93 66.5 148.5t169.5 55.5q127 0 228 -79zM172 758q-3 0 -15 5l-30 17q-10 7 -10 14t8 15l109 105q15 14 34 14h38q19 0 34 -14l109 -105q8 -8 8 -15t-10 -14l-30 -17
q-12 -5 -15 -5q-9 0 -20 11l-95 94l-95 -94q-11 -11 -20 -11z" />
    <glyph glyph-name="scircumflex" unicode="&#x15d;" horiz-adv-x="569" 
d="M510 632q11 -8 11 -15q0 -5 -8 -16l-29 -43q-8 -11 -16 -11q-6 0 -16 7q-86 63 -171 63q-58 0 -94 -28.5t-36 -75.5q0 -46 33.5 -69.5t120.5 -46.5q117 -29 168 -74t51 -126q0 -94 -71.5 -151t-185.5 -57q-128 0 -237 86q-11 11 -11 17q0 7 7 17l30 42q8 11 15 11
q4 0 15 -8q92 -71 183 -71q69 0 110 29t41 78q0 46 -33 69t-125 47q-112 28 -164 72.5t-52 128.5q0 93 66.5 148.5t169.5 55.5q127 0 228 -79zM172 758q-3 0 -15 5l-30 17q-10 7 -10 14t8 15l109 105q15 14 34 14h38q19 0 34 -14l109 -105q8 -8 8 -15t-10 -14l-30 -17
q-12 -5 -15 -5q-9 0 -20 11l-95 94l-95 -94q-11 -11 -20 -11z" />
    <glyph glyph-name="Scedilla" unicode="&#x15e;" horiz-adv-x="569" 
d="M183 -159q4 0 10 -3q26 -17 68 -17q30 0 48.5 12t18.5 30t-16.5 28.5t-43.5 10.5q-19 0 -44 -5q-1 -1 -6 -1q-8 0 -8 7q0 4 2 8l39 78q-121 6 -221 86q-11 11 -11 17q0 7 7 17l30 42q8 11 15 11q4 0 15 -8q92 -71 183 -71q69 0 110 29t41 78q0 46 -33 69t-125 47
q-112 28 -164 72.5t-52 128.5q0 93 66.5 148.5t169.5 55.5q127 0 228 -79q10 -7 10 -15q0 -4 -7 -16l-29 -43q-7 -11 -15 -11q-7 0 -17 7q-86 63 -171 63q-58 0 -94 -28.5t-36 -75.5t34 -71t120 -45q117 -30 168 -74.5t51 -125.5q0 -82 -56.5 -136.5t-150.5 -68.5l-21 -41h5
q45 0 72.5 -23.5t27.5 -60.5q0 -47 -40.5 -77.5t-99.5 -30.5q-47 0 -93 22q-11 5 -11 13q0 5 3 11l13 26q4 10 10 10z" />
    <glyph glyph-name="scedilla" unicode="&#x15f;" horiz-adv-x="569" 
d="M183 -159q4 0 10 -3q26 -17 68 -17q30 0 48.5 12t18.5 30t-16.5 28.5t-43.5 10.5q-19 0 -44 -5q-1 -1 -6 -1q-8 0 -8 7q0 4 2 8l39 78q-121 6 -221 86q-11 11 -11 17q0 7 7 17l30 42q8 11 15 11q4 0 15 -8q92 -71 183 -71q69 0 110 29t41 78q0 46 -33 69t-125 47
q-112 28 -164 72.5t-52 128.5q0 93 66.5 148.5t169.5 55.5q127 0 228 -79q10 -7 10 -15q0 -4 -7 -16l-29 -43q-7 -11 -15 -11q-7 0 -17 7q-86 63 -171 63q-58 0 -94 -28.5t-36 -75.5t34 -71t120 -45q117 -30 168 -74.5t51 -125.5q0 -82 -56.5 -136.5t-150.5 -68.5l-21 -41h5
q45 0 72.5 -23.5t27.5 -60.5q0 -47 -40.5 -77.5t-99.5 -30.5q-47 0 -93 22q-11 5 -11 13q0 5 3 11l13 26q4 10 10 10z" />
    <glyph glyph-name="Scaron" unicode="&#x160;" horiz-adv-x="569" 
d="M510 632q11 -8 11 -15q0 -5 -8 -16l-29 -43q-8 -11 -16 -11q-6 0 -16 7q-86 63 -171 63q-58 0 -94 -28.5t-36 -75.5q0 -46 33.5 -69.5t120.5 -46.5q117 -29 168 -74t51 -126q0 -94 -71.5 -151t-185.5 -57q-128 0 -237 86q-11 11 -11 17q0 7 7 17l30 42q8 11 15 11
q4 0 15 -8q92 -71 183 -71q69 0 110 29t41 78q0 46 -33 69t-125 47q-112 28 -164 72.5t-52 128.5q0 93 66.5 148.5t169.5 55.5q127 0 228 -79zM402 928q3 0 15 -5l30 -18q10 -6 10 -13t-8 -15l-109 -105q-15 -14 -34 -14h-38q-19 0 -34 14l-109 105q-8 8 -8 15t10 13l30 18
q12 5 15 5q9 0 20 -11l95 -94l95 94q11 11 20 11z" />
    <glyph glyph-name="scaron" unicode="&#x161;" horiz-adv-x="569" 
d="M510 632q11 -8 11 -15q0 -5 -8 -16l-29 -43q-8 -11 -16 -11q-6 0 -16 7q-86 63 -171 63q-58 0 -94 -28.5t-36 -75.5q0 -46 33.5 -69.5t120.5 -46.5q117 -29 168 -74t51 -126q0 -94 -71.5 -151t-185.5 -57q-128 0 -237 86q-11 11 -11 17q0 7 7 17l30 42q8 11 15 11
q4 0 15 -8q92 -71 183 -71q69 0 110 29t41 78q0 46 -33 69t-125 47q-112 28 -164 72.5t-52 128.5q0 93 66.5 148.5t169.5 55.5q127 0 228 -79zM402 928q3 0 15 -5l30 -18q10 -6 10 -13t-8 -15l-109 -105q-15 -14 -34 -14h-38q-19 0 -34 14l-109 105q-8 8 -8 15t10 13l30 18
q12 5 15 5q9 0 20 -11l95 -94l95 94q11 11 20 11z" />
    <glyph glyph-name="uni0162" unicode="&#x162;" horiz-adv-x="574" 
d="M537 605h-188q-12 0 -12 -11v-572q0 -13 -5 -17.5t-17 -4.5h-56q-12 0 -17 4.5t-5 17.5v572q0 11 -12 11h-188q-12 0 -17 4.5t-5 17.5v51q0 13 5 17.5t17 4.5h500q12 0 17 -4.5t5 -17.5v-51q0 -13 -5 -17.5t-17 -4.5zM349 -99q0 -31 -26 -79l-24 -47q-10 -16 -29 -16h-31
q-16 0 -16 10q0 4 4 11l38 69q-41 9 -41 54q0 26 18 42.5t45 16.5t44.5 -17t17.5 -44z" />
    <glyph glyph-name="uni0163" unicode="&#x163;" horiz-adv-x="574" 
d="M537 605h-188q-12 0 -12 -11v-572q0 -13 -5 -17.5t-17 -4.5h-56q-12 0 -17 4.5t-5 17.5v572q0 11 -12 11h-188q-12 0 -17 4.5t-5 17.5v51q0 13 5 17.5t17 4.5h500q12 0 17 -4.5t5 -17.5v-51q0 -13 -5 -17.5t-17 -4.5zM349 -99q0 -31 -26 -79l-24 -47q-10 -16 -29 -16h-31
q-16 0 -16 10q0 4 4 11l38 69q-41 9 -41 54q0 26 18 42.5t45 16.5t44.5 -17t17.5 -44z" />
    <glyph glyph-name="Tcaron" unicode="&#x164;" horiz-adv-x="574" 
d="M537 605h-188q-12 0 -12 -11v-572q0 -13 -5 -17.5t-17 -4.5h-56q-12 0 -17 4.5t-5 17.5v572q0 11 -12 11h-188q-12 0 -17 4.5t-5 17.5v51q0 13 5 17.5t17 4.5h500q12 0 17 -4.5t5 -17.5v-51q0 -13 -5 -17.5t-17 -4.5zM402 928q3 0 15 -5l30 -18q10 -6 10 -13t-8 -15
l-109 -105q-15 -14 -34 -14h-38q-19 0 -34 14l-109 105q-8 8 -8 15t10 13l30 18q12 5 15 5q9 0 20 -11l95 -94l95 94q11 11 20 11z" />
    <glyph glyph-name="tcaron" unicode="&#x165;" horiz-adv-x="574" 
d="M537 605h-188q-12 0 -12 -11v-572q0 -13 -5 -17.5t-17 -4.5h-56q-12 0 -17 4.5t-5 17.5v572q0 11 -12 11h-188q-12 0 -17 4.5t-5 17.5v51q0 13 5 17.5t17 4.5h500q12 0 17 -4.5t5 -17.5v-51q0 -13 -5 -17.5t-17 -4.5zM402 928q3 0 15 -5l30 -18q10 -6 10 -13t-8 -15
l-109 -105q-15 -14 -34 -14h-38q-19 0 -34 14l-109 105q-8 8 -8 15t10 13l30 18q12 5 15 5q9 0 20 -11l95 -94l95 94q11 11 20 11z" />
    <glyph glyph-name="Tbar" unicode="&#x166;" horiz-adv-x="574" 
d="M227 293h-104q-13 0 -17.5 4.5t-4.5 16.5v43q0 12 4.5 16.5t17.5 4.5h104q10 0 10 9v207q0 11 -12 11h-188q-12 0 -17 4.5t-5 17.5v51q0 13 5 17.5t17 4.5h500q12 0 17 -4.5t5 -17.5v-51q0 -13 -5 -17.5t-17 -4.5h-188q-12 0 -12 -11v-207q0 -9 10 -9h104q13 0 18 -4.5
t5 -16.5v-43q0 -12 -5 -16.5t-18 -4.5h-104q-10 0 -10 -10v-261q0 -13 -5 -17.5t-17 -4.5h-56q-12 0 -17 4.5t-5 17.5v261q0 10 -10 10z" />
    <glyph glyph-name="tbar" unicode="&#x167;" horiz-adv-x="574" 
d="M227 293h-104q-13 0 -17.5 4.5t-4.5 16.5v43q0 12 4.5 16.5t17.5 4.5h104q10 0 10 9v207q0 11 -12 11h-188q-12 0 -17 4.5t-5 17.5v51q0 13 5 17.5t17 4.5h500q12 0 17 -4.5t5 -17.5v-51q0 -13 -5 -17.5t-17 -4.5h-188q-12 0 -12 -11v-207q0 -9 10 -9h104q13 0 18 -4.5
t5 -16.5v-43q0 -12 -5 -16.5t-18 -4.5h-104q-10 0 -10 -10v-261q0 -13 -5 -17.5t-17 -4.5h-56q-12 0 -17 4.5t-5 17.5v261q0 10 -10 10z" />
    <glyph glyph-name="Utilde" unicode="&#x168;" horiz-adv-x="743" 
d="M366 -11q-129 0 -205.5 78t-76.5 228v383q0 13 5 17.5t17 4.5h55q13 0 18 -4.5t5 -17.5v-377q0 -103 48 -160t138 -57t140 57.5t50 158.5v378q0 12 5 17t16 5h56q13 0 18 -4.5t5 -17.5v-380q0 -149 -80.5 -229t-213.5 -80zM357 788q-36 18 -58 18q-34 0 -63 -35
q-6 -7 -12 -7q-5 0 -11 6l-24 30q-4 4 -4 10q0 4 6 12q44 56 110 56q33 0 84 -24q36 -18 58 -18q34 0 63 35q6 7 12 7q5 0 11 -6l24 -30q4 -4 4 -10q0 -4 -6 -13q-44 -55 -110 -55q-36 0 -84 24z" />
    <glyph glyph-name="utilde" unicode="&#x169;" horiz-adv-x="743" 
d="M366 -11q-129 0 -205.5 78t-76.5 228v383q0 13 5 17.5t17 4.5h55q13 0 18 -4.5t5 -17.5v-377q0 -103 48 -160t138 -57t140 57.5t50 158.5v378q0 12 5 17t16 5h56q13 0 18 -4.5t5 -17.5v-380q0 -149 -80.5 -229t-213.5 -80zM357 788q-36 18 -58 18q-34 0 -63 -35
q-6 -7 -12 -7q-5 0 -11 6l-24 30q-4 4 -4 10q0 4 6 12q44 56 110 56q33 0 84 -24q36 -18 58 -18q34 0 63 35q6 7 12 7q5 0 11 -6l24 -30q4 -4 4 -10q0 -4 -6 -13q-44 -55 -110 -55q-36 0 -84 24z" />
    <glyph glyph-name="Umacron" unicode="&#x16a;" horiz-adv-x="743" 
d="M366 -11q-129 0 -205.5 78t-76.5 228v383q0 13 5 17.5t17 4.5h55q13 0 18 -4.5t5 -17.5v-377q0 -103 48 -160t138 -57t140 57.5t50 158.5v378q0 12 5 17t16 5h56q13 0 18 -4.5t5 -17.5v-380q0 -149 -80.5 -229t-213.5 -80zM229 802v36q0 12 4.5 16.5t17.5 4.5h240
q13 0 17.5 -4.5t4.5 -16.5v-36q0 -12 -4.5 -16t-17.5 -4h-240q-13 0 -17.5 4t-4.5 16z" />
    <glyph glyph-name="umacron" unicode="&#x16b;" horiz-adv-x="743" 
d="M366 -11q-129 0 -205.5 78t-76.5 228v383q0 13 5 17.5t17 4.5h55q13 0 18 -4.5t5 -17.5v-377q0 -103 48 -160t138 -57t140 57.5t50 158.5v378q0 12 5 17t16 5h56q13 0 18 -4.5t5 -17.5v-380q0 -149 -80.5 -229t-213.5 -80zM229 802v36q0 12 4.5 16.5t17.5 4.5h240
q13 0 17.5 -4.5t4.5 -16.5v-36q0 -12 -4.5 -16t-17.5 -4h-240q-13 0 -17.5 4t-4.5 16z" />
    <glyph glyph-name="Ubreve" unicode="&#x16c;" horiz-adv-x="743" 
d="M366 -11q-129 0 -205.5 78t-76.5 228v383q0 13 5 17.5t17 4.5h55q13 0 18 -4.5t5 -17.5v-377q0 -103 48 -160t138 -57t140 57.5t50 158.5v378q0 12 5 17t16 5h56q13 0 18 -4.5t5 -17.5v-380q0 -149 -80.5 -229t-213.5 -80zM222 894q0 16 14 16h44q8 0 11 -3t5 -12
q8 -65 75 -65q32 0 51.5 17t23.5 48q2 9 5 12t11 3h44q14 0 14 -16q0 -59 -38.5 -97.5t-112.5 -38.5q-72 0 -109.5 38t-37.5 98z" />
    <glyph glyph-name="ubreve" unicode="&#x16d;" horiz-adv-x="743" 
d="M366 -11q-129 0 -205.5 78t-76.5 228v383q0 13 5 17.5t17 4.5h55q13 0 18 -4.5t5 -17.5v-377q0 -103 48 -160t138 -57t140 57.5t50 158.5v378q0 12 5 17t16 5h56q13 0 18 -4.5t5 -17.5v-380q0 -149 -80.5 -229t-213.5 -80zM222 894q0 16 14 16h44q8 0 11 -3t5 -12
q8 -65 75 -65q32 0 51.5 17t23.5 48q2 9 5 12t11 3h44q14 0 14 -16q0 -59 -38.5 -97.5t-112.5 -38.5q-72 0 -109.5 38t-37.5 98z" />
    <glyph glyph-name="Uring" unicode="&#x16e;" horiz-adv-x="743" 
d="M366 -11q-129 0 -205.5 78t-76.5 228v383q0 13 5 17.5t17 4.5h55q13 0 18 -4.5t5 -17.5v-377q0 -103 48 -160t138 -57t140 57.5t50 158.5v378q0 12 5 17t16 5h56q13 0 18 -4.5t5 -17.5v-380q0 -149 -80.5 -229t-213.5 -80zM371 989q56 0 95.5 -39.5t39.5 -94.5
q0 -56 -39.5 -95.5t-95.5 -39.5t-95.5 39.5t-39.5 95.5q0 55 39.5 94.5t95.5 39.5zM371 791q26 0 45 18.5t19 45.5q0 26 -19 44.5t-45 18.5t-45 -18.5t-19 -44.5q0 -27 19 -45.5t45 -18.5z" />
    <glyph glyph-name="uring" unicode="&#x16f;" horiz-adv-x="743" 
d="M366 -11q-129 0 -205.5 78t-76.5 228v383q0 13 5 17.5t17 4.5h55q13 0 18 -4.5t5 -17.5v-377q0 -103 48 -160t138 -57t140 57.5t50 158.5v378q0 12 5 17t16 5h56q13 0 18 -4.5t5 -17.5v-380q0 -149 -80.5 -229t-213.5 -80zM371 989q56 0 95.5 -39.5t39.5 -94.5
q0 -56 -39.5 -95.5t-95.5 -39.5t-95.5 39.5t-39.5 95.5q0 55 39.5 94.5t95.5 39.5zM371 791q26 0 45 18.5t19 45.5q0 26 -19 44.5t-45 18.5t-45 -18.5t-19 -44.5q0 -27 19 -45.5t45 -18.5z" />
    <glyph glyph-name="Uhungarumlaut" unicode="&#x170;" horiz-adv-x="743" 
d="M366 -11q-129 0 -205.5 78t-76.5 228v383q0 13 5 17.5t17 4.5h55q13 0 18 -4.5t5 -17.5v-377q0 -103 48 -160t138 -57t140 57.5t50 158.5v378q0 12 5 17t16 5h56q13 0 18 -4.5t5 -17.5v-380q0 -149 -80.5 -229t-213.5 -80zM422 896q0 -7 -11 -16l-136 -113q-13 -9 -19 -9
t-15 6l-26 18q-9 6 -9 13t9 14l131 119q10 10 16 10q7 0 18 -8l31 -19q11 -8 11 -15zM615 895q0 -8 -11 -16l-143 -112q-12 -9 -20 -9q-7 0 -14 6l-26 18q-8 8 -8 13q0 7 9 14l137 119q14 10 18 10q6 0 17 -8l31 -20q10 -7 10 -15z" />
    <glyph glyph-name="uhungarumlaut" unicode="&#x171;" horiz-adv-x="743" 
d="M366 -11q-129 0 -205.5 78t-76.5 228v383q0 13 5 17.5t17 4.5h55q13 0 18 -4.5t5 -17.5v-377q0 -103 48 -160t138 -57t140 57.5t50 158.5v378q0 12 5 17t16 5h56q13 0 18 -4.5t5 -17.5v-380q0 -149 -80.5 -229t-213.5 -80zM422 896q0 -7 -11 -16l-136 -113q-13 -9 -19 -9
t-15 6l-26 18q-9 6 -9 13t9 14l131 119q10 10 16 10q7 0 18 -8l31 -19q11 -8 11 -15zM615 895q0 -8 -11 -16l-143 -112q-12 -9 -20 -9q-7 0 -14 6l-26 18q-8 8 -8 13q0 7 9 14l137 119q14 10 18 10q6 0 17 -8l31 -20q10 -7 10 -15z" />
    <glyph glyph-name="Uogonek" unicode="&#x172;" horiz-adv-x="743" 
d="M383 -11q-46 -33 -46 -75q0 -24 17 -39t41 -15q29 0 56 15q7 4 12 4q7 0 11 -9l12 -23q3 -6 3 -11q0 -10 -12 -17q-40 -25 -90 -25q-54 0 -88.5 30.5t-34.5 77.5q0 51 44 92q-104 15 -164 92t-60 209v383q0 13 5 17.5t17 4.5h55q13 0 18 -4.5t5 -17.5v-377
q0 -103 48 -160t138 -57t140 57.5t50 158.5v378q0 12 5 17t16 5h56q13 0 18 -4.5t5 -17.5v-380q0 -144 -75 -223.5t-202 -85.5z" />
    <glyph glyph-name="uogonek" unicode="&#x173;" horiz-adv-x="743" 
d="M383 -11q-46 -33 -46 -75q0 -24 17 -39t41 -15q29 0 56 15q7 4 12 4q7 0 11 -9l12 -23q3 -6 3 -11q0 -10 -12 -17q-40 -25 -90 -25q-54 0 -88.5 30.5t-34.5 77.5q0 51 44 92q-104 15 -164 92t-60 209v383q0 13 5 17.5t17 4.5h55q13 0 18 -4.5t5 -17.5v-377
q0 -103 48 -160t138 -57t140 57.5t50 158.5v378q0 12 5 17t16 5h56q13 0 18 -4.5t5 -17.5v-380q0 -144 -75 -223.5t-202 -85.5z" />
    <glyph glyph-name="Wcircumflex" unicode="&#x174;" horiz-adv-x="967" 
d="M295 -13q-11 0 -18.5 10.5t-19.5 42.5l-245 630q-3 9 -3 15q0 15 22 15h55q16 0 22.5 -5.5t14.5 -24.5l175 -472l155 432q10 26 17 35t18 9q10 0 17 -9t17 -35l153 -429l175 469q8 18 15 24t22 6h54q22 0 22 -15q0 -6 -3 -15l-245 -630q-12 -32 -19.5 -42.5t-17.5 -10.5
q-18 0 -37 50l-155 425l-155 -425q-10 -29 -17.5 -39.5t-18.5 -10.5zM368 758q-3 0 -15 5l-30 17q-10 7 -10 14t8 15l109 105q15 14 34 14h38q19 0 34 -14l109 -105q8 -8 8 -15t-10 -14l-30 -17q-12 -5 -15 -5q-9 0 -20 11l-95 94l-95 -94q-11 -11 -20 -11z" />
    <glyph glyph-name="wcircumflex" unicode="&#x175;" horiz-adv-x="967" 
d="M295 -13q-11 0 -18.5 10.5t-19.5 42.5l-245 630q-3 9 -3 15q0 15 22 15h55q16 0 22.5 -5.5t14.5 -24.5l175 -472l155 432q10 26 17 35t18 9q10 0 17 -9t17 -35l153 -429l175 469q8 18 15 24t22 6h54q22 0 22 -15q0 -6 -3 -15l-245 -630q-12 -32 -19.5 -42.5t-17.5 -10.5
q-18 0 -37 50l-155 425l-155 -425q-10 -29 -17.5 -39.5t-18.5 -10.5zM368 758q-3 0 -15 5l-30 17q-10 7 -10 14t8 15l109 105q15 14 34 14h38q19 0 34 -14l109 -105q8 -8 8 -15t-10 -14l-30 -17q-12 -5 -15 -5q-9 0 -20 11l-95 94l-95 -94q-11 -11 -20 -11z" />
    <glyph glyph-name="Ycircumflex" unicode="&#x176;" horiz-adv-x="603" 
d="M487 675q10 16 17 20.5t23 4.5h59q19 0 19 -11q0 -2 -5 -14l-248 -411v-242q0 -13 -5 -17.5t-17 -4.5h-56q-12 0 -17 4.5t-5 17.5v237l-248 416q-5 12 -5 14q0 11 18 11h62q17 0 24 -4.5t17 -20.5l183 -316zM187 758q-3 0 -15 5l-30 17q-10 7 -10 14t8 15l109 105
q15 14 34 14h38q19 0 34 -14l109 -105q8 -8 8 -15t-10 -14l-30 -17q-12 -5 -15 -5q-9 0 -20 11l-95 94l-95 -94q-11 -11 -20 -11z" />
    <glyph glyph-name="ycircumflex" unicode="&#x177;" horiz-adv-x="603" 
d="M487 675q10 16 17 20.5t23 4.5h59q19 0 19 -11q0 -2 -5 -14l-248 -411v-242q0 -13 -5 -17.5t-17 -4.5h-56q-12 0 -17 4.5t-5 17.5v237l-248 416q-5 12 -5 14q0 11 18 11h62q17 0 24 -4.5t17 -20.5l183 -316zM187 758q-3 0 -15 5l-30 17q-10 7 -10 14t8 15l109 105
q15 14 34 14h38q19 0 34 -14l109 -105q8 -8 8 -15t-10 -14l-30 -17q-12 -5 -15 -5q-9 0 -20 11l-95 94l-95 -94q-11 -11 -20 -11z" />
    <glyph glyph-name="Ydieresis" unicode="&#x178;" horiz-adv-x="603" 
d="M487 675q10 16 17 20.5t23 4.5h59q19 0 19 -11q0 -2 -5 -14l-248 -411v-242q0 -13 -5 -17.5t-17 -4.5h-56q-12 0 -17 4.5t-5 17.5v237l-248 416q-5 12 -5 14q0 11 18 11h62q17 0 24 -4.5t17 -20.5l183 -316zM209 867q24 0 39 -14.5t15 -38.5q0 -23 -15 -38t-39 -15
t-38.5 15t-14.5 38q0 24 14.5 38.5t38.5 14.5zM394 867q25 0 39.5 -14.5t14.5 -38.5t-15 -38.5t-39 -14.5t-38.5 15t-14.5 38q0 24 14.5 38.5t38.5 14.5z" />
    <glyph glyph-name="Zacute" unicode="&#x179;" horiz-adv-x="581" 
d="M514 0h-463q-28 0 -28 15q0 5 8 19l354 571h-317q-22 1 -22 22v51q0 13 5 17.5t17 4.5h450q28 0 28 -15q0 -5 -8 -19l-355 -571h331q13 0 18 -4.5t5 -17.5v-51q0 -13 -5 -17.5t-18 -4.5zM437 890q0 -8 -11 -16l-150 -108q-14 -8 -18 -8q-6 0 -14 7l-25 20q-8 8 -8 13
q0 6 9 14l144 118q11 8 18 8q8 0 18 -9l29 -24q8 -8 8 -15z" />
    <glyph glyph-name="zacute" unicode="&#x17a;" horiz-adv-x="581" 
d="M514 0h-463q-28 0 -28 15q0 5 8 19l354 571h-317q-22 1 -22 22v51q0 13 5 17.5t17 4.5h450q28 0 28 -15q0 -5 -8 -19l-355 -571h331q13 0 18 -4.5t5 -17.5v-51q0 -13 -5 -17.5t-18 -4.5zM437 890q0 -8 -11 -16l-150 -108q-14 -8 -18 -8q-6 0 -14 7l-25 20q-8 8 -8 13
q0 6 9 14l144 118q11 8 18 8q8 0 18 -9l29 -24q8 -8 8 -15z" />
    <glyph glyph-name="Zdotaccent" unicode="&#x17b;" horiz-adv-x="581" 
d="M514 0h-463q-28 0 -28 15q0 5 8 19l354 571h-317q-22 1 -22 22v51q0 13 5 17.5t17 4.5h450q28 0 28 -15q0 -5 -8 -19l-355 -571h331q13 0 18 -4.5t5 -17.5v-51q0 -13 -5 -17.5t-18 -4.5zM290 871q26 0 42.5 -16t16.5 -41t-16.5 -40.5t-42.5 -15.5q-25 0 -42 16t-17 40
q0 25 17 41t42 16z" />
    <glyph glyph-name="zdotaccent" unicode="&#x17c;" horiz-adv-x="581" 
d="M514 0h-463q-28 0 -28 15q0 5 8 19l354 571h-317q-22 1 -22 22v51q0 13 5 17.5t17 4.5h450q28 0 28 -15q0 -5 -8 -19l-355 -571h331q13 0 18 -4.5t5 -17.5v-51q0 -13 -5 -17.5t-18 -4.5zM290 871q26 0 42.5 -16t16.5 -41t-16.5 -40.5t-42.5 -15.5q-25 0 -42 16t-17 40
q0 25 17 41t42 16z" />
    <glyph glyph-name="Zcaron" unicode="&#x17d;" horiz-adv-x="581" 
d="M514 0h-463q-28 0 -28 15q0 5 8 19l354 571h-317q-22 1 -22 22v51q0 13 5 17.5t17 4.5h450q28 0 28 -15q0 -5 -8 -19l-355 -571h331q13 0 18 -4.5t5 -17.5v-51q0 -13 -5 -17.5t-18 -4.5zM405 928q3 0 15 -5l30 -18q10 -6 10 -13t-8 -15l-109 -105q-15 -14 -34 -14h-38
q-19 0 -34 14l-109 105q-8 8 -8 15t10 13l30 18q12 5 15 5q9 0 20 -11l95 -94l95 94q11 11 20 11z" />
    <glyph glyph-name="zcaron" unicode="&#x17e;" horiz-adv-x="581" 
d="M514 0h-463q-28 0 -28 15q0 5 8 19l354 571h-317q-22 1 -22 22v51q0 13 5 17.5t17 4.5h450q28 0 28 -15q0 -5 -8 -19l-355 -571h331q13 0 18 -4.5t5 -17.5v-51q0 -13 -5 -17.5t-18 -4.5zM405 928q3 0 15 -5l30 -18q10 -6 10 -13t-8 -15l-109 -105q-15 -14 -34 -14h-38
q-19 0 -34 14l-109 105q-8 8 -8 15t10 13l30 18q12 5 15 5q9 0 20 -11l95 -94l95 94q11 11 20 11z" />
    <glyph glyph-name="florin" unicode="&#x192;" horiz-adv-x="599" 
d="M216 17q-51 -177 -204 -177q-62 0 -108 28q-13 10 -13 17q0 6 4 13l19 35q7 13 16 13q4 0 12 -3q31 -16 68 -16q80 0 114 114l74 260h-77q-22 0 -22 23v42q0 13 5 17.5t17 4.5h101l41 146q52 177 204 177q61 0 109 -28q13 -10 13 -17q0 -6 -4 -13l-20 -35q-7 -13 -15 -13
q-2 0 -4 0.5t-4.5 2t-3.5 1.5q-33 16 -68 16q-81 0 -115 -115l-35 -122h101q13 0 18 -4.5t5 -17.5v-42q0 -13 -5 -18t-18 -5h-124z" />
    <glyph glyph-name="Scommaaccent" unicode="&#x218;" horiz-adv-x="569" 
d="M510 632q11 -8 11 -15q0 -5 -8 -16l-29 -43q-8 -11 -16 -11q-6 0 -16 7q-86 63 -171 63q-58 0 -94 -28.5t-36 -75.5q0 -46 33.5 -69.5t120.5 -46.5q117 -29 168 -74t51 -126q0 -94 -71.5 -151t-185.5 -57q-128 0 -237 86q-11 11 -11 17q0 7 7 17l30 42q8 11 15 11
q4 0 15 -8q92 -71 183 -71q69 0 110 29t41 78q0 46 -33 69t-125 47q-112 28 -164 72.5t-52 128.5q0 93 66.5 148.5t169.5 55.5q127 0 228 -79zM346 -99q0 -31 -26 -79l-24 -47q-10 -16 -29 -16h-31q-16 0 -16 10q0 4 4 11l38 69q-41 9 -41 54q0 26 18 42.5t45 16.5t44.5 -17
t17.5 -44z" />
    <glyph glyph-name="scommaaccent" unicode="&#x219;" horiz-adv-x="569" 
d="M510 632q11 -8 11 -15q0 -5 -8 -16l-29 -43q-8 -11 -16 -11q-6 0 -16 7q-86 63 -171 63q-58 0 -94 -28.5t-36 -75.5q0 -46 33.5 -69.5t120.5 -46.5q117 -29 168 -74t51 -126q0 -94 -71.5 -151t-185.5 -57q-128 0 -237 86q-11 11 -11 17q0 7 7 17l30 42q8 11 15 11
q4 0 15 -8q92 -71 183 -71q69 0 110 29t41 78q0 46 -33 69t-125 47q-112 28 -164 72.5t-52 128.5q0 93 66.5 148.5t169.5 55.5q127 0 228 -79zM346 -99q0 -31 -26 -79l-24 -47q-10 -16 -29 -16h-31q-16 0 -16 10q0 4 4 11l38 69q-41 9 -41 54q0 26 18 42.5t45 16.5t44.5 -17
t17.5 -44z" />
    <glyph glyph-name="uni021A" unicode="&#x21a;" horiz-adv-x="574" 
d="M537 605h-188q-12 0 -12 -11v-572q0 -13 -5 -17.5t-17 -4.5h-56q-12 0 -17 4.5t-5 17.5v572q0 11 -12 11h-188q-12 0 -17 4.5t-5 17.5v51q0 13 5 17.5t17 4.5h500q12 0 17 -4.5t5 -17.5v-51q0 -13 -5 -17.5t-17 -4.5zM349 -99q0 -31 -26 -79l-24 -47q-10 -16 -29 -16h-31
q-16 0 -16 10q0 4 4 11l38 69q-41 9 -41 54q0 26 18 42.5t45 16.5t44.5 -17t17.5 -44z" />
    <glyph glyph-name="uni021B" unicode="&#x21b;" horiz-adv-x="574" 
d="M537 605h-188q-12 0 -12 -11v-572q0 -13 -5 -17.5t-17 -4.5h-56q-12 0 -17 4.5t-5 17.5v572q0 11 -12 11h-188q-12 0 -17 4.5t-5 17.5v51q0 13 5 17.5t17 4.5h500q12 0 17 -4.5t5 -17.5v-51q0 -13 -5 -17.5t-17 -4.5zM349 -99q0 -31 -26 -79l-24 -47q-10 -16 -29 -16h-31
q-16 0 -16 10q0 4 4 11l38 69q-41 9 -41 54q0 26 18 42.5t45 16.5t44.5 -17t17.5 -44z" />
    <glyph glyph-name="dotlessj" unicode="&#x237;" horiz-adv-x="283" 
d="M-40 -102q3 0 20 -1.5t25 -1.5q45 0 70 36t25 104v643q0 13 5 17.5t17 4.5h56q12 0 17 -4.5t5 -17.5v-651q0 -227 -187 -227q-41 0 -60 6q-17 4 -16 24l6 50q1 18 17 18z" />
    <glyph glyph-name="circumflex" unicode="&#x2c6;" horiz-adv-x="500" 
d="M135 758q-3 0 -15 5l-30 17q-10 7 -10 14t8 15l109 105q15 14 34 14h38q19 0 34 -14l109 -105q8 -8 8 -15t-10 -14l-30 -17q-12 -5 -15 -5q-9 0 -20 11l-95 94l-95 -94q-11 -11 -20 -11z" />
    <glyph glyph-name="caron" unicode="&#x2c7;" horiz-adv-x="500" 
d="M365 928q3 0 15 -5l30 -18q10 -6 10 -13t-8 -15l-109 -105q-15 -14 -34 -14h-38q-19 0 -34 14l-109 105q-8 8 -8 15t10 13l30 18q12 5 15 5q9 0 20 -11l95 -94l95 94q11 11 20 11z" />
    <glyph glyph-name="uni02C9" unicode="&#x2c9;" horiz-adv-x="500" 
d="M108 802v36q0 12 4.5 16.5t17.5 4.5h240q13 0 17.5 -4.5t4.5 -16.5v-36q0 -12 -4.5 -16t-17.5 -4h-240q-13 0 -17.5 4t-4.5 16z" />
    <glyph glyph-name="breve" unicode="&#x2d8;" horiz-adv-x="500" 
d="M101 894q0 16 14 16h44q8 0 11 -3t5 -12q8 -65 75 -65q32 0 51.5 17t23.5 48q2 9 5 12t11 3h44q14 0 14 -16q0 -59 -38.5 -97.5t-112.5 -38.5q-72 0 -109.5 38t-37.5 98z" />
    <glyph glyph-name="dotaccent" unicode="&#x2d9;" horiz-adv-x="500" 
d="M250 871q26 0 42.5 -16t16.5 -41t-16.5 -40.5t-42.5 -15.5q-25 0 -42 16t-17 40q0 25 17 41t42 16z" />
    <glyph glyph-name="ring" unicode="&#x2da;" horiz-adv-x="500" 
d="M250 989q56 0 95.5 -39.5t39.5 -94.5q0 -56 -39.5 -95.5t-95.5 -39.5t-95.5 39.5t-39.5 95.5q0 55 39.5 94.5t95.5 39.5zM250 791q26 0 45 18.5t19 45.5q0 26 -19 44.5t-45 18.5t-45 -18.5t-19 -44.5q0 -27 19 -45.5t45 -18.5z" />
    <glyph glyph-name="ogonek" unicode="&#x2db;" horiz-adv-x="500" 
d="M363 -164q0 -10 -12 -17q-38 -25 -89 -25q-54 0 -88 30.5t-34 77.5q0 78 94 127l53 -25q-74 -35 -74 -91q0 -24 16 -38.5t40 -14.5q30 0 57 15q7 4 11 4q5 0 12 -9l11 -23q3 -6 3 -11z" />
    <glyph glyph-name="tilde" unicode="&#x2dc;" horiz-adv-x="500" 
d="M236 788q-36 18 -58 18q-34 0 -63 -35q-6 -7 -12 -7q-5 0 -11 6l-24 30q-4 4 -4 10q0 4 6 12q44 56 110 56q33 0 84 -24q36 -18 58 -18q34 0 63 35q6 7 12 7q5 0 11 -6l24 -30q4 -4 4 -10q0 -4 -6 -13q-44 -55 -110 -55q-36 0 -84 24z" />
    <glyph glyph-name="hungarumlaut" unicode="&#x2dd;" horiz-adv-x="500" 
d="M301 896q0 -7 -11 -16l-136 -113q-13 -9 -19 -9t-15 6l-26 18q-9 6 -9 13t9 14l131 119q10 10 16 10q7 0 18 -8l31 -19q11 -8 11 -15zM494 895q0 -8 -11 -16l-143 -112q-12 -9 -20 -9q-6 0 -14 6l-26 18q-8 8 -8 13q0 7 9 14l137 119q14 10 18 10q6 0 17 -8l31 -20
q10 -7 10 -15z" />
    <glyph glyph-name="commaaccent" unicode="&#x326;" horiz-adv-x="0" 
d="M-187 -99q0 -31 -26 -79l-24 -47q-10 -16 -29 -16h-31q-16 0 -16 10q0 4 4 11l38 69q-41 9 -41 54q0 26 18 42.5t45 16.5t44.5 -17t17.5 -44z" />
    <glyph glyph-name="uni0394" unicode="&#x394;" 
d="M0 15q0 5 5 18l297 628q15 31 23.5 41.5t18.5 10.5t18.5 -10.5t22.5 -41.5l298 -628q5 -13 5 -18q0 -15 -22 -15h-644q-22 0 -22 15zM342 535l-201 -440h402z" />
    <glyph glyph-name="uni03A9" unicode="&#x3a9;" horiz-adv-x="792" 
d="M396 616q-109 0 -175 -69t-66 -181q0 -81 39 -151t108 -120q15 -13 15 -33v-40q0 -13 -5 -17.5t-17 -4.5h-226q-12 0 -17 4.5t-5 17.5v51q0 13 5 17.5t17 4.5h116q-134 114 -134 276q-2 146 96.5 244t248.5 96q150 2 248.5 -95t96.5 -241q0 -164 -135 -280h117
q13 0 17.5 -4.5t4.5 -17.5v-51q0 -13 -4.5 -17.5t-17.5 -4.5h-226q-12 0 -17 4.5t-5 17.5v40q0 20 15 33q69 50 108 120t39 151q0 111 -66.5 180.5t-174.5 69.5z" />
    <glyph glyph-name="uni03BC" unicode="&#x3bc;" horiz-adv-x="589" 
d="M96 490h62q18 0 18 -18v-245q0 -148 119 -148q121 0 121 148v245q0 18 18 18h62q17 0 17 -18v-253q0 -111 -56 -170.5t-162 -59.5q-83 0 -119 46v-243q0 -13 -5 -17.5t-17 -4.5h-54q-12 0 -16.5 4.5t-4.5 17.5v680q0 18 17 18z" />
    <glyph glyph-name="pi" unicode="&#x3c0;" horiz-adv-x="600" 
d="M47 401q-15 0 -21.5 5t-6.5 17v46q0 21 24 21h517q23 0 23 -21v-46q0 -22 -23 -22h-93v-231q0 -54 9.5 -73.5t34.5 -19.5q7 0 18.5 2t14.5 2q11 0 13 -14l6 -48v-4q0 -14 -15 -19q-21 -8 -56 -8q-67 0 -95 39.5t-28 131.5v242h-163v-380q0 -21 -20 -21h-56q-20 0 -20 21
v380h-63z" />
    <glyph glyph-name="uni058F" unicode="&#x58f;" horiz-adv-x="638" 
d="M491 256h90l-10 -51h-90l-41 -205h-87l42 205h-141l10 51h141l17 81h-142l10 51h142l5 25q9 49 9 77q0 69 -33.5 106t-96.5 37q-72 0 -113 -44.5t-64 -145.5l-12 -56h-84l13 62q29 145 92.5 204t170.5 59q102 0 158.5 -52.5t56.5 -154.5q0 -36 -12 -96l-4 -21h89l-10 -51
h-89z" />
    <glyph glyph-name="uni060B" unicode="&#x60b;" horiz-adv-x="583" 
d="M260 547q0 26 17.5 42.5t43.5 16.5t43.5 -16.5t17.5 -42.5q0 -25 -17.5 -42t-43.5 -17t-43.5 17t-17.5 42zM522 217q0 -107 -65 -162t-191 -55h-232v81h227q21 0 37 2q-59 22 -90 65t-31 101q0 76 48 123.5t121 47.5q78 0 127 -54t49 -149zM429 217q0 54 -22 85t-61 31
q-34 0 -55 -24t-21 -61q0 -97 135 -115q24 31 24 84zM357 -51v-191h-71v191h71z" />
    <glyph glyph-name="uni09F2" unicode="&#x9f2;" horiz-adv-x="631" 
d="M4 629l103 93q111 -56 215.5 -173t181.5 -258t123 -291h-84q-87 220 -227.5 385.5t-311.5 243.5z" />
    <glyph glyph-name="uni09F3" unicode="&#x9f3;" horiz-adv-x="602" 
d="M55 502h97v53q0 96 -63 96q-16 0 -37 -4l-9 56q43 9 80 9q120 0 120 -153v-57h288v-70h-288v-245q0 -138 121 -138q66 0 107.5 39.5t41.5 102.5q0 42 -19 67t-51 25q-20 0 -31 -8q17 -8 17 -28q0 -15 -11 -25.5t-28 -10.5q-19 0 -30 12t-11 32q0 30 25.5 49.5t66.5 19.5
q49 0 82.5 -35.5t33.5 -98.5q0 -87 -59.5 -144.5t-166.5 -57.5q-92 0 -135.5 47.5t-43.5 147.5v249h-97v70z" />
    <glyph glyph-name="uni0AF1" unicode="&#xaf1;" horiz-adv-x="815" 
d="M44 247q0 25 16 41.5t43 16.5q49 0 57 -52l2 -19q19 -8 49 -8q44 0 68 24.5t24 66.5q0 41 -28 65.5t-74 24.5h-58v78h58q46 0 74 20t28 56q0 35 -22.5 53t-62.5 18q-57 0 -120 -28l-29 71q82 38 165 38q74 0 118.5 -37t44.5 -101q0 -52 -28.5 -84t-76.5 -44
q47 -12 76 -47.5t29 -88.5q0 -75 -47.5 -120.5t-128.5 -45.5q-24 0 -48 6l11 -87q6 -50 27 -71t60 -21q28 0 57 7l10 -74q-32 -13 -82 -13q-64 0 -100 36t-46 112l-17 130q-49 34 -49 77zM771 305q0 -70 -47.5 -115t-114.5 -45q-68 0 -115.5 45t-47.5 115q0 69 47.5 114.5
t115.5 45.5q67 0 114.5 -45.5t47.5 -114.5zM690 305q0 34 -24 58t-57 24q-35 0 -58.5 -23.5t-23.5 -58.5t23.5 -58.5t58.5 -23.5q33 0 57 23.5t24 58.5z" />
    <glyph glyph-name="uni0BF9" unicode="&#xbf9;" horiz-adv-x="1087" 
d="M1048 338h-166v67q0 110 -77 130q14 -34 14 -65q0 -49 -27.5 -79t-75.5 -30q-46 0 -72 26.5t-26 71.5q0 37 20 70t55 52q-93 70 -247 70q-150 0 -238 -83.5t-88 -221.5q0 -131 73.5 -208.5t191.5 -77.5q101 0 157.5 42t56.5 114q0 47 -25.5 72.5t-65.5 25.5q-19 0 -24 -1
v-119h-75v252h-95v-252h-75v318h321v-66h-76v-69q20 3 42 3q67 0 110 -42.5t43 -121.5q0 -109 -78 -171.5t-216 -62.5q-155 0 -250.5 98.5t-95.5 264.5q-2 170 111.5 277.5t296.5 106.5q100 0 184.5 -35t134.5 -94h9q80 0 126.5 -50.5t46.5 -141.5v-9h100v-61zM739 534
q-29 -8 -45 -28t-16 -47q0 -18 10 -29.5t28 -11.5q20 0 31.5 14.5t11.5 38.5q0 31 -20 63z" />
    <glyph glyph-name="uni0E3F" unicode="&#xe3f;" horiz-adv-x="619" 
d="M108 700h173v78q0 12 4.5 17t17.5 5h26q13 0 17.5 -5t4.5 -17v-80q210 -20 210 -184q0 -115 -104 -152q58 -15 91 -55t33 -102q0 -186 -230 -203v-110q0 -12 -4.5 -17t-17.5 -5h-26q-13 0 -17.5 5t-4.5 17v108h-173q-12 0 -17 4.5t-5 17.5v656q0 13 5 17.5t17 4.5z
M281 608h-86q-12 0 -12 -12v-189q0 -12 12 -12h86v213zM460 502q0 87 -109 102v-206q109 13 109 104zM281 310h-86q-12 0 -12 -12v-194q0 -12 12 -12h86v218zM480 206q0 91 -129 102v-214q67 6 98 33t31 79z" />
    <glyph glyph-name="uni17DB" unicode="&#x17db;" horiz-adv-x="509" 
d="M169 376h94v89h-39q-48 0 -80.5 27t-32.5 74q-2 56 60.5 105.5t127.5 47.5q91 0 172 -74l-38 -53q-78 62 -134 62q-34 0 -76 -29.5t-42 -57.5q0 -37 56 -37h125v-154h88v-61h-88v-325h-88q-115 0 -179.5 45t-64.5 124q0 68 56 116l76 -55q-27 -28 -27 -64t36.5 -62.5
t91.5 -27.5v248h-94v62z" />
    <glyph glyph-name="Wgrave" unicode="&#x1e80;" horiz-adv-x="967" 
d="M295 -13q-11 0 -18.5 10.5t-19.5 42.5l-245 630q-3 9 -3 15q0 15 22 15h55q16 0 22.5 -5.5t14.5 -24.5l175 -472l155 432q10 26 17 35t18 9q10 0 17 -9t17 -35l153 -429l175 469q8 18 15 24t22 6h54q22 0 22 -15q0 -6 -3 -15l-245 -630q-12 -32 -19.5 -42.5t-17.5 -10.5
q-18 0 -37 50l-155 425l-155 -425q-10 -29 -17.5 -39.5t-18.5 -10.5zM391 938q7 0 18 -8l144 -118q10 -7 10 -14q0 -6 -9 -13l-25 -20q-8 -7 -14 -7q-4 0 -18 8l-150 108q-11 8 -11 16q0 7 8 15l29 24q11 9 18 9z" />
    <glyph glyph-name="wgrave" unicode="&#x1e81;" horiz-adv-x="967" 
d="M295 -13q-11 0 -18.5 10.5t-19.5 42.5l-245 630q-3 9 -3 15q0 15 22 15h55q16 0 22.5 -5.5t14.5 -24.5l175 -472l155 432q10 26 17 35t18 9q10 0 17 -9t17 -35l153 -429l175 469q8 18 15 24t22 6h54q22 0 22 -15q0 -6 -3 -15l-245 -630q-12 -32 -19.5 -42.5t-17.5 -10.5
q-18 0 -37 50l-155 425l-155 -425q-10 -29 -17.5 -39.5t-18.5 -10.5zM391 938q7 0 18 -8l144 -118q10 -7 10 -14q0 -6 -9 -13l-25 -20q-8 -7 -14 -7q-4 0 -18 8l-150 108q-11 8 -11 16q0 7 8 15l29 24q11 9 18 9z" />
    <glyph glyph-name="Wacute" unicode="&#x1e82;" horiz-adv-x="967" 
d="M295 -13q-11 0 -18.5 10.5t-19.5 42.5l-245 630q-3 9 -3 15q0 15 22 15h55q16 0 22.5 -5.5t14.5 -24.5l175 -472l155 432q10 26 17 35t18 9q10 0 17 -9t17 -35l153 -429l175 469q8 18 15 24t22 6h54q22 0 22 -15q0 -6 -3 -15l-245 -630q-12 -32 -19.5 -42.5t-17.5 -10.5
q-18 0 -37 50l-155 425l-155 -425q-10 -29 -17.5 -39.5t-18.5 -10.5zM630 890q0 -8 -11 -16l-150 -108q-14 -8 -18 -8q-6 0 -14 7l-25 20q-8 8 -8 13q0 6 9 14l144 118q11 8 18 8t18 -9l29 -24q8 -8 8 -15z" />
    <glyph glyph-name="wacute" unicode="&#x1e83;" horiz-adv-x="967" 
d="M295 -13q-11 0 -18.5 10.5t-19.5 42.5l-245 630q-3 9 -3 15q0 15 22 15h55q16 0 22.5 -5.5t14.5 -24.5l175 -472l155 432q10 26 17 35t18 9q10 0 17 -9t17 -35l153 -429l175 469q8 18 15 24t22 6h54q22 0 22 -15q0 -6 -3 -15l-245 -630q-12 -32 -19.5 -42.5t-17.5 -10.5
q-18 0 -37 50l-155 425l-155 -425q-10 -29 -17.5 -39.5t-18.5 -10.5zM630 890q0 -8 -11 -16l-150 -108q-14 -8 -18 -8q-6 0 -14 7l-25 20q-8 8 -8 13q0 6 9 14l144 118q11 8 18 8t18 -9l29 -24q8 -8 8 -15z" />
    <glyph glyph-name="Wdieresis" unicode="&#x1e84;" horiz-adv-x="967" 
d="M295 -13q-11 0 -18.5 10.5t-19.5 42.5l-245 630q-3 9 -3 15q0 15 22 15h55q16 0 22.5 -5.5t14.5 -24.5l175 -472l155 432q10 26 17 35t18 9q10 0 17 -9t17 -35l153 -429l175 469q8 18 15 24t22 6h54q22 0 22 -15q0 -6 -3 -15l-245 -630q-12 -32 -19.5 -42.5t-17.5 -10.5
q-18 0 -37 50l-155 425l-155 -425q-10 -29 -17.5 -39.5t-18.5 -10.5zM390 867q24 0 39 -14.5t15 -38.5q0 -23 -15 -38t-39 -15t-38.5 15t-14.5 38q0 24 14.5 38.5t38.5 14.5zM575 867q25 0 39.5 -14.5t14.5 -38.5t-14.5 -38.5t-39.5 -14.5q-24 0 -38.5 15t-14.5 38
q0 24 14.5 38.5t38.5 14.5z" />
    <glyph glyph-name="wdieresis" unicode="&#x1e85;" horiz-adv-x="967" 
d="M295 -13q-11 0 -18.5 10.5t-19.5 42.5l-245 630q-3 9 -3 15q0 15 22 15h55q16 0 22.5 -5.5t14.5 -24.5l175 -472l155 432q10 26 17 35t18 9q10 0 17 -9t17 -35l153 -429l175 469q8 18 15 24t22 6h54q22 0 22 -15q0 -6 -3 -15l-245 -630q-12 -32 -19.5 -42.5t-17.5 -10.5
q-18 0 -37 50l-155 425l-155 -425q-10 -29 -17.5 -39.5t-18.5 -10.5zM390 867q24 0 39 -14.5t15 -38.5q0 -23 -15 -38t-39 -15t-38.5 15t-14.5 38q0 24 14.5 38.5t38.5 14.5zM575 867q25 0 39.5 -14.5t14.5 -38.5t-14.5 -38.5t-39.5 -14.5q-24 0 -38.5 15t-14.5 38
q0 24 14.5 38.5t38.5 14.5z" />
    <glyph glyph-name="Germandbls" unicode="&#x1e9e;" horiz-adv-x="785" 
d="M545 378q108 -29 155 -71t47 -118q0 -90 -68 -145t-176 -55q-130 0 -226 80q-10 7 -10 15q0 7 7 17l29 43q8 11 15 11q6 0 15 -7q81 -65 171 -65q64 0 101 26.5t37 73.5q0 42 -30.5 64t-113.5 45q-101 26 -148 68.5t-47 118.5q0 46 23.5 83t65.5 57l-26 1q-88 0 -136 -54
q-45 -51 -45 -167v-377q0 -13 -5 -17.5t-17 -4.5h-56q-12 0 -17 4.5t-5 17.5v385q0 84 16.5 135t55.5 91q80 80 226 80q71 0 154 -20q84 -20 140 -49q15 -10 15 -19q0 -7 -6 -17l-22 -38q-7 -13 -16 -13q-4 0 -17 5q-58 26 -113 26q-48 0 -80 -28.5t-32 -69.5
q0 -44 30.5 -67.5t108.5 -44.5z" />
    <glyph glyph-name="Ygrave" unicode="&#x1ef2;" horiz-adv-x="603" 
d="M487 675q10 16 17 20.5t23 4.5h59q19 0 19 -11q0 -2 -5 -14l-248 -411v-242q0 -13 -5 -17.5t-17 -4.5h-56q-12 0 -17 4.5t-5 17.5v237l-248 416q-5 12 -5 14q0 11 18 11h62q17 0 24 -4.5t17 -20.5l183 -316zM210 938q7 0 18 -8l144 -118q10 -7 10 -14q0 -6 -9 -13
l-25 -20q-8 -7 -14 -7q-4 0 -18 8l-150 108q-11 8 -11 16q0 7 8 15l29 24q10 9 18 9z" />
    <glyph glyph-name="ygrave" unicode="&#x1ef3;" horiz-adv-x="603" 
d="M487 675q10 16 17 20.5t23 4.5h59q19 0 19 -11q0 -2 -5 -14l-248 -411v-242q0 -13 -5 -17.5t-17 -4.5h-56q-12 0 -17 4.5t-5 17.5v237l-248 416q-5 12 -5 14q0 11 18 11h62q17 0 24 -4.5t17 -20.5l183 -316zM210 938q7 0 18 -8l144 -118q10 -7 10 -14q0 -6 -9 -13
l-25 -20q-8 -7 -14 -7q-4 0 -18 8l-150 108q-11 8 -11 16q0 7 8 15l29 24q10 9 18 9z" />
    <glyph glyph-name="endash" unicode="&#x2013;" horiz-adv-x="600" 
d="M528 299h-456q-12 0 -17 4.5t-5 17.5v42q0 13 5 17.5t17 4.5h456q12 0 17 -4.5t5 -17.5v-42q0 -13 -5 -17.5t-17 -4.5z" />
    <glyph glyph-name="emdash" unicode="&#x2014;" horiz-adv-x="840" 
d="M768 299h-696q-12 0 -17 4.5t-5 17.5v42q0 13 5 17.5t17 4.5h696q12 0 17 -4.5t5 -17.5v-42q0 -13 -5 -17.5t-17 -4.5z" />
    <glyph glyph-name="uni2015" unicode="&#x2015;" horiz-adv-x="500" 
d="M61 308h378q12 0 17 -4.5t5 -17.5v-42q0 -13 -5 -17.5t-17 -4.5h-378q-12 0 -17 4.5t-5 17.5v42q0 13 5 17.5t17 4.5z" />
    <glyph glyph-name="quoteleft" unicode="&#x2018;" horiz-adv-x="227" 
d="M51 555q0 35 26 83l28 55q10 16 29 16h31q16 0 16 -10q0 -4 -4 -11l-42 -78q41 -12 41 -57q0 -27 -17.5 -44.5t-44.5 -17.5q-28 0 -45.5 17t-17.5 47z" />
    <glyph glyph-name="quoteright" unicode="&#x2019;" horiz-adv-x="227" 
d="M176 646q0 -35 -26 -83l-28 -55q-6 -11 -11.5 -14t-17.5 -3h-31q-16 0 -16 10l4 12l42 78q-18 4 -29.5 19t-11.5 38q0 27 17.5 44t43.5 17q30 0 47 -16.5t17 -46.5z" />
    <glyph glyph-name="quotesinglbase" unicode="&#x201a;" horiz-adv-x="227" 
d="M176 46q0 -35 -26 -83l-28 -55q-6 -11 -11.5 -14t-17.5 -3h-31q-16 0 -16 10l4 12l42 78q-18 4 -29.5 19t-11.5 38q0 27 17.5 44.5t43.5 17.5q28 0 46 -17.5t18 -46.5z" />
    <glyph glyph-name="quotedblleft" unicode="&#x201c;" horiz-adv-x="378" 
d="M51 555q0 35 26 83l28 55q10 16 29 16h31q16 0 16 -10q0 -4 -4 -11l-42 -78q41 -12 41 -57q0 -27 -17.5 -44.5t-44.5 -17.5q-28 0 -45.5 17t-17.5 47zM203 555q0 34 25 83l29 55q9 16 28 16h31q16 0 16 -10q0 -7 -4 -11l-42 -78q41 -12 41 -57q0 -27 -17 -44.5t-44 -17.5
q-28 0 -45.5 17t-17.5 47z" />
    <glyph glyph-name="quotedblright" unicode="&#x201d;" horiz-adv-x="378" 
d="M176 646q0 -35 -26 -83l-28 -55q-6 -11 -11.5 -14t-17.5 -3h-31q-16 0 -16 10l4 12l42 78q-18 4 -29.5 19t-11.5 38q0 27 17.5 44t43.5 17q30 0 47 -16.5t17 -46.5zM327 646q0 -35 -26 -83l-28 -55q-6 -11 -11.5 -14t-17.5 -3h-31q-16 0 -16 10l4 12l42 78q-40 9 -40 57
q0 27 17.5 44t43.5 17q28 0 45.5 -17t17.5 -46z" />
    <glyph glyph-name="quotedblbase" unicode="&#x201e;" horiz-adv-x="378" 
d="M176 46q0 -35 -26 -83l-28 -55q-6 -11 -11.5 -14t-17.5 -3h-31q-16 0 -16 10l4 12l42 78q-18 4 -29.5 19t-11.5 38q0 27 17.5 44.5t43.5 17.5q28 0 46 -17.5t18 -46.5zM327 46q0 -35 -26 -83l-28 -55q-6 -11 -11.5 -14t-17.5 -3h-31q-16 0 -16 10l4 12l42 78
q-40 9 -40 57q0 27 17.5 44.5t43.5 17.5q28 0 45.5 -17t17.5 -47z" />
    <glyph glyph-name="dagger" unicode="&#x2020;" horiz-adv-x="440" 
d="M22 416v40q0 22 22 22h121q12 0 12 11v189q0 12 4.5 17t17.5 5h42q13 0 17.5 -5t4.5 -17v-189q0 -11 12 -11h121q23 0 23 -22v-40q0 -13 -5 -17.5t-18 -4.5h-121q-12 0 -12 -12v-428q0 -12 -4.5 -17t-17.5 -5h-42q-13 0 -17.5 5t-4.5 17v428q0 12 -12 12h-121
q-12 0 -17 4.5t-5 17.5z" />
    <glyph glyph-name="daggerdbl" unicode="&#x2021;" horiz-adv-x="440" 
d="M165 452h-121q-22 0 -22 23v39q0 13 5 17.5t17 4.5h121q12 0 12 12v130q0 12 4.5 17t17.5 5h42q13 0 17.5 -5t4.5 -17v-130q0 -12 12 -12h121q13 0 18 -4.5t5 -17.5v-39q0 -13 -5 -18t-18 -5h-121q-12 0 -12 -11v-250q0 -12 12 -12h121q13 0 18 -4.5t5 -17.5v-39
q0 -13 -5 -17.5t-18 -4.5h-121q-12 0 -12 -12v-130q0 -12 -4.5 -17t-17.5 -5h-42q-13 0 -17.5 5t-4.5 17v130q0 12 -12 12h-121q-12 0 -17 4.5t-5 17.5v39q0 13 5 17.5t17 4.5h121q12 0 12 12v250q0 11 -12 11z" />
    <glyph glyph-name="bullet" unicode="&#x2022;" horiz-adv-x="264" 
d="M132 438q36 0 61 -25.5t25 -60.5t-25 -60.5t-61 -25.5q-35 0 -60.5 25.5t-25.5 60.5t25.5 60.5t60.5 25.5z" />
    <glyph glyph-name="ellipsis" unicode="&#x2026;" horiz-adv-x="673" 
d="M113 110q27 0 45 -17t18 -43t-18 -42.5t-45 -16.5t-44.5 16.5t-17.5 42.5t18 43t44 17zM337 110q27 0 44.5 -17t17.5 -43t-17.5 -42.5t-44.5 -16.5t-45 16.5t-18 42.5t18 43t45 17zM560 110q27 0 44.5 -17t17.5 -43t-17.5 -42.5t-44.5 -16.5t-44.5 16.5t-17.5 42.5t18 43
t44 17z" />
    <glyph glyph-name="perthousand" unicode="&#x2030;" horiz-adv-x="1079" 
d="M26 532q0 81 44 130t114 49q67 0 110.5 -47.5t43.5 -127.5q0 -81 -43.5 -130t-113.5 -49q-69 0 -112 47.5t-43 127.5zM109 -11h-42q-20 0 -20 11q0 8 14 24l528 666q10 13 16.5 17t21.5 4h42q20 0 20 -11q0 -8 -14 -24l-528 -666q-10 -13 -16.5 -17t-21.5 -4zM260 534
q0 48 -21.5 76.5t-56.5 28.5q-36 0 -56.5 -28.5t-20.5 -76.5q0 -49 21 -77t56 -28q36 0 57 28.5t21 76.5zM398 164q0 81 43.5 130t113.5 49q69 0 112 -47.5t43 -127.5q0 -81 -44 -130t-114 -49q-67 0 -110.5 47.5t-43.5 127.5zM750 164q0 81 44 130t114 49q67 0 110.5 -47.5
t43.5 -127.5q0 -81 -44 -130t-114 -49q-67 0 -110.5 47.5t-43.5 127.5zM631 166q0 49 -21 77t-56 28q-36 0 -57 -28.5t-21 -76.5t21.5 -76.5t56.5 -28.5t56 29t21 76zM984 166q0 48 -21.5 76.5t-56.5 28.5q-36 0 -57 -28.5t-21 -76.5t21.5 -76.5t56.5 -28.5q36 0 57 28.5
t21 76.5z" />
    <glyph glyph-name="guilsinglleft" unicode="&#x2039;" horiz-adv-x="281" 
d="M241 191q0 -7 -6 -17l-19 -35q-6 -12 -15 -12q-8 0 -15 10l-134 152q-22 24 -22 48v26q0 24 22 48l134 152q7 10 15 10q9 0 15 -12l19 -35q6 -11 6 -17q0 -8 -11 -22l-122 -137l122 -137q11 -14 11 -22z" />
    <glyph glyph-name="guilsinglright" unicode="&#x203a;" horiz-adv-x="281" 
d="M40 509q0 7 6 17l19 35q6 12 14 12q7 0 16 -10l134 -152q22 -24 22 -48v-26q0 -24 -22 -48l-134 -152q-9 -10 -16 -10q-8 0 -14 12l-19 35q-6 10 -6 17q0 8 11 22l122 137l-122 137q-11 14 -11 22z" />
    <glyph glyph-name="fraction" unicode="&#x2044;" horiz-adv-x="181" 
d="M-156 -11h-40q-20 0 -20 12q0 8 13 23l503 666q10 13 16.5 17t20.5 4h40q20 0 20 -12q0 -3 -2.5 -8t-6 -9.5t-4.5 -5.5l-504 -666q-9 -13 -15.5 -17t-20.5 -4z" />
    <glyph glyph-name="zero.superior" unicode="&#x2070;" horiz-adv-x="399" 
d="M200 849q76 0 123.5 -57t47.5 -151t-48.5 -151.5t-123.5 -57.5q-76 0 -123.5 56.5t-47.5 150.5t48 152t124 58zM199 504q42 0 67.5 38t25.5 98q0 63 -25 100t-68 37t-67.5 -37t-24.5 -100q0 -62 24.5 -99t67.5 -37z" />
    <glyph glyph-name="four.superior" unicode="&#x2074;" horiz-adv-x="364" 
d="M334 596q15 0 15 -15v-37q0 -16 -15 -16h-41v-72q0 -15 -15 -15h-46q-16 0 -16 15v72h-184q-26 0 -26 19q0 11 10 22l219 257q21 25 36 25q22 0 22 -30v-225h41zM217 719l-102 -123h102v123z" />
    <glyph glyph-name="five.superior" unicode="&#x2075;" horiz-adv-x="364" 
d="M122 758l-4 -70q27 9 62 9q67 0 107.5 -34.5t40.5 -88.5q0 -61 -45.5 -101.5t-125.5 -40.5q-73 0 -129 38q-10 6 -10 12q0 7 4 11l20 33q6 9 11 9t9 -4q43 -29 95 -29q44 0 67.5 18t23.5 51q0 29 -23 45.5t-63 16.5q-50 0 -98 -17q-8 -2 -9 -2q-12 0 -10 17l10 190
q1 11 5 15t15 4h216q16 0 16 -15v-40q0 -15 -16 -15h-157q-12 0 -12 -12z" />
    <glyph glyph-name="six.superior" unicode="&#x2076;" horiz-adv-x="364" 
d="M186 840h56q13 0 13 -8q0 -2 -5 -10l-85 -113q18 7 38 7q59 0 100 -37.5t41 -98.5q0 -66 -47.5 -107t-117.5 -41t-114 39t-44 101q0 66 60 146l78 107q13 15 27 15zM181 502q37 0 60.5 21t23.5 55q0 33 -22.5 53t-58.5 20q-37 0 -60.5 -20.5t-23.5 -54.5
q0 -33 22.5 -53.5t58.5 -20.5z" />
    <glyph glyph-name="seven.superior" unicode="&#x2077;" horiz-adv-x="364" 
d="M160 441h-50q-13 0 -13 8q0 4 3 10l137 310h-194q-15 0 -15 15v41q0 15 15 15h283q15 0 15 -9q0 -5 -3 -13l-154 -360q-7 -17 -24 -17z" />
    <glyph glyph-name="eight.superior" unicode="&#x2078;" horiz-adv-x="364" 
d="M326 734q0 -61 -57 -86q68 -25 68 -94q0 -59 -42 -90.5t-115 -31.5q-70 0 -112 31.5t-42 88.5q0 70 68 96q-56 23 -56 85q0 52 40 84t106 32q64 0 103 -32t39 -83zM116 729q0 -24 18 -38.5t48 -14.5q28 0 47 14.5t19 38.5q0 25 -18 39.5t-48 14.5t-48 -14.5t-18 -39.5z
M182 616q-32 0 -54 -16t-22 -43q0 -28 20 -43.5t56 -15.5q35 0 55.5 15.5t20.5 43.5q0 27 -22 43t-54 16z" />
    <glyph glyph-name="nine.superior" unicode="&#x2079;" horiz-adv-x="364" 
d="M178 441h-56q-13 0 -13 7q0 2 5 10l85 113q-16 -6 -38 -6q-59 0 -100 37.5t-41 98.5q0 66 47.5 106.5t117.5 40.5t114 -38.5t44 -101.5q0 -67 -60 -145l-78 -107q-13 -15 -27 -15zM183 779q-37 0 -60.5 -21t-23.5 -56q0 -33 22 -53t59 -20t60.5 20.5t23.5 55.5
q0 33 -23 53.5t-58 20.5z" />
    <glyph glyph-name="zero.inferior" unicode="&#x2080;" horiz-adv-x="399" 
d="M200 270q76 0 123.5 -57t47.5 -151t-48.5 -151.5t-123.5 -57.5q-76 0 -123.5 56.5t-47.5 150.5t48 152t124 58zM199 -75q42 0 67.5 38t25.5 98q0 63 -25 100t-68 37t-67.5 -37t-24.5 -100q0 -62 24.5 -99t67.5 -37z" />
    <glyph glyph-name="one.inferior" unicode="&#x2081;" horiz-adv-x="266" 
d="M178 246v-369q0 -15 -15 -15h-46q-16 0 -16 15v305q0 9 -9 9h-48q-15 0 -15 15v40q0 15 15 15h119q15 0 15 -15z" />
    <glyph glyph-name="two.inferior" unicode="&#x2082;" horiz-adv-x="364" 
d="M309 -138h-274q-15 0 -15 8q0 6 6 13l131 145q68 75 68 113q0 27 -17.5 42t-47.5 15q-47 0 -85 -32q-8 -5 -10 -5q-6 0 -10 7l-21 32q-4 4 -4 11q0 6 7 12q56 47 127 47q63 0 101.5 -34t38.5 -89q0 -33 -14.5 -62t-51.5 -69l-74 -83h145q16 0 16 -15v-41q0 -15 -16 -15z
" />
    <glyph glyph-name="three.inferior" unicode="&#x2083;" horiz-adv-x="364" 
d="M253 -8q0 65 -114 65q-16 0 -16 9q0 3 5 11l77 113h-150q-16 0 -16 15v41q0 15 16 15h260q13 0 13 -8q0 -7 -6 -14l-93 -132q49 -8 76 -37t27 -76q0 -62 -47 -101.5t-124 -39.5q-80 0 -136 46q-9 7 -9 14q0 6 4 10l21 33q6 9 12 9q4 0 9 -5q42 -35 100 -35
q40 0 65.5 18.5t25.5 48.5z" />
    <glyph glyph-name="four.inferior" unicode="&#x2084;" horiz-adv-x="364" 
d="M334 17q15 0 15 -15v-37q0 -16 -15 -16h-41v-72q0 -15 -15 -15h-46q-16 0 -16 15v72h-184q-26 0 -26 19q0 11 10 22l219 257q21 25 36 25q22 0 22 -30v-225h41zM217 140l-102 -123h102v123z" />
    <glyph glyph-name="five.inferior" unicode="&#x2085;" horiz-adv-x="364" 
d="M122 179l-4 -70q27 9 62 9q67 0 107.5 -34.5t40.5 -88.5q0 -61 -45.5 -101.5t-125.5 -40.5q-73 0 -129 38q-10 6 -10 12q0 7 4 11l20 33q6 9 11 9t9 -4q43 -29 95 -29q44 0 67.5 18t23.5 51q0 29 -23 45.5t-63 16.5q-50 0 -98 -17q-8 -2 -9 -2q-12 0 -10 17l10 190
q1 11 5 15t15 4h216q16 0 16 -15v-40q0 -15 -16 -15h-157q-12 0 -12 -12z" />
    <glyph glyph-name="six.inferior" unicode="&#x2086;" horiz-adv-x="364" 
d="M186 261h56q13 0 13 -8q0 -2 -5 -10l-85 -113q18 7 38 7q59 0 100 -37.5t41 -98.5q0 -66 -47.5 -107t-117.5 -41t-114 39t-44 101q0 66 60 146l78 107q13 15 27 15zM181 -77q37 0 60.5 21t23.5 55q0 33 -22.5 53t-58.5 20q-37 0 -60.5 -20.5t-23.5 -54.5
q0 -33 22.5 -53.5t58.5 -20.5z" />
    <glyph glyph-name="seven.inferior" unicode="&#x2087;" horiz-adv-x="364" 
d="M160 -138h-50q-13 0 -13 8q0 4 3 10l137 310h-194q-15 0 -15 15v41q0 15 15 15h283q15 0 15 -9q0 -6 -3 -13l-154 -360q-7 -17 -24 -17z" />
    <glyph glyph-name="eight.inferior" unicode="&#x2088;" horiz-adv-x="364" 
d="M326 155q0 -61 -57 -86q68 -25 68 -94q0 -59 -42 -90.5t-115 -31.5q-70 0 -112 31.5t-42 88.5q0 71 68 96q-56 23 -56 85q0 52 40 84t106 32q64 0 103 -32t39 -83zM116 150q0 -24 18 -38.5t48 -14.5q28 0 47 14.5t19 38.5q0 25 -18 39.5t-48 14.5t-48 -14.5t-18 -39.5z
M182 37q-32 0 -54 -16t-22 -43q0 -28 20 -43.5t56 -15.5q35 0 55.5 15.5t20.5 43.5q0 27 -22 43t-54 16z" />
    <glyph glyph-name="nine.inferior" unicode="&#x2089;" horiz-adv-x="364" 
d="M178 -138h-56q-13 0 -13 7q0 2 5 10l85 113q-17 -6 -38 -6q-59 0 -100 37.5t-41 98.5q0 66 47.5 106.5t117.5 40.5t114 -38.5t44 -101.5q0 -67 -60 -145l-78 -107q-13 -15 -27 -15zM183 200q-37 0 -60.5 -21t-23.5 -56q0 -33 22 -53t59 -20t60.5 20.5t23.5 55.5
q0 33 -23 53.5t-58 20.5z" />
    <glyph glyph-name="uni20A0" unicode="&#x20a0;" horiz-adv-x="671" 
d="M47 462q0 112 73 181t183 69q97 0 164 -44q10 -7 10 -16t-4 -13l-26 -40q-7 -13 -16 -13q-5 0 -13 5q-53 32 -111 32q-74 0 -118.5 -44t-44.5 -117q0 -67 41 -114.5t106 -54.5v185q0 13 5 17.5t17 4.5h288q12 0 17 -4.5t5 -17.5v-43q0 -13 -5 -17.5t-17 -4.5h-205
q-12 0 -12 -11v-101q0 -12 12 -12h171q12 0 17 -4.5t5 -17.5v-39q0 -13 -5 -17.5t-17 -4.5h-171q-12 0 -12 -12v-96q0 -11 12 -11h206q12 0 17 -4.5t5 -17.5v-43q0 -13 -5 -17.5t-17 -4.5h-289q-12 0 -17 4.5t-5 17.5v184q-105 5 -174.5 77.5t-69.5 178.5z" />
    <glyph glyph-name="colonmonetary" unicode="&#x20a1;" horiz-adv-x="661" 
d="M45 349q0 130 73 227t194 125v58q0 15 4 20.5t16 5.5t16 -5.5t4 -20.5v-51q4 0 21.5 1.5t26.5 1.5h8v48q0 15 4 20.5t16 5.5t16 -5.5t4 -20.5v-51q101 -12 169 -61q11 -8 11 -16q0 -3 -5 -15l-25 -44q-8 -11 -15 -11q-4 0 -16 7q-63 36 -119 45v-527q69 10 117 51
q11 8 17 8q9 0 14 -11l22 -40q5 -12 5 -15q0 -7 -12 -18q-67 -55 -163 -69v-51q0 -15 -4 -20.5t-16 -5.5t-16 5.5t-4 20.5v48h-14q-8 0 -42 2v-50q0 -15 -4 -20.5t-16 -5.5t-16 5.5t-4 20.5v57q-120 26 -193.5 121t-73.5 230zM352 611v-523q21 -4 56 -4v532q-40 0 -56 -5z
M147 350q0 -89 45 -158t120 -94v502q-75 -26 -120 -94t-45 -156z" />
    <glyph glyph-name="uni20A2" unicode="&#x20a2;" horiz-adv-x="661" 
d="M324 425h43q12 0 16.5 -5t4.5 -18v-34q45 66 139 66h8q13 0 18 -5t5 -19v-38q0 -13 -5 -18t-18 -5h-22q-64 0 -94.5 -34t-30.5 -108v-122h10q109 0 167 52q11 8 16 8q9 0 15 -11l22 -40q3 -6 3 -11q2 -20 -37 -43t-93.5 -37.5t-96.5 -13.5q-148 -2 -249.5 101.5
t-99.5 258.5q-2 152 101 258t254 104q132 0 217 -64q11 -8 11 -17q0 -6 -5 -14l-25 -44q-8 -11 -15 -11q-4 0 -16 7q-81 48 -169 48q-110 0 -180.5 -75.5t-70.5 -190.5q0 -87 42.5 -154t113.5 -94v300q0 13 4.5 18t16.5 5z" />
    <glyph glyph-name="franc" unicode="&#x20a3;" horiz-adv-x="572" 
d="M38 141q-13 0 -17.5 4.5t-4.5 17.5v36q0 13 4.5 17.5t17.5 4.5h72v457q0 13 5 17.5t17 4.5h381q12 0 17 -4.5t5 -17.5v-51q0 -13 -5 -17.5t-17 -4.5h-295q-11 0 -11 -11v-162q0 -11 11 -11h260q12 0 17 -4.5t5 -17.5v-44q0 -13 -5 -17.5t-17 -4.5h-260q-11 0 -11 -11
v-101h168q12 0 17 -4.5t5 -17.5v-36q0 -13 -5 -17.5t-17 -4.5h-168v-119q0 -13 -5 -17.5t-18 -4.5h-52q-12 0 -17 4.5t-5 17.5v119h-72z" />
    <glyph glyph-name="lira" unicode="&#x20a4;" horiz-adv-x="610" 
d="M42 52q0 8 12 15q41 27 67.5 63.5t29.5 74.5q1 3 1 14q0 10 -1 13h-108q-12 0 -17 4.5t-5 17.5v28q0 22 22 22h94l-22 63h-72q-12 0 -17 4.5t-5 17.5v28q0 13 5 17.5t17 4.5h53q-4 20 -4 37q0 104 70 169.5t184 65.5q121 0 206 -79q9 -8 9 -15q0 -5 -7 -15l-28 -41
q-8 -9 -13 -9q-4 0 -15 8q-73 56 -152 56q-68 0 -110 -38.5t-42 -102.5q0 -16 4 -36h233q12 0 17 -4.5t5 -17.5v-28q0 -13 -5 -17.5t-17 -4.5h-216l14 -42l7 -21h195q22 0 22 -22v-28q0 -13 -5 -17.5t-17 -4.5h-184q0 -12 -4 -28q-5 -56 -45 -100q18 2 37 2q42 0 98 -13
q50 -12 93 -12q62 0 106 29q12 5 15 5q8 0 13 -11l19 -43q3 -4 3 -10q2 -24 -55.5 -43.5t-105.5 -18.5q-37 0 -102 13q-52 10 -86 12q-3 1 -15 1t-15 -1q-62 -2 -110 -24q-7 -4 -14 -4q-5 0 -11 9l-22 45q-4 7 -4 12z" />
    <glyph glyph-name="uni20A5" unicode="&#x20a5;" horiz-adv-x="878" 
d="M104 490h46q26 0 26 -25v-31q48 66 134 66q90 0 136 -67l76 181q6 14 11.5 18t19.5 4h52q19 0 19 -13q0 -4 -2 -10l-50 -121q24 8 52 8q87 0 133 -59.5t46 -170.5v-252q0 -18 -17 -18h-63q-18 0 -18 18v245q0 71 -27.5 109.5t-79.5 38.5q-45 0 -72 -29l-35 -84
q-2 -14 -2 -35v-245q0 -18 -17 -18h-62q-18 0 -18 18v52l-52 -134q-6 -14 -12 -18t-20 -4h-52q-18 0 -18 12q0 5 2 11l150 360q-7 55 -34 84.5t-72 29.5q-52 0 -80 -38.5t-28 -109.5v-245q0 -18 -17 -18h-62q-18 0 -18 18v447q0 25 25 25z" />
    <glyph glyph-name="uni20A6" unicode="&#x20a6;" horiz-adv-x="720" 
d="M32 247q-12 0 -17 4.5t-5 17.5v28q0 13 5 17.5t17 4.5h63v63h-63q-12 0 -17 4.5t-5 17.5v28q0 13 5 17.5t17 4.5h63v224q0 33 21 33q15 0 41 -31l179 -226h194v224q0 13 5 17.5t17 4.5h51q12 0 17 -4.5t5 -17.5v-224h63q12 0 17 -4.5t5 -17.5v-28q0 -13 -5 -17.5
t-17 -4.5h-63v-63h63q12 0 17 -4.5t5 -17.5v-28q0 -13 -5 -17.5t-17 -4.5h-63v-225q0 -33 -20 -33t-42 31l-179 227h-194v-225q0 -13 -5 -17.5t-17 -4.5h-51q-12 0 -17 4.5t-5 17.5v225h-63zM190 495v-41h32zM278 382h-88v-63h138zM530 382h-137l50 -63h87v63zM500 247
l30 -38v38h-30z" />
    <glyph glyph-name="peseta" unicode="&#x20a7;" horiz-adv-x="1174" 
d="M110 700h116q143 0 215.5 -58.5t72.5 -170.5q0 -113 -77.5 -174t-216.5 -61h-24q-11 0 -11 -11v-203q0 -13 -5 -17.5t-18 -4.5h-52q-12 0 -17 4.5t-5 17.5v656q0 13 5 17.5t17 4.5zM412 469q0 138 -185 138h-31q-11 0 -11 -12v-254q0 -12 11 -12h31q185 0 185 140z
M561 338q-21 0 -21 22v40q0 22 21 22h47v110q0 13 5 17.5t17 4.5h49q13 0 18 -4.5t5 -17.5v-110h48q13 0 17.5 -5t4.5 -17v-40q0 -12 -4.5 -17t-17.5 -5h-48v-316q0 -13 -5 -17.5t-18 -4.5h-49q-12 0 -17 4.5t-5 17.5v316h-47zM836 103q4 0 9 -3q50 -33 115 -33q78 0 78 51
q0 22 -18.5 34.5t-73.5 27.5q-72 21 -105 50.5t-33 77.5q0 59 44.5 92.5t114.5 33.5q81 0 145 -37q7 -4 7 -12q0 -5 -3 -12l-22 -40q-7 -7 -9 -7l-12 4q-50 26 -104 26q-31 0 -50.5 -11t-19.5 -32q0 -24 20 -36t73 -26q75 -20 106 -49t31 -84q0 -57 -46.5 -93.5
t-118.5 -36.5q-101 0 -160 44q-8 5 -8 11q0 4 5 11l24 40q5 9 11 9z" />
    <glyph glyph-name="uni20A8" unicode="&#x20a8;" horiz-adv-x="1102" 
d="M110 700h196q280 0 280 -215q0 -145 -137 -194l173 -261q8 -14 8 -19q0 -11 -22 -11h-60q-17 0 -26 5.5t-19 21.5l-145 224q-9 14 -26 14h-132q-12 0 -12 -12v-231q0 -13 -5 -17.5t-17 -4.5h-56q-12 0 -17 4.5t-5 17.5v656q0 13 5 17.5t17 4.5zM482 481q0 124 -181 124
h-101q-12 0 -12 -11v-226q0 -12 12 -12h107q175 0 175 125zM706 123q4 0 12 -5q68 -48 143 -48q44 0 71 16.5t27 44.5q-3 30 -23 41.5t-94 31.5q-86 23 -126 57.5t-40 95.5q0 67 51.5 106t131.5 39q105 0 182 -51q9 -6 9 -13q0 -2 -5 -14l-24 -40q-5 -8 -12 -8q-6 0 -13 4
q-74 41 -135 41q-38 0 -62 -16t-24 -43t27 -44.5t89 -32.5q92 -23 129.5 -55.5t37.5 -94.5q0 -69 -53 -107.5t-145 -38.5q-113 0 -189 57q-9 8 -9 14q0 5 6 14l26 40q6 9 12 9z" />
    <glyph glyph-name="uni20A9" unicode="&#x20a9;" horiz-adv-x="923" 
d="M42 247q-12 0 -17 4.5t-5 17.5v28q0 13 5 17.5t17 4.5h93l-22 63h-71q-12 0 -17 4.5t-5 17.5v28q0 13 5 17.5t17 4.5h46l-74 216q-3 9 -3 15q0 15 22 15h43q17 0 24 -5.5t13 -24.5l71 -216h179l65 176q9 25 16.5 34.5t18.5 9.5t18 -9t16 -35l65 -176h177l72 216
q6 18 13.5 24t23.5 6h42q22 0 22 -15q0 -6 -3 -15l-75 -216h47q12 0 17 -4.5t5 -17.5v-28q0 -13 -5 -17.5t-17 -4.5h-72l-22 -63h94q12 0 17 -4.5t5 -17.5v-28q0 -13 -5 -17.5t-17 -4.5h-119l-72 -207q-17 -53 -35 -53q-11 0 -19 10.5t-18 39.5l-74 210h-166l-74 -210
q-10 -29 -17.5 -39.5t-18.5 -10.5q-19 0 -36 53l-72 207h-118zM462 492l-14 -38h27zM337 382h-129l21 -63h85zM497 382h-71l-22 -63h115zM715 382h-128l23 -63h84zM253 247l17 -51l18 51h-35zM636 247l18 -48l16 48h-34z" />
    <glyph glyph-name="uni20AA" unicode="&#x20aa;" horiz-adv-x="836" 
d="M97 610h234q73 0 118.5 -17.5t76.5 -69.5q34 -55 34 -168v-156q0 -22 -22 -22h-46q-22 0 -22 22v156q0 99 -32.5 134.5t-106.5 35.5h-144q-14 0 -14 -13v-490q0 -13 -5 -17.5t-17 -4.5h-52q-12 0 -17 4.5t-5 17.5v568q0 12 4.5 16t15.5 4zM298 440h46q12 0 17 -4.5
t5 -17.5v-322q0 -11 11 -11h150q74 0 104.5 35t30.5 135v333q0 13 5 17.5t17 4.5h53q12 0 17 -4.5t5 -17.5v-333q0 -105 -32.5 -164t-85.5 -76q-49 -15 -114 -15h-231q-11 0 -15.5 4t-4.5 16v398q0 13 5 17.5t17 4.5z" />
    <glyph glyph-name="dong" unicode="&#x20ab;" horiz-adv-x="571" 
d="M45 242q0 113 75.5 180.5t211.5 67.5h52q11 0 11 11v77h-112q-22 0 -22 22v32q0 23 22 23h112v73q0 13 5 17.5t17 4.5h53q12 0 17 -4.5t5 -17.5v-73h55q22 0 22 -23v-32q0 -22 -22 -22h-55v-557q0 -21 -22 -21h-140q-137 0 -211 64.5t-74 177.5zM395 101v289q0 12 -11 12
h-51q-86 0 -137 -41.5t-51 -118.5q0 -74 49 -113.5t139 -39.5h51q11 0 11 12zM67 -89h436q22 0 22 -23v-34q0 -13 -5 -17.5t-17 -4.5h-436q-12 0 -17 4.5t-5 17.5v34q0 23 22 23z" />
    <glyph glyph-name="Euro" unicode="&#x20ac;" horiz-adv-x="672" 
d="M409 84q98 0 174 56q14 8 17 8q6 0 12 -11l21 -41q5 -13 5 -16q0 -10 -12 -17q-101 -74 -224 -74q-117 0 -199 72t-106 195h-78q-17 0 -17 10q0 6 3 13l14 30q9 17 29 17h41l-1 28l1 29h-70q-17 0 -17 10q0 6 3 13l14 29q8 18 29 18h50q26 117 110.5 187.5t204.5 70.5
q122 0 218 -68q14 -9 14 -19q0 -6 -4 -13l-23 -46q-6 -12 -15 -12q-5 0 -13 5q-84 58 -179 58q-78 0 -133.5 -43.5t-75.5 -119.5h341q17 0 17 -10q0 -5 -3 -13l-14 -29q-8 -18 -29 -18h-323l-1 -29l1 -28h294q17 0 17 -10q0 -6 -3 -13l-14 -29q-8 -18 -29 -18h-254
q20 -81 74.5 -126.5t132.5 -45.5z" />
    <glyph glyph-name="uni20AD" unicode="&#x20ad;" horiz-adv-x="622" 
d="M37 305q-22 0 -22 23v42q0 22 22 22h52v286q0 13 5 17.5t17 4.5h55q13 0 18 -4.5t5 -17.5v-286h51l238 284q13 15 21 19.5t24 4.5h65q19 0 19 -10q0 -8 -7 -15l-242 -283h192q22 0 22 -22v-42q0 -23 -22 -23h-181l237 -279q9 -9 9 -16q0 -10 -20 -10h-69q-17 0 -25.5 4.5
t-20.5 18.5l-234 282h-57v-283q0 -13 -5 -17.5t-18 -4.5h-55q-12 0 -17 4.5t-5 17.5v283h-52z" />
    <glyph glyph-name="uni20AE" unicode="&#x20ae;" horiz-adv-x="593" 
d="M106 207l142 66v70l-127 -59q-7 -4 -12 -4q-14 0 -14 16v33q0 19 11 24l142 67v177q0 11 -12 11h-190q-22 0 -22 22v48q0 13 5 17.5t17 4.5h501q12 0 16.5 -4.5t4.5 -17.5v-48q0 -22 -21 -22h-191q-11 0 -11 -11v-131l127 60q7 4 12 4q14 0 14 -16v-33q0 -19 -11 -24
l-142 -68v-70l127 61q7 4 12 4q14 0 14 -16v-34q0 -19 -11 -24l-142 -68v-220q0 -13 -5 -17.5t-17 -4.5h-53q-12 0 -17 4.5t-5 17.5v174l-127 -59q-7 -4 -12 -4q-14 0 -14 16v34q0 19 11 24z" />
    <glyph glyph-name="uni20AF" unicode="&#x20af;" horiz-adv-x="1137" 
d="M704 383q1 -174 -85.5 -286t-206.5 -110q-77 0 -150 70q-51 -68 -131 -68q-60 0 -95 31t-35 85t35 88t92 34q50 0 103 -40q8 24 13 44l114 400h-4q-83 0 -179 -27v81q96 28 196 28h11l30 105h95l-33 -116q111 -27 170.5 -111t59.5 -208zM610 382q0 92 -41 153t-119 84
l-117 -406q-13 -45 -32 -90q57 -51 103 -51q79 -2 143.5 87.5t62.5 222.5zM1111 202q0 -97 -55 -156t-159 -59q-65 0 -117 27l-69 -244h-96l119 418q28 98 78.5 143.5t131.5 45.5q77 0 122 -48t45 -127zM1017 201q0 43 -20 68.5t-56 25.5q-81 0 -116 -120l-25 -88
q48 -23 92 -23q58 0 91.5 38.5t33.5 98.5zM202 116q-43 40 -74 40q-24 0 -37.5 -14t-13.5 -36q0 -21 13 -33.5t36 -12.5q46 0 76 56z" />
    <glyph glyph-name="uni20B0" unicode="&#x20b0;" horiz-adv-x="665" 
d="M27 10q0 10 17 38l117 190q15 22 26 22q9 0 23 -17l64 -91l74 127q-77 111 -98 172q-15 43 -15 89q0 76 45 124t127 48q81 0 125.5 -46.5t44.5 -119.5q0 -70 -45 -150q-27 -48 -64 -108q52 -75 78 -138t26 -131q0 -113 -54.5 -173t-155.5 -60q-27 0 -44 5q-12 4 -12 33
v46q0 16 15 16q3 0 18.5 -1.5t25.5 -1.5q47 0 75 34t28 102q0 75 -63 175l-90 -154q-17 -27 -30 -27q-12 0 -28 22l-65 93l-64 -106q-12 -22 -33 -22h-49q-19 0 -19 10zM473 543q0 36 -17 57.5t-49 21.5q-34 0 -51.5 -23.5t-17.5 -61.5q0 -60 66 -166q40 66 54 102
q15 38 15 70z" />
    <glyph glyph-name="uni20B1" unicode="&#x20b1;" horiz-adv-x="662" 
d="M36 363q-13 0 -17.5 4.5t-4.5 17.5v16q0 13 4.5 17.5t17.5 4.5h62v49h-62q-13 0 -17.5 5t-4.5 17v17q0 13 4.5 17.5t17.5 4.5h62v145q0 13 5 17.5t17 4.5h175q113 0 183 -43.5t92 -123.5h50q12 0 17 -4.5t5 -17.5v-17q0 -22 -22 -22h-40v-16q0 -19 -2 -33h42
q12 0 17 -4.5t5 -17.5v-16q0 -13 -5 -17.5t-17 -4.5h-55q-26 -78 -96 -119t-177 -41h-86q-11 0 -11 -12v-169q0 -13 -5 -17.5t-17 -4.5h-53q-12 0 -17 4.5t-5 17.5v341h-62zM289 615h-83q-11 0 -11 -12v-70h267q-37 82 -173 82zM479 454q0 14 -1 18h-283v-49h282q2 26 2 31z
M457 363h-262v-64q0 -11 11 -11h85q125 0 166 75z" />
    <glyph glyph-name="uni20B2" unicode="&#x20b2;" horiz-adv-x="746" 
d="M46 345q0 144 85 242t219 119v72q0 12 4.5 17t17.5 5h42q13 0 17.5 -5t4.5 -17v-68q129 -7 227 -79q13 -9 13 -18q0 -5 -7 -15l-28 -40q-7 -10 -16 -10q-7 0 -16 6q-83 53 -173 61v-532q76 5 129 29q14 6 14 19v178q0 13 5 17.5t17 4.5h56q12 0 17 -4.5t5 -17.5v-229
q0 -21 -18 -29q-101 -54 -225 -61v-98q0 -12 -4.5 -17t-17.5 -5h-42q-13 0 -17.5 5t-4.5 17v101q-132 17 -218 113.5t-86 238.5zM150 349q0 -100 56.5 -171t143.5 -89v520q-91 -18 -145.5 -89.5t-54.5 -170.5z" />
    <glyph glyph-name="uni20B3" unicode="&#x20b3;" horiz-adv-x="716" 
d="M46 203q-12 0 -17 4.5t-5 17.5v28q0 13 5 17.5t17 4.5h95l29 63h-124q-12 0 -17 4.5t-5 17.5v28q0 13 5 17.5t17 4.5h156l115 253q14 30 22 40t18 10t18.5 -10t22.5 -40l114 -253h158q12 0 17 -4.5t5 -17.5v-28q0 -13 -5 -17.5t-17 -4.5h-125l28 -63h97q12 0 17 -4.5
t5 -17.5v-28q0 -13 -5 -17.5t-17 -4.5h-64l80 -173q5 -13 5 -17q0 -13 -21 -13h-49q-16 0 -23.5 5.5t-15.5 22.5l-77 175h-299l-76 -175q-8 -19 -19 -23.5t-36 -4.5h-29q-21 0 -21 13q0 4 5 17l79 173h-63zM356 548l-61 -138h122zM447 338h-183l-27 -63h237z" />
    <glyph glyph-name="uni20B4" unicode="&#x20b4;" horiz-adv-x="610" 
d="M42 317h118q32 22 80 48l29 16h-227q-22 0 -22 21v28q0 13 5 17.5t17 4.5h339q46 39 46 87q0 82 -132 82q-88 0 -168 -55q-7 -7 -17 -7q-8 0 -16 11l-28 41q-7 7 -7 14t11 15q98 72 224 72q111 0 173 -42.5t62 -124.5q0 -50 -26 -93h65q12 0 17 -4.5t5 -17.5v-28
q0 -21 -22 -21h-131q-28 -23 -107 -64h238q12 0 17 -4.5t5 -17.5v-27q0 -13 -5 -17.5t-17 -4.5h-356q-43 -36 -43 -80q0 -87 143 -87q110 0 193 60q12 7 16 7q8 0 16 -14l20 -38q5 -8 5 -14q0 -9 -20 -21q-45 -33 -108 -52t-126 -19q-116 0 -178.5 44t-62.5 132q0 42 25 82
h-50q-12 0 -17 4.5t-5 17.5v27q0 13 5 17.5t17 4.5z" />
    <glyph glyph-name="uni20B5" unicode="&#x20b5;" horiz-adv-x="675" 
d="M46 347q0 137 84 239t221 121v71q0 12 4.5 17t17.5 5h42q13 0 17.5 -5t4.5 -17v-68q57 -4 111.5 -23.5t90.5 -49.5q8 -8 8 -17q0 -7 -5 -15l-29 -39q-7 -10 -15 -10t-18 7q-73 45 -143 52v-531q64 5 143 59q10 7 18 7q9 0 14 -8l29 -43q4 -4 4 -12q0 -9 -10 -19
q-82 -71 -198 -78v-98q0 -12 -4.5 -17t-17.5 -5h-42q-13 0 -17.5 5t-4.5 17v100q-134 16 -220.5 118.5t-84.5 236.5zM150 349q0 -92 54 -166.5t147 -94.5v523q-92 -19 -146.5 -92.5t-54.5 -169.5z" />
    <glyph glyph-name="uni20B6" unicode="&#x20b6;" horiz-adv-x="566" 
d="M39 417q-13 0 -17.5 5t-4.5 18v42q0 12 4.5 17t17.5 5h73v224q0 13 5 17.5t17 4.5h54q12 0 17 -4.5t5 -17.5v-224h132v224q0 13 5 17.5t17 4.5h53q13 0 18 -4.5t5 -17.5v-224h88q22 0 22 -22v-42q0 -23 -22 -23h-88v-395q0 -13 -5 -17.5t-18 -4.5h-53q-12 0 -17 4.5
t-5 17.5v395h-132v-395q0 -13 -5 -17.5t-17 -4.5h-54q-12 0 -17 4.5t-5 17.5v395h-73z" />
    <glyph glyph-name="uni20B7" unicode="&#x20b7;" horiz-adv-x="614" 
d="M17 148q0 41 22 64.5t58 23.5q44 0 60 -31q15 31 58 31q44 0 62 -34q5 15 21.5 24.5t37.5 9.5q72 0 72 -94v-64q63 32 63 110q-4 51 -41 76t-139 53q-114 32 -164.5 74.5t-52.5 126.5q0 89 66.5 141t169.5 52q128 0 230 -78q11 -8 11 -16t-7 -15l-29 -39q-8 -11 -15 -11
q-6 0 -16 7q-85 61 -175 61q-63 0 -98 -25t-35 -72t34.5 -72.5t118.5 -48.5q124 -34 181 -79.5t57 -124.5q0 -70 -41 -120.5t-118 -73.5v-64q0 -10 -11 -10h-40q-11 0 -11 10v52q-38 -3 -51 -4v-48q0 -10 -11 -10h-41q-11 0 -11 10v50q-9 1 -20 2.5t-18.5 3t-13.5 1.5v-57
q0 -10 -14 -10h-37q-12 0 -12 10v76q-100 42 -100 132zM209 188q-16 0 -22.5 -11t-6.5 -41v-74q24 -5 52 -6v80q0 30 -5 41t-18 11zM323 188q-15 0 -21.5 -11.5t-6.5 -40.5v-82q32 0 51 4v78q0 52 -23 52zM92 187q-25 0 -25 -39q0 -45 50 -68v56q0 51 -25 51z" />
    <glyph glyph-name="uni20B8" unicode="&#x20b8;" horiz-adv-x="593" 
d="M46 700h500q13 0 17.5 -4.5t4.5 -17.5v-38q0 -13 -4.5 -17.5t-17.5 -4.5h-500q-12 0 -17 4.5t-5 17.5v38q0 13 5 17.5t17 4.5zM236 462h-190q-12 0 -17 4.5t-5 17.5v48q0 22 22 22h501q21 0 21 -22v-48q0 -13 -4.5 -17.5t-16.5 -4.5h-191q-11 0 -11 -12v-428
q0 -13 -5 -17.5t-17 -4.5h-53q-12 0 -17 4.5t-5 17.5v428q0 12 -12 12z" />
    <glyph glyph-name="uni20B9" unicode="&#x20b9;" horiz-adv-x="621" 
d="M207 318q0 10 16 11q143 18 166 106h-345q-22 0 -22 22v37q0 13 5 17.5t17 4.5h347q-19 102 -153 102h-194q-12 0 -17 4.5t-5 17.5v38q0 13 5 17.5t17 4.5h534q12 0 17 -4.5t5 -17.5v-38q0 -13 -5 -17.5t-17 -4.5h-140q46 -37 58 -102h82q12 0 17 -4.5t5 -17.5v-37
q0 -22 -22 -22h-82q-11 -54 -53 -93.5t-104 -55.5l184 -258q8 -11 8 -17q0 -11 -22 -11h-57q-17 0 -25.5 5t-20.5 22l-194 278q-5 7 -5 13z" />
    <glyph glyph-name="uni20BA" unicode="&#x20ba;" horiz-adv-x="652" 
d="M42 216q-7 -3 -13 -3q-12 0 -12 17v30q0 14 4 20t18 11l84 35v71l-81 -33q-8 -3 -13 -3q-12 0 -12 16v31q0 13 4 19t18 12l84 35v204q0 13 5 17.5t18 4.5h56q12 0 16.5 -4.5t4.5 -17.5v-160l212 86q7 3 13 3q12 0 12 -16v-30q0 -14 -4 -20t-17 -12l-216 -88v-71l212 87
q7 3 13 3q12 0 12 -16v-31q0 -13 -4 -19t-17 -12l-216 -89v-187q0 -11 12 -11h22q123 0 185 47t75 152q2 14 6 18t17 4h50q21 0 21 -17q0 -44 -21.5 -106.5t-66.5 -105.5q-93 -87 -282 -87h-95q-13 0 -18 4.5t-5 17.5v227z" />
    <glyph glyph-name="uni20BB" unicode="&#x20bb;" horiz-adv-x="705" 
d="M288 165q0 -60 26 -88t69 -28q40 0 85 12l13 -74q-51 -19 -115 -19q-85 0 -128.5 46t-43.5 148v40l-62 -45l-37 51l99 74v169h-33q-71 0 -112.5 35t-41.5 97q0 60 40 97.5t105 37.5q64 0 100 -40t36 -103v-47h153q114 0 168.5 -40t54.5 -122q0 -73 -52.5 -114.5
t-131.5 -46.5l-49 73l-71 -77l-56 82l-16 -12v-106zM194 571q0 71 -53 71q-24 0 -38 -16t-14 -41q0 -57 76 -57h29v43zM314 372l54 -81l69 79l58 -86q73 16 73 79q0 46 -33 67t-109 21h-138v-98z" />
    <glyph glyph-name="uni20BC" unicode="&#x20bc;" horiz-adv-x="825" 
d="M364 520v158q0 13 5 17.5t17 4.5h53q12 0 17 -4.5t5 -17.5v-159q139 -12 217.5 -91.5t78.5 -214.5v-191q0 -13 -5 -17.5t-17 -4.5h-55q-13 0 -18 4.5t-5 17.5v191q0 94 -49.5 149t-146.5 66v-406q0 -13 -5 -17.5t-17 -4.5h-53q-12 0 -17 4.5t-5 17.5v406
q-196 -19 -196 -216v-190q0 -13 -5 -17.5t-18 -4.5h-55q-12 0 -17 4.5t-5 17.5v194q0 137 78 215t218 89z" />
    <glyph glyph-name="uni20BD" unicode="&#x20bd;" horiz-adv-x="656" 
d="M40 192h97v66h-97q-13 0 -17.5 4.5t-4.5 17.5v36q0 13 4.5 17.5t17.5 4.5h97v340q0 13 5 17.5t17 4.5h171q288 0 288 -217q0 -110 -76 -167.5t-218 -57.5h-90v-66h153q12 0 17 -4.5t5 -17.5v-36q0 -13 -5 -17.5t-17 -4.5h-153v-90q0 -13 -5 -17.5t-17 -4.5h-53
q-12 0 -17 4.5t-5 17.5v90h-97q-13 0 -17.5 4.5t-4.5 17.5v36q0 13 4.5 17.5t17.5 4.5zM516 479q0 139 -185 139h-85q-12 0 -12 -12v-268h97q89 0 137 35.5t48 105.5z" />
    <glyph glyph-name="uni2113" unicode="&#x2113;" horiz-adv-x="470" 
d="M362 97q4 4 12 4q7 0 13 -10l16 -34q4 -7 4 -14q0 -9 -12 -17q-56 -37 -123 -37q-167 0 -167 192v33l-51 -18q-10 -2 -11 -2q-10 0 -15 15l-12 32q-2 6 -2 11q0 11 15 15q51 16 76 27v164q0 253 167 253q64 0 104 -44t40 -117q0 -92 -59 -170.5t-164 -130.5v-55
q0 -121 87 -121q43 0 82 24zM328 544q0 41 -16 63.5t-43 22.5q-76 0 -76 -182v-113q135 81 135 209z" />
    <glyph glyph-name="uni2116" unicode="&#x2116;" horiz-adv-x="1059" 
d="M104 711q15 0 42 -31l346 -479v477q0 13 5 17.5t17 4.5h52q12 0 17 -4.5t5 -17.5v-656q0 -33 -20 -33q-15 0 -42 31l-346 476v-474q0 -13 -5 -17.5t-17 -4.5h-53q-12 0 -17 4.5t-5 17.5v656q0 33 21 33zM644 324q0 91 53 147t137 56q81 0 133 -54t52 -145t-53 -147.5
t-137 -56.5q-81 0 -133 54.5t-52 145.5zM938 326q0 58 -29 93.5t-77 35.5q-49 0 -78 -35t-29 -94t29 -93.5t78 -34.5q48 0 77 34.5t29 93.5zM687 75h289q12 0 17 -4.5t5 -17.5v-31q0 -13 -5 -17.5t-17 -4.5h-289q-12 0 -17 4.5t-5 17.5v31q0 13 5 17.5t17 4.5z" />
    <glyph glyph-name="uni2117" unicode="&#x2117;" horiz-adv-x="524" 
d="M264 711q97 0 165.5 -68.5t68.5 -165.5q2 -97 -69 -168.5t-168 -69.5q-97 0 -166 68.5t-69 165.5q-2 97 69 168t169 70zM447 475q0 78 -53.5 132.5t-131.5 54.5q-77 0 -131 -55t-54 -132q0 -79 53.5 -133t131.5 -54q77 0 131 55t54 132zM182 600h83q115 0 115 -87
q0 -44 -30 -68.5t-85 -24.5h-26q-7 0 -7 -5v-54q0 -9 -10 -9h-40q-10 0 -10 9v230q0 9 10 9zM316 510q0 38 -54 38h-23q-7 0 -7 -5v-65q0 -6 7 -6h23q54 0 54 38z" />
    <glyph glyph-name="trademark" unicode="&#x2122;" horiz-adv-x="863" 
d="M481 331q0 -16 -16 -16h-44q-16 0 -16 16v353q0 18 12 18q8 0 23 -15l164 -170l164 170q15 15 22 15q13 0 13 -18v-353q0 -16 -16 -16h-44q-16 0 -16 16v215l-103 -107q-14 -14 -21 -14t-21 14l-101 106v-214zM39 644v40q0 16 16 16h300q16 0 16 -16v-40q0 -17 -16 -17
h-104q-8 0 -8 -8v-288q0 -16 -16 -16h-44q-16 0 -16 16v288q0 5 -1.5 6.5t-6.5 1.5h-104q-16 0 -16 17z" />
    <glyph glyph-name="Omega" unicode="&#x2126;" horiz-adv-x="792" 
d="M396 616q-109 0 -175 -69t-66 -181q0 -81 39 -151t108 -120q15 -13 15 -33v-40q0 -13 -5 -17.5t-17 -4.5h-226q-12 0 -17 4.5t-5 17.5v51q0 13 5 17.5t17 4.5h116q-134 114 -134 276q-2 146 96.5 244t248.5 96q150 2 248.5 -95t96.5 -241q0 -164 -135 -280h117
q13 0 17.5 -4.5t4.5 -17.5v-51q0 -13 -4.5 -17.5t-17.5 -4.5h-226q-12 0 -17 4.5t-5 17.5v40q0 20 15 33q69 50 108 120t39 151q0 111 -66.5 180.5t-174.5 69.5z" />
    <glyph glyph-name="estimated" unicode="&#x212e;" horiz-adv-x="889" 
d="M840 338h-631q-14 0 -14 -13v-172q0 -30 16 -45q95 -95 234 -95q73 0 138.5 30.5t108.5 82.5h71q-43 -59 -125 -98.5t-193 -39.5q-176 -2 -287 100.5t-109 259.5q-2 155 108.5 260t287.5 103q177 3 287 -107.5t108 -265.5zM211 588q-16 -16 -16 -43v-172q0 -13 14 -13
h470q14 0 14 13v172q0 27 -16 43q-97 96 -232 96q-138 0 -234 -96z" />
    <glyph glyph-name="uni2133" unicode="&#x2133;" horiz-adv-x="1158" 
d="M842 -10q-74 0 -74 127q-3 56 52.5 162t105.5 173q19 26 87 107q51 61 116 135q-56 -38 -138.5 -121.5t-154.5 -186.5q-47 -66 -128 -199l-57 -91q-37 -56 -60 -81t-41 -25q-48 0 -48 96q0 39 30 129t135 259q29 46 80 119q64 88 76 104q-57 -43 -141 -144
q-80 -96 -174 -221q-30 -39 -61 -86q-56 -82 -101 -135q-41 -50 -95 -86q-55 -35 -117 -35q-61 0 -97.5 36.5t-36.5 95.5q0 42 26 71.5t65 29.5q56 0 56 -55q0 -17 -17 -40t-71 -29q-20 -1 -20 -21q0 -19 26 -44.5t70 -25.5q103 0 202 122q46 55 108 145q43 63 60 85
q89 122 183 227q92 101 144 138l16 -10l-42 -94l-61 -139l-48 -109l-29 -70q-26 -65 -54 -144q-26 -77 -34 -123q39 39 137 199q65 107 97 151q42 58 77 102q25 32 62 73q53 55 105 99q57 47 83 62l17 -16q-34 -51 -90 -152q-49 -91 -97 -188q-40 -82 -88 -198
q-45 -110 -45 -147q0 -13 8 -13q24 0 70 45t93 105l12 -10q-40 -57 -95 -110q-51 -48 -84 -48z" />
    <glyph glyph-name="partialdiff" unicode="&#x2202;" horiz-adv-x="606" 
d="M458 389q-5 111 -51 171t-129 60q-60 0 -112 -33q-9 -6 -15 -6q-9 0 -15 11l-23 39q-5 12 -5 15q0 8 15 19q74 48 160 48q126 0 200 -91t74 -248q0 -174 -79.5 -279.5t-208.5 -105.5q-101 0 -166.5 69.5t-65.5 176.5q0 105 68.5 177t169.5 72q61 0 109.5 -26.5
t73.5 -68.5zM141 236q0 -68 38.5 -111.5t97.5 -43.5q63 0 105.5 49t42.5 117q0 65 -40.5 105t-102.5 40q-60 0 -100.5 -44.5t-40.5 -111.5z" />
    <glyph glyph-name="increment" unicode="&#x2206;" horiz-adv-x="696" 
d="M4 15q0 5 5 18l298 628q14 31 22.5 41.5t18.5 10.5t18.5 -10.5t22.5 -41.5l298 -628q5 -13 5 -18q0 -15 -22 -15h-644q-22 0 -22 15zM346 535l-201 -440h402z" />
    <glyph glyph-name="product" unicode="&#x220f;" horiz-adv-x="703" 
d="M504 605h-304q-12 0 -12 -11v-732q0 -13 -5 -17.5t-17 -4.5h-56q-12 0 -17 4.5t-5 17.5v816q0 13 5 17.5t17 4.5h483q12 0 17 -4.5t5 -17.5v-816q0 -13 -5 -17.5t-17 -4.5h-56q-12 0 -17 4.5t-5 17.5v732q0 11 -11 11z" />
    <glyph glyph-name="summation" unicode="&#x2211;" horiz-adv-x="672" 
d="M55 681q0 19 30 19h484q12 0 17 -4.5t5 -17.5v-51q0 -13 -5 -17.5t-17 -4.5h-344l215 -283q21 -28 21 -41t-21 -41l-225 -305h359q12 0 17 -4.5t5 -17.5v-51q0 -13 -5 -17.5t-17 -4.5h-494q-30 0 -30 19q0 12 28 49l272 372l-267 352q-28 35 -28 49z" />
    <glyph glyph-name="minus" unicode="&#x2212;" horiz-adv-x="672" 
d="M570 277h-467q-23 0 -23 22v42q0 22 23 22h467q12 0 17 -4.5t5 -17.5v-42q0 -13 -5 -17.5t-17 -4.5z" />
    <glyph glyph-name="uni2215" unicode="&#x2215;" horiz-adv-x="181" 
d="M-156 -11h-40q-20 0 -20 12q0 8 13 23l503 666q10 13 16.5 17t20.5 4h40q20 0 20 -12q0 -3 -2.5 -8t-6 -9.5t-4.5 -5.5l-504 -666q-9 -13 -15.5 -17t-20.5 -4z" />
    <glyph glyph-name="uni2219" unicode="&#x2219;" horiz-adv-x="227" 
d="M113 411q27 0 45 -16.5t18 -42.5t-18 -42.5t-45 -16.5t-44.5 16.5t-17.5 42.5t17.5 42.5t44.5 16.5z" />
    <glyph glyph-name="radical" unicode="&#x221a;" horiz-adv-x="535" 
d="M183 321l73 -153l165 571q4 13 9 17t18 4h42q18 0 18 -12l-2 -12l-209 -701q-8 -29 -14 -38.5t-15 -9.5q-11 0 -33 43l-109 221l-50 -45q-9 -9 -17 -9q-7 0 -15 11l-19 24q-8 11 -8 17q0 7 11 16l76 66q34 30 46 30q9 0 15 -8t18 -32z" />
    <glyph glyph-name="infinity" unicode="&#x221e;" horiz-adv-x="672" 
d="M642 322q0 -60 -41 -102t-105 -42q-79 0 -162 88q-85 -88 -167 -88q-59 0 -98 40.5t-39 99.5q0 60 41 101.5t105 41.5q45 0 81.5 -21.5t79.5 -66.5q46 45 84.5 66.5t84.5 21.5q59 0 97.5 -40t38.5 -99zM289 320q-64 62 -113 62q-29 0 -46.5 -17.5t-17.5 -44.5
q0 -28 16 -45.5t45 -17.5q51 0 116 63zM383 319q64 -62 113 -62q30 0 47.5 17.5t17.5 45.5q0 27 -17 44.5t-44 17.5q-48 0 -117 -63z" />
    <glyph glyph-name="integral" unicode="&#x222b;" horiz-adv-x="429" 
d="M68 -179q-54 0 -98 26q-12 8 -12 17q0 6 4 13l19 36q6 11 13 11q4 0 10 -3q27 -15 58 -15q80 0 80 116v497q0 93 43 143t123 50q54 0 98 -26q12 -8 12 -17q0 -6 -4 -13l-19 -36q-6 -11 -13 -11q-4 0 -10 3q-27 15 -59 15q-79 0 -79 -116v-497q0 -93 -43.5 -143
t-122.5 -50z" />
    <glyph glyph-name="approxequal" unicode="&#x2248;" horiz-adv-x="672" 
d="M137 365q-11 -9 -18 -9q-6 0 -13 7l-24 28q-8 11 -8 16q0 8 9 17q67 67 150 67q44 0 121 -33q57 -28 93 -28q43 0 88 51q9 10 17 10q7 0 15 -8l24 -28q8 -11 8 -16q0 -6 -8 -17q-62 -76 -146 -76q-35 0 -119 32q-59 28 -95 28q-51 0 -94 -41zM137 159q-9 -10 -17 -10
q-6 0 -14 8l-24 28q-8 11 -8 16q0 6 8 17q62 76 145 76q40 0 120 -33q61 -27 94 -27q51 0 95 41q10 9 18 9q6 0 13 -7l24 -28q7 -7 7 -16t-8 -17q-67 -67 -150 -67q-43 0 -122 34q-64 27 -92 27q-44 0 -89 -51z" />
    <glyph glyph-name="notequal" unicode="&#x2260;" horiz-adv-x="672" 
d="M570 461q12 0 17 -4.5t5 -17.5v-41q0 -13 -5 -17.5t-17 -4.5h-159l-60 -112h219q12 0 17 -4.5t5 -17.5v-41q0 -13 -5 -17.5t-17 -4.5h-263l-75 -140q-12 -22 -34 -22h-40q-21 0 -21 11q0 7 4 11l75 140h-113q-23 0 -23 22v41q0 22 23 22h158l60 112h-218q-23 0 -23 22v41
q0 22 23 22h261l77 140q12 22 33 22h41q19 0 19 -11q0 -5 -3 -11l-76 -140h115z" />
    <glyph glyph-name="lessequal" unicode="&#x2264;" horiz-adv-x="672" 
d="M531 192v-43q0 -20 -13 -20q-7 0 -14 4l-382 188q-14 7 -17.5 12.5t-3.5 19.5v24q0 14 3.5 19.5t17.5 12.5l382 187q7 4 15 4q12 0 12 -19v-44q0 -13 -4 -19t-18 -13l-287 -140l287 -140q14 -7 18 -13t4 -20zM509 -3h-386q-12 0 -17 4.5t-5 17.5v41q0 13 5 17.5t17 4.5
h386q12 0 17 -4.5t5 -17.5v-41q0 -13 -5 -17.5t-17 -4.5z" />
    <glyph glyph-name="greaterequal" unicode="&#x2265;" horiz-adv-x="672" 
d="M114 537v44q0 19 12 19q8 0 15 -4l383 -187q14 -8 17.5 -13.5t3.5 -18.5v-24q0 -13 -3.5 -18.5t-17.5 -13.5l-383 -188q-7 -4 -14 -4q-13 0 -13 20v43q0 14 4.5 20t18.5 13l286 140l-286 140q-14 7 -18.5 13t-4.5 19zM522 -3h-385q-13 0 -18 4.5t-5 17.5v41q0 13 5 17.5
t18 4.5h385q13 0 18 -4.5t5 -17.5v-41q0 -13 -5 -17.5t-18 -4.5z" />
    <glyph glyph-name="lozenge" unicode="&#x25ca;" horiz-adv-x="523" 
d="M300 668l179 -293q11 -14 11 -25t-11 -25l-179 -293q-18 -29 -24.5 -36.5t-14.5 -7.5q-12 0 -39 44l-179 293q-10 18 -10 25t10 25l179 293q27 44 39 44q8 0 14.5 -7.5t24.5 -36.5zM125 350l136 -234l137 234l-137 234z" />
    <glyph glyph-name="uniF8FF" unicode="&#xf8ff;" horiz-adv-x="1037" 
d="M826 135q-30 0 -30 30v318q2 117 -81 197t-197 78q-115 0 -196.5 -78t-81.5 -197v-318q0 -30 -29 -30q-91 0 -144 47t-53 127q0 76 38 121t98 53q-3 147 109 255t259 106q147 2 259.5 -106t109.5 -255q60 -8 98 -53t38 -121q0 -80 -53 -127t-144 -47zM454 114l-2 55
q-2 45 -9.5 79t-15 51.5t-25.5 54.5q-2 3 -7 13.5t-6.5 13.5t-5.5 12t-5 12t-4 11t-3.5 12.5t-2.5 12.5t-2.5 14.5t-1 15t-0.5 17.5q0 65 45 110.5t109 45.5q65 0 110 -45.5t45 -110.5q-1 -30 -6 -53t-10.5 -36t-20.5 -45q-18 -37 -25.5 -54.5t-15 -51.5t-9.5 -79l-2 -55
q-2 -29 -29 -29h-72q-27 0 -29 29zM559 -125h-80q-35 0 -35 35v80q0 35 35 35h80q35 0 35 -35v-80q0 -35 -35 -35z" />
    <glyph glyph-name="uniFEFF" unicode="&#xfeff;" horiz-adv-x="0" 
 />
    <glyph glyph-name="M.alt1" horiz-adv-x="933" 
d="M200 712q14 0 25 -10.5t25 -39.5l219 -445l215 446q14 28 24.5 38.5t23.5 10.5q15 0 23 -11.5t14 -40.5l120 -630q0 -3 0.5 -6.5t1 -5.5t0.5 -3q0 -15 -22 -15h-51q-18 0 -23 5t-10 25l-83 461l-200 -417q-11 -24 -18.5 -32.5t-17.5 -8.5t-17.5 8.5t-19.5 32.5l-201 418
l-82 -462q-3 -18 -9.5 -24t-23.5 -6h-50q-21 0 -21 15q0 1 0.5 3t1 5.5t0.5 6.5l119 630q6 29 14 40.5t23 11.5z" />
    <glyph glyph-name="A.alt3" 
d="M110 28q-8 -17 -15.5 -22.5t-23.5 -5.5h-51q-21 0 -21 13q0 4 5 17l300 632q15 32 22.5 42t17.5 10q15 0 38 -52l303 -632q5 -13 5 -17q0 -13 -21 -13h-55q-16 0 -23.5 5.5t-15.5 22.5l-233 500zM332 112l-59 96q-3 6 -3 9q0 6 11 6h125q11 0 11 -6q0 -3 -3 -9l-59 -96
q-6 -10 -11 -10q-6 0 -12 10z" />
    <glyph glyph-name="Aacute.alt3" 
d="M110 28q-8 -17 -15.5 -22.5t-23.5 -5.5h-51q-21 0 -21 13q0 4 5 17l300 632q15 32 22.5 42t17.5 10q15 0 38 -52l303 -632q5 -13 5 -17q0 -13 -21 -13h-55q-16 0 -23.5 5.5t-15.5 22.5l-233 500zM332 112l-59 96q-3 6 -3 9q0 6 11 6h125q11 0 11 -6q0 -3 -3 -9l-59 -96
q-6 -10 -11 -10q-6 0 -12 10zM491 890q0 -8 -11 -16l-150 -108q-14 -8 -18 -8q-6 0 -14 7l-25 20q-8 8 -8 13q0 6 9 14l144 118q11 8 18 8q8 0 18 -9l29 -24q8 -8 8 -15z" />
    <glyph glyph-name="Abreve.alt3" 
d="M110 28q-8 -17 -15.5 -22.5t-23.5 -5.5h-51q-21 0 -21 13q0 4 5 17l300 632q15 32 22.5 42t17.5 10q15 0 38 -52l303 -632q5 -13 5 -17q0 -13 -21 -13h-55q-16 0 -23.5 5.5t-15.5 22.5l-233 500zM332 112l-59 96q-3 6 -3 9q0 6 11 6h125q11 0 11 -6q0 -3 -3 -9l-59 -96
q-6 -10 -11 -10q-6 0 -12 10zM195 894q0 16 14 16h44q8 0 11 -3t5 -12q8 -65 75 -65q32 0 51.5 17t23.5 48q2 9 5 12t11 3h44q14 0 14 -16q0 -59 -38.5 -97.5t-112.5 -38.5q-72 0 -109.5 38t-37.5 98z" />
    <glyph glyph-name="Acircumflex.alt3" 
d="M110 28q-8 -17 -15.5 -22.5t-23.5 -5.5h-51q-21 0 -21 13q0 4 5 17l300 632q15 32 22.5 42t17.5 10q15 0 38 -52l303 -632q5 -13 5 -17q0 -13 -21 -13h-55q-16 0 -23.5 5.5t-15.5 22.5l-233 500zM332 112l-59 96q-3 6 -3 9q0 6 11 6h125q11 0 11 -6q0 -3 -3 -9l-59 -96
q-6 -10 -11 -10q-6 0 -12 10zM229 758q-3 0 -15 5l-30 17q-10 7 -10 14t8 15l109 105q15 14 34 14h38q19 0 34 -14l109 -105q8 -8 8 -15t-10 -14l-30 -17q-12 -5 -15 -5q-9 0 -20 11l-95 94l-95 -94q-11 -11 -20 -11z" />
    <glyph glyph-name="Adieresis.alt3" 
d="M110 28q-8 -17 -15.5 -22.5t-23.5 -5.5h-51q-21 0 -21 13q0 4 5 17l300 632q15 32 22.5 42t17.5 10q15 0 38 -52l303 -632q5 -13 5 -17q0 -13 -21 -13h-55q-16 0 -23.5 5.5t-15.5 22.5l-233 500zM332 112l-59 96q-3 6 -3 9q0 6 11 6h125q11 0 11 -6q0 -3 -3 -9l-59 -96
q-6 -10 -11 -10q-6 0 -12 10zM251 867q24 0 39 -14.5t15 -38.5q0 -23 -15 -38t-39 -15t-38.5 15t-14.5 38q0 24 14.5 38.5t38.5 14.5zM436 867q25 0 39.5 -14.5t14.5 -38.5t-15 -38.5t-39 -14.5t-38.5 15t-14.5 38q0 24 14.5 38.5t38.5 14.5z" />
    <glyph glyph-name="Agrave.alt3" 
d="M110 28q-8 -17 -15.5 -22.5t-23.5 -5.5h-51q-21 0 -21 13q0 4 5 17l300 632q15 32 22.5 42t17.5 10q15 0 38 -52l303 -632q5 -13 5 -17q0 -13 -21 -13h-55q-16 0 -23.5 5.5t-15.5 22.5l-233 500zM332 112l-59 96q-3 6 -3 9q0 6 11 6h125q11 0 11 -6q0 -3 -3 -9l-59 -96
q-6 -10 -11 -10q-6 0 -12 10zM252 938q7 0 18 -8l144 -118q10 -7 10 -14q0 -6 -9 -13l-25 -20q-8 -7 -14 -7q-4 0 -18 8l-150 108q-11 8 -11 16q0 7 8 15l29 24q10 9 18 9z" />
    <glyph glyph-name="Amacron.alt3" 
d="M110 28q-8 -17 -15.5 -22.5t-23.5 -5.5h-51q-21 0 -21 13q0 4 5 17l300 632q15 32 22.5 42t17.5 10q15 0 38 -52l303 -632q5 -13 5 -17q0 -13 -21 -13h-55q-16 0 -23.5 5.5t-15.5 22.5l-233 500zM332 112l-59 96q-3 6 -3 9q0 6 11 6h125q11 0 11 -6q0 -3 -3 -9l-59 -96
q-6 -10 -11 -10q-6 0 -12 10zM202 802v36q0 12 4.5 16.5t17.5 4.5h240q13 0 17.5 -4.5t4.5 -16.5v-36q0 -12 -4.5 -16t-17.5 -4h-240q-13 0 -17.5 4t-4.5 16z" />
    <glyph glyph-name="Aogonek.alt3" 
d="M110 28q-8 -17 -15.5 -22.5t-23.5 -5.5h-51q-21 0 -21 13q0 4 5 17l301 634q13 29 21 39.5t18 10.5q15 0 38 -52l303 -632q5 -13 5 -17q0 -13 -21 -13h-33q-64 -34 -64 -86q0 -24 17 -39t41 -15q29 0 56 15q7 4 12 4q6 0 11 -9l12 -23q3 -6 3 -11q0 -10 -12 -17
q-40 -25 -90 -25q-54 0 -88.5 30.5t-34.5 77.5q0 73 80 118l-237 508zM332 112l-59 96q-3 6 -3 9q0 6 11 6h125q11 0 11 -6q0 -3 -3 -9l-59 -96q-6 -10 -11 -10q-6 0 -12 10z" />
    <glyph glyph-name="Aring.alt3" 
d="M344 909q56 0 95.5 -40t39.5 -95q0 -42 -25 -77t-65 -50l296 -617q5 -13 5 -17q0 -13 -21 -13h-55q-16 0 -23.5 5.5t-15.5 22.5l-233 500l-232 -500q-8 -17 -15.5 -22.5t-23.5 -5.5h-51q-21 0 -21 13q0 4 5 17l292 617q-39 14 -63.5 48.5t-24.5 78.5q0 54 40.5 94.5
t95.5 40.5zM344 711q26 0 44.5 18t18.5 45q0 26 -18.5 44.5t-44.5 18.5q-27 0 -45 -18.5t-18 -44.5q0 -27 18 -45t45 -18zM332 112l-59 96q-3 6 -3 9q0 6 11 6h125q11 0 11 -6q0 -3 -3 -9l-59 -96q-6 -10 -11 -10q-6 0 -12 10z" />
    <glyph glyph-name="Atilde.alt3" 
d="M110 28q-8 -17 -15.5 -22.5t-23.5 -5.5h-51q-21 0 -21 13q0 4 5 17l300 632q15 32 22.5 42t17.5 10q15 0 38 -52l303 -632q5 -13 5 -17q0 -13 -21 -13h-55q-16 0 -23.5 5.5t-15.5 22.5l-233 500zM332 112l-59 96q-3 6 -3 9q0 6 11 6h125q11 0 11 -6q0 -3 -3 -9l-59 -96
q-6 -10 -11 -10q-6 0 -12 10zM331 788q-36 18 -58 18q-34 0 -63 -35q-6 -7 -12 -7q-5 0 -11 6l-24 30q-4 4 -4 10q0 4 6 12q44 56 110 56q33 0 84 -24q36 -18 58 -18q34 0 63 35q6 7 12 7q5 0 11 -6l24 -30q4 -4 4 -10q0 -4 -6 -13q-44 -55 -110 -55q-36 0 -84 24z" />
    <glyph glyph-name="f_i" horiz-adv-x="826" 
d="M166 0h-56q-12 0 -17 4.5t-5 17.5v656q0 13 5 17.5t17 4.5h381q12 0 17 -4.5t5 -17.5v-51q0 -13 -5 -17.5t-17 -4.5h-291q-12 0 -12 -11v-198q0 -11 12 -11h256q13 0 18 -5t5 -18v-50q0 -22 -23 -22h-256q-12 0 -12 -11v-257q0 -13 -5 -17.5t-17 -4.5zM716 0h-56
q-12 0 -17 4.5t-5 17.5v656q0 13 5 17.5t17 4.5h56q12 0 17 -4.5t5 -17.5v-656q0 -13 -5 -17.5t-17 -4.5z" />
    <glyph glyph-name="f_l" horiz-adv-x="1102" 
d="M166 0h-56q-12 0 -17 4.5t-5 17.5v656q0 13 5 17.5t17 4.5h381q12 0 17 -4.5t5 -17.5v-51q0 -13 -5 -17.5t-17 -4.5h-291q-12 0 -12 -11v-198q0 -11 12 -11h256q13 0 18 -5t5 -18v-50q0 -22 -23 -22h-256q-12 0 -12 -11v-257q0 -13 -5 -17.5t-17 -4.5zM750 94h295
q22 0 22 -22v-50q0 -13 -5 -17.5t-17 -4.5h-385q-12 0 -17 4.5t-5 17.5v656q0 13 5 17.5t17 4.5h56q12 0 17 -4.5t5 -17.5v-573q0 -11 12 -11z" />
    <glyph glyph-name="zero.dnom" horiz-adv-x="399" 
d="M200 410q76 0 123.5 -57t47.5 -151t-48.5 -151.5t-123.5 -57.5q-76 0 -123.5 56.5t-47.5 150.5t48 152t124 58zM199 65q42 0 67.5 38t25.5 98q0 63 -25 100t-68 37t-67.5 -37t-24.5 -100q0 -62 24.5 -99t67.5 -37z" />
    <glyph glyph-name="one.dnom" horiz-adv-x="266" 
d="M178 386v-369q0 -15 -15 -15h-46q-16 0 -16 15v305q0 9 -9 9h-48q-15 0 -15 15v40q0 15 15 15h119q15 0 15 -15z" />
    <glyph glyph-name="two.dnom" horiz-adv-x="364" 
d="M309 2h-274q-15 0 -15 8q0 5 6 13l131 145q68 75 68 113q0 27 -17.5 42t-47.5 15q-47 0 -85 -32q-8 -5 -10 -5q-6 0 -10 7l-21 32q-4 4 -4 11q0 6 7 12q56 47 127 47q63 0 101.5 -34t38.5 -89q0 -33 -14.5 -62t-51.5 -69l-74 -83h145q16 0 16 -15v-41q0 -15 -16 -15z" />
    <glyph glyph-name="three.dnom" horiz-adv-x="364" 
d="M253 132q0 65 -114 65q-16 0 -16 9q0 3 5 11l77 113h-150q-16 0 -16 15v41q0 15 16 15h260q13 0 13 -8q0 -7 -6 -14l-93 -132q49 -8 76 -37t27 -76q0 -62 -47 -101.5t-124 -39.5q-80 0 -136 46q-9 7 -9 14q0 6 4 10l21 33q6 9 12 9q4 0 9 -5q42 -35 100 -35
q40 0 65.5 18.5t25.5 48.5z" />
    <glyph glyph-name="four.dnom" horiz-adv-x="364" 
d="M334 157q15 0 15 -15v-37q0 -16 -15 -16h-41v-72q0 -15 -15 -15h-46q-16 0 -16 15v72h-184q-26 0 -26 19q0 11 10 22l219 257q21 25 36 25q22 0 22 -30v-225h41zM217 280l-102 -123h102v123z" />
    <glyph glyph-name="five.dnom" horiz-adv-x="364" 
d="M122 319l-4 -70q27 9 62 9q67 0 107.5 -34.5t40.5 -88.5q0 -61 -45.5 -101.5t-125.5 -40.5q-73 0 -129 38q-10 6 -10 12q0 7 4 11l20 33q6 9 11 9t9 -4q43 -29 95 -29q44 0 67.5 18t23.5 51q0 29 -23 45.5t-63 16.5q-50 0 -98 -17q-8 -2 -9 -2q-12 0 -10 17l10 190
q1 11 5 15t15 4h216q16 0 16 -15v-40q0 -15 -16 -15h-157q-12 0 -12 -12z" />
    <glyph glyph-name="six.dnom" horiz-adv-x="364" 
d="M186 401h56q13 0 13 -8q0 -2 -5 -10l-85 -113q18 7 38 7q59 0 100 -37.5t41 -98.5q0 -66 -47.5 -107t-117.5 -41t-114 39t-44 101q0 66 60 146l78 107q13 15 27 15zM181 63q37 0 60.5 21t23.5 55q0 33 -22.5 53t-58.5 20q-37 0 -60.5 -20.5t-23.5 -54.5q0 -33 22.5 -53.5
t58.5 -20.5z" />
    <glyph glyph-name="seven.dnom" horiz-adv-x="364" 
d="M160 2h-50q-13 0 -13 8q0 4 3 10l137 310h-194q-15 0 -15 15v41q0 15 15 15h283q15 0 15 -9q0 -6 -3 -13l-154 -360q-7 -17 -24 -17z" />
    <glyph glyph-name="eight.dnom" horiz-adv-x="364" 
d="M326 295q0 -61 -57 -86q68 -25 68 -94q0 -59 -42 -90.5t-115 -31.5q-70 0 -112 31.5t-42 88.5q0 71 68 96q-56 23 -56 85q0 52 40 84t106 32q64 0 103 -32t39 -83zM116 290q0 -24 18 -38.5t48 -14.5q28 0 47 14.5t19 38.5q0 25 -18 39.5t-48 14.5t-48 -14.5t-18 -39.5z
M182 177q-32 0 -54 -16t-22 -43q0 -28 20 -43.5t56 -15.5q35 0 55.5 15.5t20.5 43.5q0 27 -22 43t-54 16z" />
    <glyph glyph-name="nine.dnom" horiz-adv-x="364" 
d="M178 2h-56q-13 0 -13 7q0 2 5 10l85 113q-17 -6 -38 -6q-59 0 -100 37.5t-41 98.5q0 66 47.5 106.5t117.5 40.5t114 -38.5t44 -101.5q0 -67 -60 -145l-78 -107q-13 -15 -27 -15zM183 340q-37 0 -60.5 -21t-23.5 -56q0 -33 22 -53t59 -20t60.5 20.5t23.5 55.5
q0 33 -23 53.5t-58 20.5z" />
    <glyph glyph-name="zero.numr" horiz-adv-x="399" 
d="M200 709q76 0 123.5 -57t47.5 -151t-48.5 -151.5t-123.5 -57.5q-76 0 -123.5 56.5t-47.5 150.5t48 152t124 58zM199 364q42 0 67.5 38t25.5 98q0 63 -25 100t-68 37t-67.5 -37t-24.5 -100q0 -62 24.5 -99t67.5 -37z" />
    <glyph glyph-name="one.numr" horiz-adv-x="266" 
d="M178 685v-369q0 -15 -15 -15h-46q-16 0 -16 15v305q0 9 -9 9h-48q-15 0 -15 15v40q0 15 15 15h119q15 0 15 -15z" />
    <glyph glyph-name="two.numr" horiz-adv-x="364" 
d="M309 301h-274q-15 0 -15 8q0 5 6 13l131 145q68 75 68 113q0 27 -17.5 42t-47.5 15q-47 0 -85 -32q-8 -5 -10 -5q-6 0 -10 7l-21 32q-4 4 -4 11q0 6 7 12q56 47 127 47q63 0 101.5 -34t38.5 -89q0 -33 -14.5 -62t-51.5 -69l-74 -83h145q16 0 16 -15v-41q0 -15 -16 -15z
" />
    <glyph glyph-name="three.numr" horiz-adv-x="364" 
d="M253 431q0 65 -114 65q-16 0 -16 9q0 3 5 11l77 113h-150q-16 0 -16 15v41q0 15 16 15h260q13 0 13 -8q0 -6 -6 -14l-93 -132q49 -8 76 -37t27 -76q0 -62 -47 -101.5t-124 -39.5q-80 0 -136 46q-9 8 -9 14t4 10l21 33q6 9 12 9q4 0 9 -5q42 -35 100 -35q40 0 65.5 18.5
t25.5 48.5z" />
    <glyph glyph-name="four.numr" horiz-adv-x="364" 
d="M334 456q15 0 15 -15v-37q0 -16 -15 -16h-41v-72q0 -15 -15 -15h-46q-16 0 -16 15v72h-184q-26 0 -26 19q0 11 10 22l219 257q21 25 36 25q22 0 22 -30v-225h41zM217 579l-102 -123h102v123z" />
    <glyph glyph-name="five.numr" horiz-adv-x="364" 
d="M122 618l-4 -70q27 9 62 9q67 0 107.5 -34.5t40.5 -88.5q0 -61 -45.5 -101.5t-125.5 -40.5q-73 0 -129 38q-10 6 -10 12q0 7 4 11l20 33q6 9 11 9t9 -4q43 -29 95 -29q44 0 67.5 18t23.5 51q0 29 -23 45.5t-63 16.5q-50 0 -98 -17q-8 -2 -9 -2q-12 0 -10 17l10 190
q1 11 5 15t15 4h216q16 0 16 -15v-40q0 -15 -16 -15h-157q-12 0 -12 -12z" />
    <glyph glyph-name="six.numr" horiz-adv-x="364" 
d="M186 700h56q13 0 13 -8q0 -2 -5 -10l-85 -113q18 7 38 7q59 0 100 -37.5t41 -98.5q0 -66 -47.5 -107t-117.5 -41t-114 39t-44 101q0 66 60 146l78 107q13 15 27 15zM181 362q37 0 60.5 21t23.5 55q0 33 -22.5 53t-58.5 20q-37 0 -60.5 -20.5t-23.5 -54.5
q0 -33 22.5 -53.5t58.5 -20.5z" />
    <glyph glyph-name="seven.numr" horiz-adv-x="364" 
d="M160 301h-50q-13 0 -13 8q0 4 3 10l137 310h-194q-15 0 -15 15v41q0 15 15 15h283q15 0 15 -9q0 -5 -3 -13l-154 -360q-7 -17 -24 -17z" />
    <glyph glyph-name="eight.numr" horiz-adv-x="364" 
d="M326 594q0 -61 -57 -86q68 -25 68 -94q0 -59 -42 -90.5t-115 -31.5q-70 0 -112 31.5t-42 88.5q0 71 68 96q-56 23 -56 85q0 52 40 84t106 32q64 0 103 -32t39 -83zM116 589q0 -24 18 -38.5t48 -14.5q28 0 47 14.5t19 38.5q0 25 -18 39.5t-48 14.5t-48 -14.5t-18 -39.5z
M182 476q-32 0 -54 -16t-22 -43q0 -28 20 -43.5t56 -15.5q35 0 55.5 15.5t20.5 43.5q0 27 -22 43t-54 16z" />
    </font>
</defs>
</svg>
